<svg width="64" height="51" viewBox="0 0 64 51" fill="none" xmlns="http://www.w3.org/2000/svg">
<path d="M16.3057 11.9582L23.3974 19.019L19.019 23.3974L11.9582 16.3057L4.89738 23.3974L0.519043 19.019L7.61071 11.9582L0.519043 4.89738L4.89738 0.519043L11.9582 7.61071L19.019 0.519043L23.3974 4.89738L16.3057 11.9582ZM63.4807 44.9807L59.1024 40.6024L52.0415 47.694L44.9807 40.6024L40.6024 44.9807L47.694 52.0415L40.6024 59.1024L44.9807 63.4807L52.0415 56.389L59.1024 63.4807L63.4807 59.1024L56.389 52.0415L63.4807 44.9807ZM57.8999 16.059L47.9715 28.9165L43.0999 25.0007L46.7074 20.3757C42.106 21.3104 37.8137 23.3873 34.2252 26.4154C30.6368 29.4435 27.8676 33.3254 26.1724 37.704C28.8561 39.6393 30.7598 42.47 31.5403 45.6854C32.3207 48.9007 31.9264 52.2891 30.4285 55.2394C28.9306 58.1896 26.4277 60.5075 23.3713 61.7749C20.315 63.0422 16.9063 63.1756 13.7602 62.151C10.6141 61.1264 7.93772 59.0113 6.21381 56.1872C4.48991 53.363 3.83198 50.0158 4.35871 46.7492C4.88544 43.4827 6.56214 40.5119 9.08638 38.3728C11.6106 36.2336 14.8162 35.067 18.1249 35.0832C18.9327 35.0865 19.7382 35.1691 20.5299 35.3299C22.6661 30.0285 26.0769 25.3359 30.4603 21.6678C34.8436 17.9998 40.0641 15.4697 45.659 14.3015L41.2499 10.9715L45.1657 6.09988L57.8999 16.059ZM25.8332 48.9582C25.8332 47.4336 25.3811 45.9433 24.5341 44.6757C23.6871 43.4081 22.4832 42.4201 21.0747 41.8366C19.6662 41.2532 18.1163 41.1006 16.6211 41.398C15.1258 41.6954 13.7523 42.4296 12.6743 43.5076C11.5962 44.5856 10.8621 45.9591 10.5647 47.4544C10.2672 48.9497 10.4199 50.4995 11.0033 51.9081C11.5867 53.3166 12.5747 54.5204 13.8424 55.3674C15.11 56.2145 16.6003 56.6665 18.1249 56.6665C20.1693 56.6665 22.1299 55.8544 23.5755 54.4088C25.0211 52.9632 25.8332 51.0026 25.8332 48.9582Z" fill="#DFE4E6"/>
</svg>
