<svg width="60" height="50" viewBox="0 0 60 50" fill="none" xmlns="http://www.w3.org/2000/svg">
<path d="M11.25 21.875V20.875C7.81635 20.875 4.75 17.5354 4.75 13.125C4.75 8.71461 7.81635 5.375 11.25 5.375C14.6836 5.375 17.75 8.71461 17.75 13.125V13.962C15.5004 15.8735 14 18.6476 14 21.875V39.375C14 42.4855 15.4144 45.6985 17.75 47.3561V69H4.75V48.125V47.125H3.75C3.19612 47.125 2.51341 46.7863 1.93113 46.107C1.35827 45.4387 1 44.5691 1 43.75V26.25C1 25.4309 1.35827 24.5613 1.93113 23.893C2.51341 23.2137 3.19612 22.875 3.75 22.875H11.25V21.875Z" fill="#DFE4E6" stroke="#DFE4E6" stroke-width="2"/>
<path d="M48.75 21.875V22.875H56.25C56.8039 22.875 57.4866 23.2137 58.0689 23.893C58.6417 24.5613 59 25.4309 59 26.25V43.75C59 44.5691 58.6417 45.4387 58.0689 46.107C57.4866 46.7863 56.8039 47.125 56.25 47.125H55.25V48.125V69H42.25V47.3561C44.5856 45.6985 46 42.4855 46 39.375V21.875C46 18.6476 44.4996 15.8735 42.25 13.962V13.125C42.25 8.71461 45.3164 5.375 48.75 5.375C52.1836 5.375 55.25 8.71461 55.25 13.125C55.25 17.5354 52.1836 20.875 48.75 20.875V21.875Z" fill="#DFE4E6" stroke="#DFE4E6" stroke-width="2"/>
<path d="M23.5 43.7498V42.7498H22.5C21.9461 42.7498 21.2634 42.4111 20.6811 41.7318C20.1083 41.0634 19.75 40.1939 19.75 39.3748V21.8748C19.75 21.0556 20.1083 20.1861 20.6811 19.5177C21.2634 18.8384 21.9461 18.4998 22.5 18.4998H28.2935C28.8539 18.6313 29.4269 18.6984 30.004 18.6982C30.5797 18.6981 31.1513 18.631 31.7102 18.4998H37.5C38.0539 18.4998 38.7366 18.8384 39.3189 19.5177C39.8917 20.1861 40.25 21.0556 40.25 21.8748V39.3748C40.25 40.1939 39.8917 41.0634 39.3189 41.7318C38.7366 42.4111 38.0539 42.7498 37.5 42.7498H36.5V43.7498V68.9998H23.5V43.7498ZM31.4606 16.4998H28.5432C28.2006 16.4054 27.8635 16.2774 27.5352 16.1164C26.7469 15.7297 26.0217 15.1576 25.4072 14.4249C24.7924 13.6918 24.3028 12.8147 23.9735 11.842C23.6442 10.8694 23.4836 9.82575 23.5035 8.77375C23.5428 6.70422 24.2756 4.76062 25.509 3.35277C26.7384 1.94953 28.3547 1.19872 30.0003 1.19824C31.6459 1.19776 33.2625 1.94761 34.4924 3.35009C35.7263 4.75716 36.46 6.7003 36.5002 8.7698C36.5205 9.82179 36.3604 10.8655 36.0315 11.8384C35.7026 12.8113 35.2133 13.6887 34.5989 14.4221C33.9847 15.1553 33.2597 15.7278 32.4715 16.1149C32.1423 16.2767 31.8042 16.4051 31.4606 16.4998Z" fill="#DFE4E6" stroke="#DFE4E6" stroke-width="2"/>
</svg>
