<svg width="74" height="50" viewBox="0 0 74 50" fill="none" xmlns="http://www.w3.org/2000/svg">
<path d="M37.3589 17.9161L37.3242 17.9718L37.2931 18.0297C36.5852 19.3498 36.0279 20.831 36.0279 22.6165C36.0279 27.7516 40.6259 31.5165 45.6335 31.5165H59.4613V57.6915C59.4613 58.5114 58.7044 59.3332 57.7613 59.3332H16.0335C15.0903 59.3332 14.3335 58.5114 14.3335 57.6915V11.3082C14.3335 10.4882 15.0903 9.6665 16.0335 9.6665H42.5065L37.3589 17.9161Z" stroke="#DFE4E6" stroke-width="4"/>
<path d="M55.2952 2.10776L43.3729 21.0828C42.5507 22.2328 42.9618 23.7661 43.9896 24.5328C44.4007 24.9161 45.0174 24.9161 45.6341 24.9161H69.2729C70.7118 24.9161 71.9452 23.9578 71.9452 22.6161C71.9452 22.0411 71.7396 21.6578 71.5341 21.0828L59.8174 2.10776C58.9952 0.95776 57.5563 0.574427 56.1174 1.14943C55.7063 1.53276 55.5007 1.91609 55.2952 2.10776Z" fill="#DFE4E6"/>
</svg>
