<svg width="65" height="48" viewBox="0 0 65 48" fill="none" xmlns="http://www.w3.org/2000/svg">
<path d="M42.6256 55.7025L45.892 61.2985C42.7563 62.7136 39.3266 63.6462 35.7663 64V57.5035C38.1834 57.2141 40.4698 56.603 42.6256 55.7025ZM6.59799 35.2161H0C0.359296 38.7538 1.30653 42.0985 2.74372 45.1859L8.42714 41.9698C7.51256 39.8472 6.89196 37.596 6.59799 35.2161ZM42.6256 8.29749L45.892 2.70151C42.7563 1.28643 39.3593 0.353769 35.7663 0V6.49648C38.1834 6.78593 40.4698 7.39699 42.6256 8.29749ZM58.402 28.7839H65C64.6407 25.2462 63.6935 21.9015 62.2563 18.8141L56.5729 22.0301C57.4874 24.1528 58.108 26.404 58.402 28.7839ZM22.3744 55.7025L19.108 61.2985C22.2437 62.7136 25.6734 63.6462 29.2337 64V57.5035C26.8166 57.2141 24.5301 56.603 22.3744 55.7025ZM29.2337 6.49648V0C25.6407 0.353769 22.2437 1.28643 19.108 2.70151L22.3744 8.29749C24.5301 7.39699 26.8166 6.78593 29.2337 6.49648ZM53.2739 16.4663L58.9573 13.2181C56.8995 10.4201 54.3844 7.94372 51.5427 5.91759L48.2437 11.5136C50.1708 12.9608 51.8367 14.601 53.2739 16.4663ZM8.42714 22.0301L2.74372 18.8141C1.30653 21.9015 0.359296 25.2462 0 28.7839H6.59799C6.89196 26.404 7.51256 24.1528 8.42714 22.0301ZM58.402 35.2161C58.108 37.596 57.4874 39.8472 56.5729 41.9698L62.2563 45.1859C63.6935 42.0985 64.6407 38.7216 65 35.2161H58.402ZM48.2764 52.4543L51.5754 58.0503C54.4171 56.0241 56.9322 53.5477 58.99 50.7497L53.3065 47.5015C51.8367 49.399 50.1708 51.0392 48.2764 52.4543ZM16.7236 11.5457L13.4573 5.91759C10.5829 7.97588 8.1005 10.4201 6.04271 13.2502L11.7261 16.4985C13.1461 14.6235 14.8286 12.956 16.7236 11.5457ZM11.7261 47.5337L6.04271 50.7497C8.1005 53.5477 10.6156 56.0241 13.4573 58.0503L16.7563 52.4543C14.852 51.0562 13.1584 49.3995 11.7261 47.5337ZM35.7663 15.9196H29.2337V33.3186L43.2462 47.1156L47.8518 42.5809L35.7663 30.6814V15.9196Z" fill="#DFE4E6"/>
</svg>
