<svg width="62" height="48" viewBox="0 0 62 48" fill="none" xmlns="http://www.w3.org/2000/svg">
<path d="M58.867 17.6888C62.1643 24.5799 62.792 32.4482 60.6291 39.775C58.4661 47.1018 53.6659 53.3677 47.1547 57.3633C40.6436 61.3589 32.8831 62.801 25.3712 61.4112C17.8593 60.0215 11.1285 55.8984 6.4778 49.8378C1.82712 43.7772 -0.41372 36.2086 0.187785 28.593C0.78929 20.9773 4.19049 13.8544 9.73495 8.59904C15.2794 3.34366 22.574 0.328353 30.211 0.1351C37.8479 -0.0581537 45.2857 2.58434 51.0889 7.55258L57.8208 0.820639C58.2662 0.375229 58.8703 0.125 59.5002 0.125C60.1301 0.125 60.7343 0.375229 61.1797 0.820639C61.6251 1.26605 61.8753 1.87016 61.8753 2.50006C61.8753 3.12997 61.6251 3.73407 61.1797 4.17948L42.7574 22.6015L42.7562 22.603L42.7547 22.6041L32.6797 32.6792C32.2343 33.1246 31.6302 33.3748 31.0002 33.3748C30.3703 33.3748 29.7662 33.1246 29.3208 32.6792C28.8754 32.2338 28.6252 31.6297 28.6252 30.9998C28.6252 30.3699 28.8754 29.7658 29.3208 29.3203L37.5502 21.091C35.3193 19.6152 32.6556 18.9357 29.9904 19.1623C27.3251 19.3889 24.8144 20.5084 22.8647 22.3396C20.9149 24.1708 19.6403 26.6065 19.2472 29.2523C18.854 31.898 19.3654 34.5991 20.6984 36.9181C22.0315 39.2371 24.1082 41.0382 26.5924 42.03C29.0766 43.0218 31.8228 43.1461 34.3864 42.3828C36.95 41.6195 39.181 40.0133 40.7181 37.8242C42.2552 35.6351 43.0085 32.9913 42.8559 30.3208C42.8364 30.0084 42.8788 29.6951 42.9807 29.3991C43.0826 29.1031 43.2421 28.8302 43.4498 28.5961C43.6576 28.3619 43.9096 28.1711 44.1914 28.0347C44.4732 27.8983 44.7791 27.8189 45.0917 27.8012C45.4042 27.7834 45.7172 27.8277 46.0126 27.9313C46.308 28.035 46.58 28.196 46.8129 28.4051C47.0459 28.6142 47.2352 28.8674 47.37 29.1499C47.5047 29.4325 47.5823 29.7389 47.5982 30.0515C47.8148 33.8305 46.7355 37.5703 44.5387 40.6527C42.3418 43.7351 39.1589 45.9757 35.5161 47.0041C31.8733 48.0324 27.9887 47.787 24.5042 46.3084C21.0198 44.8299 18.1442 42.2066 16.3527 38.8722C14.5612 35.5379 13.961 31.692 14.6514 27.9703C15.3418 24.2487 17.2815 20.874 20.1497 18.404C23.018 15.9341 26.6432 14.5168 30.4261 14.3863C34.209 14.2559 37.9232 15.4202 40.9548 17.6867L47.714 10.9269C42.7644 6.81697 36.4708 4.68069 30.0421 4.92832C23.6133 5.17594 17.5027 7.79002 12.8839 12.2685C8.2651 16.7469 5.46375 22.774 5.0179 29.192C4.57205 35.61 6.51314 41.9665 10.4684 47.0406C14.4236 52.1147 20.114 55.5485 26.4468 56.6827C32.7795 57.8168 39.308 56.5713 44.7784 53.1852C50.2488 49.7992 54.2752 44.5115 56.0845 38.3376C57.8937 32.1637 57.3582 25.5391 54.5807 19.736C54.3092 19.1676 54.2746 18.5147 54.4845 17.9207C54.6944 17.3268 55.1317 16.8406 55.7001 16.5691C56.2685 16.2976 56.9215 16.263 57.5154 16.4729C58.1093 16.6828 58.5955 17.1201 58.867 17.6885V17.6888Z" fill="#DFE4E6"/>
</svg>
