<svg width="59" height="49" viewBox="0 0 59 49" fill="none" xmlns="http://www.w3.org/2000/svg">
<path fill-rule="evenodd" clip-rule="evenodd" d="M47.1722 -0.000488281H12.147V4.12351H-0.03125V23.4675C-0.03125 30.9435 8.19004 37.0955 16.2576 37.7355C18.9061 40.6155 23.5646 42.7075 27.7107 43.5995V48.6555C23.7459 49.8915 16.6636 52.7955 16.2576 55.9595H43.4675C43.0576 52.7955 35.2541 49.8875 31.2814 48.6555V43.5995C35.4433 42.7075 40.3106 40.6155 42.963 37.7355C51.0267 37.0955 58.8854 30.9435 58.8854 23.4675V4.12351H47.1722V-0.000488281ZM3.70893 7.78751H11.8632V24.4515C11.8632 27.7395 12.6987 30.8675 14.1688 33.6835C8.06787 31.7115 3.70893 26.6315 3.70893 20.6875V7.78751ZM35.6482 28.1115L29.563 24.7075L23.47 28.1115L24.6326 20.9115L19.7062 15.8155L26.5126 14.7635L29.563 8.21951L32.6056 14.7635L39.412 15.8155L34.4856 20.9115L35.6482 28.1115ZM44.6932 34.2155C46.1712 31.2715 47.0185 28.0155 47.0185 24.5715V7.89551H55.1925V20.6395C55.1925 26.8515 50.8139 32.1555 44.6932 34.2155Z" fill="#DFE4E6"/>
</svg>
