<svg width="70" height="58" viewBox="0 0 70 58" fill="none" xmlns="http://www.w3.org/2000/svg">
<path d="M44.7017 39.4V45.9333C44.7017 46.7997 44.3961 47.6306 43.8521 48.2432C43.3082 48.8558 42.5704 49.2 41.8011 49.2H30.1989C29.4296 49.2 28.6918 48.8558 28.1479 48.2432C27.6039 47.6306 27.2983 46.7997 27.2983 45.9333V39.4C24.8632 37.3432 23.0644 34.4756 22.1569 31.2034C21.2493 27.9313 21.2789 24.4204 22.2414 21.1683C23.204 17.9161 25.0507 15.0875 27.5201 13.083C29.9894 11.0786 32.9561 10 36 10C39.0439 10 42.0106 11.0786 44.4799 13.083C46.9493 15.0875 48.796 17.9161 49.7586 21.1683C50.7211 24.4204 50.7507 27.9313 49.8431 31.2034C48.9355 34.4756 47.1368 37.3432 44.7017 39.4ZM41.8011 52.4667H30.1989V55.7333C30.1989 56.5997 30.5045 57.4306 31.0484 58.0432C31.5924 58.6558 32.3302 59 33.0994 59H38.9006C39.6698 59 40.4076 58.6558 40.9516 58.0432C41.4955 57.4306 41.8011 56.5997 41.8011 55.7333V52.4667ZM21.4972 55.7333V52.4667H15.6961V55.7333C15.6961 56.5997 16.0016 57.4306 16.5456 58.0432C17.0896 58.6558 17.8273 59 18.5966 59H21.9903C21.6585 57.9517 21.4917 56.8462 21.4972 55.7333ZM15.6961 26.3333C15.6792 22.9397 16.354 19.5871 17.6684 16.5333C15.2029 16.7575 12.8656 17.8633 10.9975 19.6892C9.12938 21.5152 7.82834 23.9657 7.28421 26.6832C6.74008 29.4007 6.98136 32.2429 7.97282 34.7951C8.96428 37.3473 10.654 39.4758 12.7955 40.87V45.9333C12.7955 46.7997 13.1011 47.6306 13.645 48.2432C14.189 48.8558 14.9268 49.2 15.6961 49.2H21.4972V42.2747C17.7708 38.0316 15.6855 32.3012 15.6961 26.3333ZM50.5028 52.4667V55.7333C50.5083 56.8462 50.3415 57.9517 50.0097 59H53.4034C54.1727 59 54.9104 58.6558 55.4544 58.0432C55.9984 57.4306 56.3039 56.5997 56.3039 55.7333V52.4667H50.5028ZM54.3316 16.5333C55.646 19.5871 56.3208 22.9397 56.3039 26.3333C56.3145 32.3012 54.2292 38.0316 50.5028 42.2747V49.2H56.3039C57.0732 49.2 57.811 48.8558 58.355 48.2432C58.8989 47.6306 59.2045 46.7997 59.2045 45.9333V40.87C61.346 39.4758 63.0357 37.3473 64.0272 34.7951C65.0186 32.2429 65.2599 29.4007 64.7158 26.6832C64.1717 23.9657 62.8706 21.5152 61.0025 19.6892C59.1344 17.8633 56.7971 16.7575 54.3316 16.5333Z" fill="#DFE4E6"/>
</svg>
