<svg width="43" height="41" viewBox="0 0 43 41" fill="none" xmlns="http://www.w3.org/2000/svg">
<path fill-rule="evenodd" clip-rule="evenodd" d="M32.9425 2.85449H10.725V5.43199H3V17.522C3 22.1945 8.215 26.0395 13.3325 26.4395C15.0125 28.2395 17.9675 29.547 20.5975 30.1045V33.2645C18.0825 34.037 13.59 35.852 13.3325 37.8295H30.5925C30.3325 35.852 25.3825 34.0345 22.8625 33.2645V30.1045C25.5025 29.547 28.59 28.2395 30.2725 26.4395C35.3875 26.0395 40.3725 22.1945 40.3725 17.522V5.43199H32.9425V2.85449ZM5.3725 7.72199H10.545V18.137C10.545 20.192 11.075 22.147 12.0075 23.907C8.1375 22.6745 5.3725 19.4995 5.3725 15.7845V7.72199ZM25.6325 20.4245L21.7725 18.297L17.9075 20.4245L18.645 15.9245L15.52 12.7395L19.8375 12.082L21.7725 7.99199L23.7025 12.082L28.02 12.7395L24.895 15.9245L25.6325 20.4245ZM31.37 24.2395C32.3075 22.3995 32.845 20.3645 32.845 18.212V7.78949H38.03V15.7545C38.03 19.637 35.2525 22.952 31.37 24.2395Z" fill="url(#paint0_angular)"/>
<defs>
<radialGradient id="paint0_angular" cx="0" cy="0" r="1" gradientUnits="userSpaceOnUse" gradientTransform="translate(21.6863 20.342) rotate(90) scale(17.4875 18.6863)">
<stop stop-color="#B71C1C"/>
<stop offset="1" stop-color="#FF6969"/>
</radialGradient>
</defs>
</svg>
