<svg width="44" height="41" viewBox="0 0 44 41" fill="none" xmlns="http://www.w3.org/2000/svg">
<path fill-rule="evenodd" clip-rule="evenodd" d="M33.3424 2.85449H11.1249V5.43199H3.3999V17.522C3.3999 22.1945 8.6149 26.0395 13.7324 26.4395C15.4124 28.2395 18.3674 29.547 20.9974 30.1045V33.2645C18.4824 34.037 13.9899 35.852 13.7324 37.8295H30.9924C30.7324 35.852 25.7824 34.0345 23.2624 33.2645V30.1045C25.9024 29.547 28.9899 28.2395 30.6724 26.4395C35.7874 26.0395 40.7724 22.1945 40.7724 17.522V5.43199H33.3424V2.85449ZM5.7724 7.72199H10.9449V18.137C10.9449 20.192 11.4749 22.147 12.4074 23.907C8.5374 22.6745 5.7724 19.4995 5.7724 15.7845V7.72199ZM26.0324 20.4245L22.1724 18.297L18.3074 20.4245L19.0449 15.9245L15.9199 12.7395L20.2374 12.082L22.1724 7.99199L24.1024 12.082L28.4199 12.7395L25.2949 15.9245L26.0324 20.4245ZM31.7699 24.2395C32.7074 22.3995 33.2449 20.3645 33.2449 18.212V7.78949H38.4299V15.7545C38.4299 19.637 35.6524 22.952 31.7699 24.2395Z" fill="url(#paint0_angular)"/>
<defs>
<radialGradient id="paint0_angular" cx="0" cy="0" r="1" gradientUnits="userSpaceOnUse" gradientTransform="translate(22.0862 20.342) rotate(90) scale(17.4875 18.6863)">
<stop stop-color="#29A7DC"/>
<stop offset="1" stop-color="#53C6F8"/>
</radialGradient>
</defs>
</svg>
