<svg width="43" height="41" viewBox="0 0 43 41" fill="none" xmlns="http://www.w3.org/2000/svg">
<path fill-rule="evenodd" clip-rule="evenodd" d="M32.7423 2.85449H10.5248V5.43199H2.7998V17.522C2.7998 22.1945 8.01481 26.0395 13.1323 26.4395C14.8123 28.2395 17.7673 29.547 20.3973 30.1045V33.2645C17.8823 34.037 13.3898 35.852 13.1323 37.8295H30.3923C30.1323 35.852 25.1823 34.0345 22.6623 33.2645V30.1045C25.3023 29.547 28.3898 28.2395 30.0723 26.4395C35.1873 26.0395 40.1723 22.1945 40.1723 17.522V5.43199H32.7423V2.85449ZM5.1723 7.72199H10.3448V18.137C10.3448 20.192 10.8748 22.147 11.8073 23.907C7.9373 22.6745 5.1723 19.4995 5.1723 15.7845V7.72199ZM25.4323 20.4245L21.5723 18.297L17.7073 20.4245L18.4448 15.9245L15.3198 12.7395L19.6373 12.082L21.5723 7.99199L23.5023 12.082L27.8198 12.7395L24.6948 15.9245L25.4323 20.4245ZM31.1698 24.2395C32.1073 22.3995 32.6448 20.3645 32.6448 18.212V7.78949H37.8298V15.7545C37.8298 19.637 35.0523 22.952 31.1698 24.2395Z" fill="url(#paint0_angular)"/>
<defs>
<radialGradient id="paint0_angular" cx="0" cy="0" r="1" gradientUnits="userSpaceOnUse" gradientTransform="translate(21.4861 20.342) rotate(90) scale(17.4875 18.6863)">
<stop stop-color="#E36729"/>
<stop offset="1" stop-color="#FF8E56"/>
</radialGradient>
</defs>
</svg>
