<svg width="44" height="41" viewBox="0 0 44 41" fill="none" xmlns="http://www.w3.org/2000/svg">
<path fill-rule="evenodd" clip-rule="evenodd" d="M33.1427 2.85449H10.9252V5.43199H3.2002V17.522C3.2002 22.1945 8.4152 26.0395 13.5327 26.4395C15.2127 28.2395 18.1677 29.547 20.7977 30.1045V33.2645C18.2827 34.037 13.7902 35.852 13.5327 37.8295H30.7927C30.5327 35.852 25.5827 34.0345 23.0627 33.2645V30.1045C25.7027 29.547 28.7902 28.2395 30.4727 26.4395C35.5877 26.0395 40.5727 22.1945 40.5727 17.522V5.43199H33.1427V2.85449ZM5.5727 7.72199H10.7452V18.137C10.7452 20.192 11.2752 22.147 12.2077 23.907C8.3377 22.6745 5.5727 19.4995 5.5727 15.7845V7.72199ZM25.8327 20.4245L21.9727 18.297L18.1077 20.4245L18.8452 15.9245L15.7202 12.7395L20.0377 12.082L21.9727 7.99199L23.9027 12.082L28.2202 12.7395L25.0952 15.9245L25.8327 20.4245ZM31.5702 24.2395C32.5077 22.3995 33.0452 20.3645 33.0452 18.212V7.78949H38.2302V15.7545C38.2302 19.637 35.4527 22.952 31.5702 24.2395Z" fill="url(#paint0_angular)"/>
<defs>
<radialGradient id="paint0_angular" cx="0" cy="0" r="1" gradientUnits="userSpaceOnUse" gradientTransform="translate(21.8864 20.342) rotate(90) scale(17.4875 18.6863)">
<stop stop-color="#5AC000"/>
<stop offset="1" stop-color="#88FC22"/>
</radialGradient>
</defs>
</svg>
