<svg width="38" height="36" viewBox="0 0 38 36" fill="none" xmlns="http://www.w3.org/2000/svg">
<path fill-rule="evenodd" clip-rule="evenodd" d="M30.5426 0.854492H8.3251V3.43199H0.600098V15.522C0.600098 20.1945 5.8151 24.0395 10.9326 24.4395C12.6126 26.2395 15.5676 27.547 18.1976 28.1045V31.2645C15.6826 32.037 11.1901 33.852 10.9326 35.8295H28.1926C27.9326 33.852 22.9826 32.0345 20.4626 31.2645V28.1045C23.1026 27.547 26.1901 26.2395 27.8726 24.4395C32.9876 24.0395 37.9726 20.1945 37.9726 15.522V3.43199H30.5426V0.854492ZM2.9726 5.72199H8.1451V16.137C8.1451 18.192 8.6751 20.147 9.6076 21.907C5.7376 20.6745 2.9726 17.4995 2.9726 13.7845V5.72199ZM23.2326 18.4245L19.3726 16.297L15.5076 18.4245L16.2451 13.9245L13.1201 10.7395L17.4376 10.082L19.3726 5.99199L21.3026 10.082L25.6201 10.7395L22.4951 13.9245L23.2326 18.4245ZM28.9701 22.2395C29.9076 20.3995 30.4451 18.3645 30.4451 16.212V5.78949H35.6301V13.7545C35.6301 17.637 32.8526 20.952 28.9701 22.2395Z" fill="url(#paint0_angular)"/>
<defs>
<radialGradient id="paint0_angular" cx="0" cy="0" r="1" gradientUnits="userSpaceOnUse" gradientTransform="translate(19.2864 18.342) rotate(90) scale(17.4875 18.6863)">
<stop stop-color="#1658A4"/>
<stop offset="1" stop-color="#6BB0FF"/>
</radialGradient>
</defs>
</svg>
