<svg width="66" height="66" viewBox="0 0 66 66" fill="none" xmlns="http://www.w3.org/2000/svg">
<path d="M0 4.41797C0 2.20883 1.79086 0.417969 4 0.417969H65.3556V65.778H0V4.41797Z" fill="#5AC000"/>
<g clip-path="url(#clip0)">
<path d="M32.909 18.582C24.636 18.582 17.9082 25.3117 17.9082 33.582C17.9082 41.8523 24.636 48.582 32.909 48.582C41.1789 48.582 47.9082 41.8523 47.9082 33.582C47.9082 25.3117 41.1789 18.582 32.909 18.582ZM45.7021 33.582C45.7021 36.5086 44.7084 39.207 43.0522 41.3633C42.5835 40.9977 42.0851 40.0086 42.5538 38.9836C43.0272 37.9523 43.1506 35.5648 43.0413 34.6352C42.9382 33.707 42.4554 31.4711 41.1445 31.4492C39.8352 31.4305 38.9368 30.9977 38.1587 29.4445C36.5447 26.2133 41.1882 25.593 39.5743 23.8055C39.1227 23.3023 36.7885 25.8711 36.4463 22.4477C36.4244 22.2023 36.6572 21.8352 36.9713 21.4539C42.0398 23.157 45.7021 27.9492 45.7021 33.582ZM31.1513 20.9148C30.845 21.5117 30.0373 21.7539 29.5467 22.2023C28.478 23.1695 28.0186 23.0352 27.4436 23.9633C26.864 24.8914 24.9953 26.2273 24.9953 26.8992C24.9953 27.5711 25.939 28.3617 26.4109 28.2086C26.8827 28.0523 28.128 28.0617 28.8592 28.318C29.592 28.5773 34.9745 28.8367 33.259 33.3867C32.7152 34.8336 30.3326 34.5898 29.6982 36.9852C29.6029 37.3367 29.2732 38.8383 29.2529 39.3289C29.2139 40.0883 29.7904 42.9508 29.0576 42.9508C28.3217 42.9508 26.3421 40.3898 26.3421 39.9258C26.3421 39.4617 25.8297 37.8352 25.8297 36.4414C25.8297 35.0492 23.4579 35.0711 23.4579 33.2195C23.4579 31.5508 24.7438 30.7195 24.4547 29.918C24.1719 29.1211 21.9127 29.0945 20.9705 28.9961C21.7943 26.8646 23.1723 24.9917 24.9621 23.571C26.7519 22.1503 28.8885 21.2334 31.1513 20.9148ZM28.8842 45.7227C29.6529 45.3164 29.731 44.7914 30.4279 44.7648C31.2247 44.7289 31.8731 44.4539 32.7715 44.2555C33.5683 44.082 34.9948 43.2727 36.2494 43.1695C37.3088 43.0836 39.3977 43.2242 39.9602 44.2461C38.3473 45.3172 36.5117 46.0068 34.5926 46.2627C32.6735 46.5185 30.7213 46.3338 28.8842 45.7227Z" fill="white"/>
</g>
<defs>
<clipPath id="clip0">
<rect width="30" height="30" fill="white" transform="translate(18 18.6455)"/>
</clipPath>
</defs>
</svg>
