<svg width="66" height="66" viewBox="0 0 66 66" fill="none" xmlns="http://www.w3.org/2000/svg">
<path d="M0 4.41797C0 2.20883 1.79086 0.417969 4 0.417969H65.3556V65.778H0V4.41797Z" fill="#29A7DC"/>
<g clip-path="url(#clip0)">
<path d="M21.6875 31.7275H17.9375V28.7275H21.6875V31.7275ZM21.6875 36.2275H17.9375V39.2275H21.6875V36.2275ZM24.1875 22.9075L21.5375 19.7275L19.7625 21.8425L22.425 25.0375L24.1875 22.9075ZM30.4375 22.7275V18.2275H27.9375V22.7275H30.4375ZM47.9375 28.7275H44.1875V31.7275H47.9375V28.7275ZM37.9375 22.7275V18.2275H35.4375V22.7275H37.9375ZM43.45 25.0375L46.1125 21.8575L44.3375 19.7275L41.6875 22.9075L43.45 25.0375ZM47.9375 36.2275H44.1875V39.2275H47.9375V36.2275ZM41.6875 28.7275V39.2275C41.6875 40.8775 40.5625 42.2275 39.1875 42.2275H36.6875V45.2275H29.1875V42.2275H26.6875C25.3125 42.2275 24.1875 40.8775 24.1875 39.2275V28.7275C24.1875 27.0775 25.3125 25.7275 26.6875 25.7275H39.1875C40.5625 25.7275 41.6875 27.0775 41.6875 28.7275ZM39.1875 28.7275H26.6875V39.2275H39.1875V28.7275ZM41.6875 45.0475L44.3375 48.2275L46.1125 46.1125L43.45 42.9325L41.6875 45.0475ZM22.425 42.9175L19.775 46.1125L21.5375 48.2275L24.1875 45.0475L22.425 42.9175Z" fill="white"/>
</g>
<defs>
<clipPath id="clip0">
<path d="M18 18.6455H48V44.6455C48 46.8546 46.2091 48.6455 44 48.6455H18V18.6455Z" fill="white"/>
</clipPath>
</defs>
</svg>
