<svg width="66" height="66" viewBox="0 0 66 66" fill="none" xmlns="http://www.w3.org/2000/svg">
<path d="M0 4.41797C0 2.20883 1.79086 0.417969 4 0.417969H65.3556V65.778H0V4.41797Z" fill="#FFB547"/>
<g clip-path="url(#clip0)">
<path d="M47.703 46.9479L46.3274 48.3528C46.1322 48.5284 45.8981 48.6162 45.6249 48.6162C45.3518 48.6162 45.1176 48.5284 44.9225 48.3528L40.503 43.904C39.3322 44.5675 38.0835 44.8992 36.7566 44.8992C34.6883 44.8992 32.9225 44.1675 31.4591 42.704C29.9956 41.2406 29.2639 39.4748 29.2639 37.4065C29.2639 35.3382 29.9956 33.5723 31.4591 32.1089C32.9225 30.6455 34.6883 29.9138 36.7566 29.9138C38.8249 29.9138 40.5908 30.6455 42.0542 32.1089C43.5176 33.5723 44.2493 35.3382 44.2493 37.4065C44.2493 38.7333 43.9176 39.9723 43.2542 41.1236L47.703 45.5723C47.8981 45.7675 47.9957 45.9967 47.9957 46.2601C47.9957 46.5236 47.8981 46.7528 47.703 46.9479ZM36.7713 31.787C35.22 31.787 33.8932 32.3333 32.7908 33.426C31.6883 34.5187 31.1371 35.8406 31.1371 37.3918C31.1371 38.9431 31.6883 40.2699 32.7908 41.3723C33.8932 42.4748 35.22 43.026 36.7713 43.026C38.3225 43.026 39.6444 42.4748 40.7371 41.3723C41.8298 40.2699 42.3761 38.9431 42.3761 37.3918C42.3761 35.8406 41.8298 34.5187 40.7371 33.426C39.6444 32.3333 38.3225 31.787 36.7713 31.787ZM38.6298 28.2162V28.0406C38.6298 27.5138 38.8152 27.0699 39.1859 26.7089C39.5566 26.3479 39.9957 26.1675 40.503 26.1675H44.2493C44.7761 26.1675 45.2249 26.3479 45.5957 26.7089C45.9664 27.0699 46.1518 27.5138 46.1518 28.0406V37.4065H46.1225C46.1225 35.1626 45.4152 33.1772 44.0005 31.4504C42.5859 29.7236 40.7957 28.6455 38.6298 28.2162ZM29.2639 31.787V24.2943C29.2639 23.7675 29.4493 23.3236 29.82 22.9626C30.1908 22.6016 30.6298 22.4211 31.1371 22.4211H34.8835C35.4103 22.4211 35.8542 22.6016 36.2152 22.9626C36.5761 23.3236 36.7566 23.7675 36.7566 24.2943V28.0406C35.2542 28.0406 33.8493 28.3772 32.542 29.0504C31.2347 29.7236 30.142 30.6358 29.2639 31.787ZM29.2639 42.9967C30.142 44.1675 31.2347 45.0894 32.542 45.7626C33.8493 46.4358 35.2542 46.7723 36.7566 46.7723H38.6298C38.6298 47.2797 38.4493 47.7187 38.0883 48.0894C37.7274 48.4601 37.2835 48.6455 36.7566 48.6455H19.8981C19.3908 48.6455 18.9517 48.4601 18.581 48.0894C18.2103 47.7187 18.0249 47.2748 18.0249 46.7577C18.0249 46.2406 18.2054 45.8016 18.5664 45.4406C18.9273 45.0797 19.3712 44.8992 19.8981 44.8992V20.5187C19.8981 20.0114 20.0834 19.5723 20.4542 19.2016C20.8249 18.8309 21.2639 18.6455 21.7712 18.6455H25.5176C26.0444 18.6455 26.4883 18.8309 26.8493 19.2016C27.2103 19.5723 27.3908 20.0114 27.3908 20.5187V44.8992H29.2639V42.9967Z" fill="white"/>
</g>
<defs>
<clipPath id="clip0">
<rect width="30" height="30" fill="white" transform="translate(18 18.6455)"/>
</clipPath>
</defs>
</svg>
