<svg width="66" height="66" viewBox="0 0 66 66" fill="none" xmlns="http://www.w3.org/2000/svg">
<path d="M0 4.41797C0 2.20883 1.79086 0.417969 4 0.417969H65.3556V65.778H0V4.41797Z" fill="#525C69"/>
<g clip-path="url(#clip0)">
<path d="M32.6494 18.2275C34.6385 18.2275 36.5462 19.0177 37.9527 20.4242C39.3592 21.8308 40.1494 23.7384 40.1494 25.7275C40.1494 27.7167 39.3592 29.6243 37.9527 31.0308C36.5462 32.4374 34.6385 33.2275 32.6494 33.2275C30.6603 33.2275 28.7526 32.4374 27.3461 31.0308C25.9396 29.6243 25.1494 27.7167 25.1494 25.7275C25.1494 23.7384 25.9396 21.8308 27.3461 20.4242C28.7526 19.0177 30.6603 18.2275 32.6494 18.2275ZM32.6494 36.9775C40.9369 36.9775 47.6494 40.3338 47.6494 44.4775V48.2275H17.6494V44.4775C17.6494 40.3338 24.3619 36.9775 32.6494 36.9775Z" fill="white"/>
</g>
<defs>
<clipPath id="clip0">
<path d="M18 18.291H48V44.291C48 46.5002 46.2091 48.291 44 48.291H18V18.291Z" fill="white"/>
</clipPath>
</defs>
</svg>
