<svg width="66" height="66" viewBox="0 0 66 66" fill="none" xmlns="http://www.w3.org/2000/svg">
<path d="M0 4.41797C0 2.20883 1.79086 0.417969 4 0.417969H65.3556V65.778H0V4.41797Z" fill="#3F51B5"/>
<g clip-path="url(#clip0)">
<path d="M48.3164 31.7335H45.3284V21.2156H34.8254V18.2275H31.8224V21.2156H21.3045V31.7335H18.3164V34.7365H21.3045V45.2395H31.8224V48.2275H34.8254V45.2395H45.3284V34.7365H48.3164V31.7335ZM42.3254 42.2365H34.8254V39.2335H31.8224V42.2365H24.2925V34.7365H27.3254V31.7335H24.2925V24.2036H31.8224V27.2365H34.8254V24.2036H42.3254V31.7335H39.3224V34.7365H42.3254V42.2365ZM34.8254 33.2425C34.8254 33.6387 34.668 34.0187 34.3878 34.2989C34.1076 34.5791 33.7276 34.7365 33.3313 34.7365C32.5096 34.7365 31.8224 34.0642 31.8224 33.2425C31.8224 32.4208 32.5096 31.7335 33.3313 31.7335C34.1531 31.7335 34.8254 32.4208 34.8254 33.2425Z" fill="white"/>
</g>
<defs>
<clipPath id="clip0">
<path d="M18 18.291H48V44.291C48 46.5002 46.2091 48.291 44 48.291H18V18.291Z" fill="white"/>
</clipPath>
</defs>
</svg>
