<svg width="66" height="66" viewBox="0 0 66 66" fill="none" xmlns="http://www.w3.org/2000/svg">
<path d="M0 4.41797C0 2.20883 1.79086 0.417969 4 0.417969H65.3556V65.778H0V4.41797Z" fill="#B71C1C"/>
<g clip-path="url(#clip0)">
<path d="M23.25 26.0947C22.6533 26.0947 22.081 25.8577 21.659 25.4357C21.2371 25.0138 21 24.4415 21 23.8447C21 23.248 21.2371 22.6757 21.659 22.2537C22.081 21.8318 22.6533 21.5947 23.25 21.5947C23.8467 21.5947 24.419 21.8318 24.841 22.2537C25.2629 22.6757 25.5 23.248 25.5 23.8447C25.5 24.4415 25.2629 25.0138 24.841 25.4357C24.419 25.8577 23.8467 26.0947 23.25 26.0947ZM47.115 32.9647L33.615 19.4647C33.075 18.9247 32.325 18.5947 31.5 18.5947H21C19.335 18.5947 18 19.9297 18 21.5947V32.0947C18 32.9197 18.33 33.6697 18.885 34.2097L32.37 47.7097C32.925 48.2497 33.675 48.5947 34.5 48.5947C35.325 48.5947 36.075 48.2497 36.615 47.7097L47.115 37.2097C47.67 36.6697 48 35.9197 48 35.0947C48 34.2547 47.655 33.5047 47.115 32.9647Z" fill="white"/>
</g>
<defs>
<clipPath id="clip0">
<path d="M18 18.3545H48V44.3545C48 46.5636 46.2091 48.3545 44 48.3545H18V18.3545Z" fill="white"/>
</clipPath>
</defs>
</svg>
