<svg width="50" height="51" viewBox="0 0 50 51" fill="none" xmlns="http://www.w3.org/2000/svg">
<g clip-path="url(#clip0)">
<path d="M25 50.3545C38.8071 50.3545 50 39.1616 50 25.3545C50 11.5474 38.8071 0.354492 25 0.354492C11.1929 0.354492 0 11.5474 0 25.3545C0 39.1616 11.1929 50.3545 25 50.3545Z" fill="#6BC9F2"/>
<path fill-rule="evenodd" clip-rule="evenodd" d="M14.5 49.8545C14.5 50.186 14.3683 50.504 14.1339 50.7384C13.8995 50.9728 13.5815 51.1045 13.25 51.1045C12.9185 51.1045 12.6005 50.9728 12.3661 50.7384C12.1317 50.504 12 50.186 12 49.8545V9.10449C12 8.77297 12.1317 8.45503 12.3661 8.22061C12.6005 7.98619 12.9185 7.85449 13.25 7.85449C13.5815 7.85449 13.8995 7.98619 14.1339 8.22061C14.3683 8.45503 14.5 8.77297 14.5 9.10449V49.8545Z" fill="white"/>
<path d="M50 36.8545H30V12.8545H50L46.5 24.8545L50 36.8545Z" fill="#F29C1F"/>
<path fill-rule="evenodd" clip-rule="evenodd" d="M30 36.8545V13.8545L34.5 9.85449V32.8545L30 36.8545Z" fill="#E57E25"/>
<path opacity="0.6" d="M38.5085 22.105L33.113 23.9175L32.9665 29.3545L29.4855 25.038L24 26.586L27.244 22.105L24 17.624L29.486 19.172L32.9665 14.8545L33.113 20.292L38.5085 22.105Z" fill="white"/>
<path d="M14.5 8.85449H34.5V32.8545H14.5V8.85449Z" fill="#F0C419"/>
<path d="M34.5 15.4326L31.486 19.1716L26 17.6236L29.244 22.1046L26 26.5856L31.486 25.0371L34.5 28.7756V15.4326Z" fill="white"/>
</g>
<defs>
<clipPath id="clip0">
<rect width="50" height="50" fill="white" transform="translate(0 0.354492)"/>
</clipPath>
</defs>
</svg>
