<svg width="57" height="51" viewBox="0 0 57 51" fill="none" xmlns="http://www.w3.org/2000/svg">
<g clip-path="url(#clip0)">
<path d="M24.0385 2.27734C37.3144 2.27734 48.0769 13.0398 48.0769 26.3158C48.0769 39.5913 37.3144 50.3543 24.0385 50.3543C10.7625 50.3543 0 39.5913 0 26.3158C0 13.0398 10.7625 2.27734 24.0385 2.27734Z" fill="#26B99A"/>
<path d="M39.0907 21.1905L21.8465 38.4352C21.6774 38.604 21.4482 38.6988 21.2092 38.6988C20.9702 38.6988 20.7411 38.604 20.5719 38.4352L10.8191 28.5804C10.645 28.4044 10.5518 27.9198 10.5518 27.6866C10.5518 27.4539 10.645 27.2313 10.8191 27.0544L13.4171 24.7126C13.5009 24.6272 13.601 24.5598 13.7116 24.5143C13.8222 24.4688 13.9409 24.4463 14.0604 24.4481C14.1779 24.4484 14.2941 24.4718 14.4025 24.5172C14.5108 24.5626 14.6091 24.629 14.6917 24.7126L20.5719 30.7116C20.9219 31.0688 21.495 31.0688 21.8465 30.7116L35.2686 17.3294C35.3518 17.2452 35.4508 17.1783 35.5601 17.1326C35.6693 17.087 35.7865 17.0635 35.9049 17.0635C36.0233 17.0635 36.1405 17.087 36.2497 17.1326C36.3589 17.1783 36.458 17.2452 36.5412 17.3294L39.0902 19.9034C39.4421 20.2563 39.4421 20.8371 39.0907 21.1905Z" fill="white"/>
<path opacity="0.15" d="M40.6851 28.7197C47.5886 28.7197 53.1851 23.1233 53.1851 16.2197C53.1851 9.31617 47.5886 3.71973 40.6851 3.71973C33.7815 3.71973 28.1851 9.31617 28.1851 16.2197C28.1851 23.1233 33.7815 28.7197 40.6851 28.7197Z" fill="black"/>
<path d="M42.3071 27.5175C35.0172 27.5175 29.0864 21.5863 29.0864 14.2963C29.0864 7.00645 35.0172 1.0752 42.3071 1.0752C49.5975 1.0752 55.5287 7.00596 55.5287 14.2963C55.5287 21.5863 49.5975 27.5175 42.3071 27.5175Z" fill="#26B99A"/>
<path d="M42.3071 1.7968C49.1999 1.7968 54.8075 7.40401 54.8075 14.2968C54.8075 21.1896 49.1999 26.7968 42.3071 26.7968C35.4148 26.7968 29.8075 21.1891 29.8075 14.2968C29.8075 7.40449 35.4148 1.7968 42.3071 1.7968ZM42.3071 0.354492C34.6075 0.354492 28.3652 6.5968 28.3652 14.2968C28.3652 21.9973 34.6075 28.2391 42.3071 28.2391C50.0075 28.2391 56.2499 21.9968 56.2499 14.2968C56.2499 6.5968 50.0075 0.354492 42.3071 0.354492Z" fill="#ECF0F1"/>
<path d="M51.5934 15.063L12.6073 54.0495C11.8126 54.8447 10.5165 54.8447 9.72561 54.0495L3.96263 48.2336C3.17224 47.4288 1.87224 46.1226 1.08138 45.3187L-12.3249 31.2308C-12.7102 30.8335 -12.9268 30.3025 -12.9292 29.749C-12.9292 29.2231 -12.7181 28.7197 -12.3249 28.3192L-6.45083 23.0259C-6.26164 22.8328 -6.03517 22.6801 -5.78517 22.5771C-5.53517 22.4741 -5.26686 22.423 -4.99651 22.4269C-4.73079 22.4274 -4.46782 22.4806 -4.22281 22.5835C-3.9778 22.6863 -3.75561 22.8367 -3.5691 23.0259L9.72561 36.5899C9.91323 36.7819 10.1373 36.9345 10.3848 37.0387C10.6322 37.1429 10.898 37.1965 11.1665 37.1965C11.4349 37.1965 11.7007 37.1429 11.9482 37.0387C12.1956 36.9345 12.4197 36.7819 12.6073 36.5899L42.954 6.33412C43.1421 6.14382 43.3661 5.99273 43.613 5.88961C43.8599 5.78649 44.1248 5.7334 44.3924 5.7334C44.66 5.7334 44.9249 5.78649 45.1719 5.88961C45.4188 5.99273 45.6428 6.14382 45.8309 6.33412L51.5934 12.1524C52.3891 12.9509 52.3891 14.2644 51.5934 15.063Z" fill="white"/>
</g>
<defs>
<clipPath id="clip0">
<rect width="56.25" height="50" fill="white" transform="translate(0 0.354492)"/>
</clipPath>
</defs>
</svg>
