<svg width="50" height="51" viewBox="0 0 50 51" fill="none" xmlns="http://www.w3.org/2000/svg">
<g clip-path="url(#clip0)">
<path d="M25 50.3545C38.8071 50.3545 50 39.1616 50 25.3545C50 11.5474 38.8071 0.354492 25 0.354492C11.1929 0.354492 0 11.5474 0 25.3545C0 39.1616 11.1929 50.3545 25 50.3545Z" fill="#24AE5F"/>
<path fill-rule="evenodd" clip-rule="evenodd" d="M17 25.6045C17 25.936 17.1317 26.254 17.3661 26.4884C17.6005 26.7228 17.9185 26.8545 18.25 26.8545H51.25C51.5815 26.8545 51.8995 26.7228 52.1339 26.4884C52.3683 26.254 52.5 25.936 52.5 25.6045C52.5 25.273 52.3683 24.955 52.1339 24.7206C51.8995 24.4862 51.5815 24.3545 51.25 24.3545H18.25C17.9185 24.3545 17.6005 24.4862 17.3661 24.7206C17.1317 24.955 17 25.273 17 25.6045Z" fill="#E57D25"/>
<path fill-rule="evenodd" clip-rule="evenodd" d="M11.5 15.8545L19.5 24.3545H41.5L33.5 15.8545H11.5Z" fill="#FBF063"/>
<path fill-rule="evenodd" clip-rule="evenodd" d="M33.5 35.3545L41.5 26.8545H19.5L11.5 35.3545H33.5Z" fill="#F0C419"/>
</g>
<defs>
<clipPath id="clip0">
<rect width="50" height="50" fill="white" transform="translate(0 0.354492)"/>
</clipPath>
</defs>
</svg>
