<svg width="50" height="51" viewBox="0 0 50 51" fill="none" xmlns="http://www.w3.org/2000/svg">
<path d="M-7.5 8.85449H59V52.3545H-7.5V8.85449Z" fill="#2D3E50"/>
<path d="M25.5 8.85449V56.3545H41.5V8.85449H25.5ZM8.5 56.3545H24.5V8.85449H8.5V56.3545Z" fill="#EDF0F1"/>
<path d="M36.5 13.3545H13.5L22.5475 24.307L19 27.8545V51.8545H31V27.8545L27.451 24.3055L36.5 13.3545Z" fill="#E64B3C"/>
<path d="M13 8.85449L13.0245 26.8545L25 14.8545L25.041 8.85449H13Z" fill="#D5D9D8"/>
<path d="M36.9999 8.85449L36.9754 26.8545L25.0464 14.8545L25.0059 8.85449H36.9999Z" fill="#D5D9D8"/>
<path d="M36.5 13.3545H13.5L19.3855 20.48L25.0225 14.8325L30.624 20.4655L36.5 13.3545Z" fill="#C03A2B"/>
<path d="M34.5 6.35449V8.85449H15.5V6.35449L13 8.85449V25.3545L25 13.3545L37 25.3545V8.85449L34.5 6.35449Z" fill="white"/>
<path d="M28 24.8545L27.451 24.3055L27.823 23.8545H22.1735L22.5475 24.307L22 24.8545H28Z" fill="#C03A2B"/>
<path d="M15.5 -0.145508V9.69149H15.5225C15.643 10.485 16.555 11.2665 18.281 11.8725C21.991 13.1755 28.007 13.1755 31.717 11.8725C33.442 11.2665 34.354 10.485 34.476 9.69149H34.5V-0.145508H15.5Z" fill="#DE9273"/>
<path d="M34.5003 -0.145508C34.5003 -0.145508 34.5073 2.07199 34.4913 2.08799C33.6525 2.96391 32.6448 3.66066 31.5292 4.13616C30.4135 4.61166 29.213 4.85603 28.0003 4.85449H22.0003C20.7827 4.85601 19.5776 4.60975 18.4582 4.13071C17.3389 3.65166 16.3287 2.94985 15.4893 2.06799C15.5013 2.08049 15.5003 -0.145508 15.5003 -0.145508H34.5003Z" fill="#BE7C63"/>
<path d="M25 -0.145508V12.85C27.4305 12.85 29.8625 12.524 31.717 11.8725C33.442 11.2665 34.354 10.485 34.476 9.69149H34.5V-0.145508H25Z" fill="#E39D82"/>
<path d="M28 4.85449C30.551 4.85449 32.854 3.79299 34.491 2.08799C34.496 2.08349 34.4985 1.89049 34.5 1.62299V-0.145508H25V4.85449H28Z" fill="#C0866E"/>
</svg>
