<svg width="50" height="51" viewBox="0 0 50 51" fill="none" xmlns="http://www.w3.org/2000/svg">
<g clip-path="url(#clip0)">
<path d="M25 50.3545C38.8071 50.3545 50 39.1616 50 25.3545C50 11.5474 38.8071 0.354492 25 0.354492C11.1929 0.354492 0 11.5474 0 25.3545C0 39.1616 11.1929 50.3545 25 50.3545Z" fill="#33495F"/>
<path opacity="0.2" d="M15.5 10.1045C16.775 9.87949 17.5255 9.12949 17.75 7.85449C17.975 9.12949 18.7255 9.87949 20 10.1045C18.7255 10.33 17.975 11.0795 17.75 12.3545C17.5255 11.0795 16.775 10.33 15.5 10.1045Z" fill="white"/>
<path opacity="0.1" d="M35.5 37.6045C36.775 37.3795 37.5255 36.6295 37.75 35.3545C37.975 36.6295 38.7255 37.3795 40 37.6045C38.7255 37.83 37.975 38.5795 37.75 39.8545C37.5255 38.5795 36.775 37.83 35.5 37.6045ZM5.5 32.6045C6.775 32.3795 7.5255 31.6295 7.75 30.3545C7.975 31.6295 8.7255 32.3795 10 32.6045C8.7255 32.83 7.975 33.5795 7.75 34.8545C7.5255 33.5795 6.775 32.83 5.5 32.6045Z" fill="white"/>
<path d="M50 0.404492C49.922 0.413492 49.9415 0.433492 49.95 0.354492C38.292 1.84399 31.6805 6.49499 27.9325 11.372C27.7999 11.5448 27.6696 11.7193 27.5415 11.8955L27.5375 11.9005C23.5075 17.4525 23.0435 23.2605 23 24.8545H22.5L22 26.3545L24 28.3545L25.5 27.8545V27.3545C26.6868 27.3314 27.8692 27.202 29.033 26.968L29.034 26.969C29.3985 26.878 29.5 27.007 29.5 28.8545V33.3545C29.5 34.259 29.9715 34.603 30.4725 34.1015C31.684 32.8875 31.974 32.59 34.7225 29.8375C36.8025 27.754 37.0605 26.54 36.201 24.308C41.9765 21.039 48.216 14.2985 50 0.404492Z" fill="#E94B35"/>
<path d="M24 28.3545L22 26.3545L22.5 24.8545H23.5L25.5 26.8545V27.8545L24 28.3545ZM26 14.3545C25.141 14.0095 25 13.8545 24 13.8545C23 13.8545 21.9085 14.5445 20.5695 15.886C18.4425 18.0155 18.1445 18.3055 16.3115 20.14C15.7125 20.74 16.6315 20.8545 18 20.8545C20.6165 20.8545 22.6485 20.792 23.3955 21.5645C24.382 22.5845 26 14.3545 26 14.3545ZM50 0.354492C49.6805 2.84099 49.217 5.14399 48.6395 7.19349C48.115 6.20849 47.3585 5.01149 46.3895 4.05749C45.314 2.99749 43.9835 2.24149 42.9765 1.76499C45.9895 0.899992 48.3915 0.560492 50 0.354492Z" fill="#C23824"/>
<path opacity="0.3" d="M36.201 24.308C37.0605 26.5395 36.857 27.702 34.774 29.785C34.352 30.207 30.86 33.7145 30.472 34.1015C29.9705 34.6025 29.5165 34.259 29.5 33.3545V33.0285C31 31.5285 34.3445 28.5595 35 27.3545C35.384 26.649 35.176 25.5275 35 24.8545C33.344 25.7345 29.242 26.9015 29.034 26.969C27.453 27.292 26.2335 27.326 25.5 27.3545V27.0265C25.5 27.0265 40.4875 22.195 50 0.354492C48.203 14.378 41.9765 21.039 36.201 24.308Z" fill="white"/>
<path d="M38.75 14.3545C36.958 14.3545 35.5 12.8965 35.5 11.1045C35.5 9.31249 36.958 7.85449 38.75 7.85449C40.542 7.85449 42 9.31249 42 11.1045C42 12.8965 40.542 14.3545 38.75 14.3545Z" fill="white"/>
<path d="M38.75 8.35449C39.4793 8.35449 40.1788 8.64422 40.6945 9.15995C41.2103 9.67567 41.5 10.3751 41.5 11.1045C41.5 11.8338 41.2103 12.5333 40.6945 13.049C40.1788 13.5648 39.4793 13.8545 38.75 13.8545C38.0207 13.8545 37.3212 13.5648 36.8055 13.049C36.2897 12.5333 36 11.8338 36 11.1045C36 10.3751 36.2897 9.67567 36.8055 9.15995C37.3212 8.64422 38.0207 8.35449 38.75 8.35449ZM38.75 7.35449C36.6815 7.35449 35 9.03649 35 11.1045C35 13.1725 36.6815 14.8545 38.75 14.8545C40.8185 14.8545 42.5 13.1725 42.5 11.1045C42.5 9.03649 40.8185 7.35449 38.75 7.35449Z" fill="#C23824"/>
<path d="M22 26.3545L24 28.3545L6.5 46.3545L3.5 43.3545L22 26.3545Z" fill="#D7DCDE"/>
<path d="M21.9375 26.3545L22.9375 27.3545L3.75 46.1045L2.25 44.6045L21.9375 26.3545Z" fill="#F7F7F7"/>
</g>
<defs>
<clipPath id="clip0">
<rect width="50" height="50" fill="white" transform="translate(0 0.354492)"/>
</clipPath>
</defs>
</svg>
