<svg width="50" height="51" viewBox="0 0 50 51" fill="none" xmlns="http://www.w3.org/2000/svg">
<g clip-path="url(#clip0)">
<path fill-rule="evenodd" clip-rule="evenodd" d="M49.5693 21.6272L38.5023 27.2677V29.8562C38.5023 33.7212 32.4597 36.8547 25.0052 36.8547C17.5512 36.8547 11.5083 33.7212 11.5083 29.8562V27.2727L0.43125 21.6272C-0.14375 21.3342 -0.14375 20.8587 0.43125 20.5657L23.9587 8.57424C24.5338 8.28124 25.4657 8.28124 26.0408 8.57424L49.5688 20.5657C50.1438 20.8587 50.1438 21.3342 49.5693 21.6272Z" fill="#2C3E50"/>
<path fill-rule="evenodd" clip-rule="evenodd" d="M25 21.8545C31.076 21.8515 36.0025 24.088 36.0035 26.8495C36.0045 29.611 31.0795 31.852 25.0035 31.8545C18.9275 31.8575 14.001 29.621 14 26.8595C13.999 24.098 18.924 21.8575 25 21.8545Z" fill="#C03A2B"/>
<path fill-rule="evenodd" clip-rule="evenodd" d="M37.4976 29.8615C37.5006 28.3235 36.2806 26.7855 33.8371 25.612C28.9551 23.268 21.0406 23.268 16.1586 25.612C13.7326 26.7765 12.5151 28.301 12.5001 29.828V22.885C12.4851 21.3395 13.7026 19.7915 16.1586 18.6125C21.0401 16.2685 28.9551 16.2685 33.8371 18.6125C36.2806 19.786 37.5006 21.324 37.4976 22.862H37.5001V29.862H37.4976V29.8615Z" fill="#35495E"/>
<path fill-rule="evenodd" clip-rule="evenodd" d="M37.511 23.242V29.465C37.321 28.0615 36.122 26.684 33.8885 25.6115C31.4355 24.4335 28.2155 23.8485 25 23.8545V16.8545C28.2155 16.8485 31.4355 17.433 33.889 18.61C36.537 19.8805 37.7365 21.5795 37.511 23.242Z" fill="#3B536B"/>
<path fill-rule="evenodd" clip-rule="evenodd" d="M14.8612 26.3545C15.2763 26.633 15.7105 26.8818 16.1607 27.099C21.0422 29.443 28.9572 29.443 33.8387 27.099C34.3252 26.8655 34.7492 26.614 35.1387 26.3545C38.6582 28.7005 38.2342 31.9885 33.8387 34.099C28.9572 36.443 21.0422 36.443 16.1607 34.099C11.7657 31.9885 11.3417 28.7005 14.8612 26.3545Z" fill="#E64C3C"/>
<path opacity="0.5" fill-rule="evenodd" clip-rule="evenodd" d="M24.9997 28.857C21.8007 28.857 18.6012 28.271 16.1607 27.099C15.7104 26.882 15.2761 26.6332 14.8612 26.3545C11.3417 28.7 11.7657 31.9885 16.1607 34.0985C18.6017 35.2705 21.8007 35.8565 24.9997 35.8565V28.857Z" fill="#C03A2B"/>
<path d="M47.4972 20.3545C47.4972 20.3545 47.8482 32.8445 39.9277 40.789" stroke="#35495E" stroke-width="0.75" stroke-miterlimit="10"/>
<path fill-rule="evenodd" clip-rule="evenodd" d="M45.5004 37.4244C45.5004 36.0429 44.3839 34.9229 43.0064 34.9229C41.6289 34.9229 40.5124 36.0429 40.5124 37.4244C40.5124 37.5674 40.5314 37.7054 40.5544 37.8419C39.6374 38.6499 37.4294 40.3493 35.0059 40.4203C35.0639 44.2353 39.2134 45.3549 39.2134 45.3549C39.2134 45.3549 42.1849 42.7703 43.2024 39.9063C44.4869 39.8038 45.5004 38.7384 45.5004 37.4244Z" fill="#2C3E50"/>
</g>
<defs>
<clipPath id="clip0">
<rect width="50" height="50" fill="white" transform="translate(0 0.354492)"/>
</clipPath>
</defs>
</svg>
