<svg width="50" height="51" viewBox="0 0 50 51" fill="none" xmlns="http://www.w3.org/2000/svg">
<g clip-path="url(#clip0)">
<path opacity="0.15" d="M24.5098 50.3546C38.0462 50.3546 49.0196 39.3812 49.0196 25.8448C49.0196 12.3084 38.0462 1.33496 24.5098 1.33496C10.9734 1.33496 0 12.3084 0 25.8448C0 39.3812 10.9734 50.3546 24.5098 50.3546Z" fill="black"/>
<path d="M25.4903 49.3741C39.0267 49.3741 50.0001 38.4007 50.0001 24.8643C50.0001 11.3279 39.0267 0.354492 25.4903 0.354492C11.9539 0.354492 0.980469 11.3279 0.980469 24.8643C0.980469 38.4007 11.9539 49.3741 25.4903 49.3741Z" fill="#3B97D3"/>
<path d="M25.4902 5.25684C36.3191 5.25684 45.098 14.0358 45.098 24.8647C45.098 35.6936 36.3191 44.4725 25.4902 44.4725C14.6612 44.4725 5.88232 35.6936 5.88232 24.8647C5.88232 14.0358 14.6612 5.25684 25.4902 5.25684Z" fill="white"/>
<path fill-rule="evenodd" clip-rule="evenodd" d="M25.4901 10.1582C33.6121 10.1582 40.1959 16.742 40.1959 24.8641C40.1959 32.9857 33.6121 39.57 25.4901 39.57C17.368 39.57 10.7842 32.9857 10.7842 24.8641C10.7842 16.742 17.368 10.1582 25.4901 10.1582Z" fill="#6BC8F2"/>
<path d="M25.49 15.0605C30.9047 15.0605 35.2939 19.4503 35.2939 24.8645C35.2939 30.2787 30.9047 34.6684 25.49 34.6684C20.0753 34.6684 15.686 30.2787 15.686 24.8645C15.686 19.4503 20.0753 15.0605 25.49 15.0605Z" fill="white"/>
<path fill-rule="evenodd" clip-rule="evenodd" d="M25.4903 19.9619C28.1977 19.9619 30.3923 22.1565 30.3923 24.8639C30.3923 27.5707 28.1977 29.7658 25.4903 29.7658C22.783 29.7658 20.5884 27.5707 20.5884 24.8639C20.5884 22.1565 22.783 19.9619 25.4903 19.9619Z" fill="#E64C3C"/>
<path fill-rule="evenodd" clip-rule="evenodd" d="M43.6274 36.6289H37.2549L43.6274 43.0015H50L43.6274 36.6289Z" fill="#F0C419"/>
<path fill-rule="evenodd" clip-rule="evenodd" d="M43.6274 49.374V43.0015L37.2549 36.6289V43.0015L43.6274 49.374Z" fill="#F29C1F"/>
<path fill-rule="evenodd" clip-rule="evenodd" d="M43.6274 36.6289H37.2549L43.6274 43.0015H50L43.6274 36.6289Z" fill="#F0C419"/>
<path opacity="0.15" d="M24.7249 24.0995L7.41211 41.4122C7.74427 41.7728 8.08707 42.1235 8.44005 42.4637L25.7646 25.1392C25.8348 25.0714 25.8908 24.9902 25.9293 24.9005C25.9679 24.8108 25.9882 24.7143 25.989 24.6167C25.9899 24.5191 25.9713 24.4222 25.9343 24.3319C25.8973 24.2415 25.8427 24.1594 25.7737 24.0904C25.7046 24.0213 25.6225 23.9667 25.5322 23.9298C25.4418 23.8928 25.345 23.8742 25.2474 23.875C25.1497 23.8759 25.0532 23.8962 24.9635 23.9347C24.8738 23.9732 24.7927 24.0292 24.7249 24.0995Z" fill="black"/>
<path d="M44.2958 44.4213C44.1076 44.4213 43.9188 44.3497 43.7752 44.2061L24.9703 25.3845C24.8384 25.2453 24.766 25.0601 24.7686 24.8683C24.7712 24.6766 24.8486 24.4934 24.9843 24.3578C25.12 24.2223 25.3032 24.1451 25.495 24.1426C25.6868 24.1402 25.8719 24.2127 26.011 24.3448L44.8164 43.1659C44.9191 43.2689 44.989 43.3999 45.0172 43.5426C45.0455 43.6852 45.0308 43.833 44.9751 43.9674C44.9194 44.1017 44.8252 44.2165 44.7043 44.2973C44.5834 44.3781 44.4412 44.4212 44.2958 44.4213Z" fill="#E57E25"/>
</g>
<defs>
<clipPath id="clip0">
<rect width="50" height="50" fill="white" transform="translate(0 0.354492)"/>
</clipPath>
</defs>
</svg>
