<svg width="50" height="51" viewBox="0 0 50 51" fill="none" xmlns="http://www.w3.org/2000/svg">
<g clip-path="url(#clip0)">
<path fill-rule="evenodd" clip-rule="evenodd" d="M41.5025 32.987C35.97 43.8585 25 50.3545 25 50.3545C25 50.3545 14.03 43.8585 8.4975 32.987C2.783 21.7575 2.5 8.24649 2.5 8.24649L25 0.354492L47.5 8.24649C47.5 8.24649 47.217 21.7575 41.5025 32.987Z" fill="#ECF0F1"/>
<path fill-rule="evenodd" clip-rule="evenodd" d="M24.9949 43.8544C21.7669 41.4544 16.1459 36.6384 12.8744 30.1834C9.53843 23.6004 8.24693 15.9719 7.75293 11.4934L24.9999 5.41895L42.2469 11.4934C41.7534 15.9684 40.4624 23.5984 37.1254 30.1829C33.8704 36.6069 28.2239 41.4464 24.9949 43.8544Z" fill="#E64C3C"/>
<path fill-rule="evenodd" clip-rule="evenodd" d="M31.3946 23.3745C32.8666 21.8825 32.8656 19.465 31.3946 17.973C31.0394 17.6113 30.6143 17.3257 30.1453 17.1335C29.6762 16.9413 29.1729 16.8466 28.6661 16.855C27.2876 16.8785 25.0141 18.728 25.0141 18.728C25.0141 18.728 22.6766 16.8525 21.2641 16.8545C20.7689 16.8554 20.2789 16.9548 19.8225 17.1468C19.3661 17.3389 18.9525 17.6197 18.6056 17.973C17.1346 19.465 17.1336 21.8825 18.6056 23.3745L25.0001 29.854L31.3946 23.3745Z" fill="white"/>
<path opacity="0.08" fill-rule="evenodd" clip-rule="evenodd" d="M25 0.354492L2.5 8.24649C2.5 8.24649 2.783 21.7575 8.4975 32.987C14.03 43.8585 25 50.3545 25 50.3545V0.354492Z" fill="black"/>
</g>
<defs>
<clipPath id="clip0">
<rect width="50" height="50" fill="white" transform="translate(0 0.354492)"/>
</clipPath>
</defs>
</svg>
