<?xml version="1.0" standalone="no"?>
<!DOCTYPE svg PUBLIC "-//W3C//DTD SVG 1.1//EN" "http://www.w3.org/Graphics/SVG/1.1/DTD/svg11.dtd" >
<svg>
<metadata>
Created by FontForge 20090914 at Sun Feb 21 22:11:04 2021
 By www-data
Copyright 1996, 1998 DoubleAlex Font Studio. All rights reserved.
</metadata>
<defs>
<font id="RotondaC-Bold" horiz-adv-x="574" >
  <font-face 
    font-family="RotondaC"
    font-weight="700"
    font-stretch="normal"
    units-per-em="1000"
    panose-1="0 0 8 0 0 0 0 0 0 0"
    ascent="780"
    descent="-220"
    x-height="531.997"
    cap-height="712"
    bbox="-71 -220 1083 935.001"
    underline-thickness="50"
    underline-position="-150"
    unicode-range="U+0020-U+2260"
  />
<missing-glyph horiz-adv-x="1000" 
 />
    <glyph glyph-name=".notdef" horiz-adv-x="1000" 
 />
    <glyph glyph-name="space" unicode=" " horiz-adv-x="268" 
 />
    <glyph glyph-name="space" unicode="&#xa0;" horiz-adv-x="268" 
 />
    <glyph glyph-name="exclam" unicode="!" horiz-adv-x="334" 
d="M95 271v385c0 20.667 6.83301 37.167 20.5 49.5s30.834 18.5 51.501 18.5s37.834 -6.33301 51.501 -19s20.5 -29 20.5 -49v-385c0 -20 -6.83301 -36.333 -20.5 -49s-30.834 -19 -51.501 -19s-37.834 6.16699 -51.501 18.5s-20.5 28.833 -20.5 49.5zM167 -12
c-21.333 0 -39.666 7.66699 -54.999 23s-23 33.666 -23 54.999s7.66699 39.666 23 54.999s33.666 23 54.999 23s39.666 -7.66699 54.999 -23s23 -33.666 23 -54.999s-7.66699 -39.666 -23 -54.999s-33.666 -23 -54.999 -23z" />
    <glyph glyph-name="quotedbl" unicode="&#x22;" horiz-adv-x="444" 
d="M253 494v170c0 18 5.33301 32.5 16 43.5s25.334 16.5 44.001 16.5s33.334 -5.5 44.001 -16.5s16 -25.5 16 -43.5v-170c0 -18 -5.33301 -32.5 -16 -43.5s-25.334 -16.5 -44.001 -16.5s-33.334 5.5 -44.001 16.5s-16 25.5 -16 43.5zM71 494v170c0 18 5.33301 32.5 16 43.5
s25.334 16.5 44.001 16.5s33.334 -5.5 44.001 -16.5s16 -25.5 16 -43.5v-170c0 -18 -5.33301 -32.5 -16 -43.5s-25.334 -16.5 -44.001 -16.5s-33.334 5.5 -44.001 16.5s-16 25.5 -16 43.5z" />
    <glyph glyph-name="numbersign" unicode="#" horiz-adv-x="600" 
d="M148 299l16 114h-86c-15.333 0 -27.166 4.66699 -35.499 14s-12.5 20.666 -12.5 33.999s4.16699 24.666 12.5 33.999s20.166 14 35.499 14h100l22 161c2.66699 17.333 7.83398 29.666 15.501 36.999s19.167 11 34.5 11c12.667 0 23.5 -3.83301 32.5 -11.5
s13.5 -17.167 13.5 -28.5c0 -5.33301 -0.666992 -13.333 -2 -24l-20 -145h96l22 161c2.66699 17.333 7.83398 29.666 15.501 36.999s19.167 11 34.5 11c12.667 0 23.5 -3.83301 32.5 -11.5s13.5 -17.167 13.5 -28.5c0 -5.33301 -0.666992 -13.333 -2 -24l-20 -145h86
c15.333 0 27.166 -4.66699 35.499 -14s12.5 -20.666 12.5 -33.999s-4.16699 -24.666 -12.5 -33.999s-20.166 -14 -35.499 -14h-100l-16 -114h86c15.333 0 27.166 -4.66699 35.499 -14s12.5 -20.666 12.5 -33.999s-4.16699 -24.666 -12.5 -33.999s-20.166 -14 -35.499 -14
h-100l-22 -161c-2.66699 -17.333 -7.83398 -29.666 -15.501 -36.999s-19.167 -11 -34.5 -11c-12.667 0 -23.5 3.83301 -32.5 11.5s-13.5 17.167 -13.5 28.5c0 5.33301 0.666992 13.333 2 24l20 145h-96l-22 -161c-2.66699 -17.333 -7.83398 -29.666 -15.501 -36.999
s-19.167 -11 -34.5 -11c-12.667 0 -23.5 3.83301 -32.5 11.5s-13.5 17.167 -13.5 28.5c0 5.33301 0.666992 13.333 2 24l20 145h-86c-15.333 0 -27.166 4.66699 -35.499 14s-12.5 20.666 -12.5 33.999s4.16699 24.666 12.5 33.999s20.166 14 35.499 14h100zM261 413
l-16 -114h95l16 114h-95z" />
    <glyph glyph-name="dollar" unicode="$" horiz-adv-x="537" 
d="M291 283v-146.002c20.667 4.66699 36.667 14.334 48 29.001s17 32 17 52c0 28.667 -21.667 50.334 -65 65.001zM237 461.998v113.999c-35.333 -9.33301 -53 -29.666 -53 -60.999c0 -22 17.667 -39.667 53 -53zM237 132.997l0.000976562 167.002
c-3.33301 1.33301 -9 3 -17 5c-24.667 7.33301 -43.5 13.166 -56.5 17.499s-30 11.833 -51 22.5s-37 22 -48 34s-20.833 28.167 -29.5 48.5s-13 43.5 -13 69.5c0 62 20.5 113.333 61.5 154s92.167 64.334 153.5 71.001v2v29c0 11.333 0.333008 19.666 1 24.999
s3 10.333 7 15s10.333 7 19 7s15 -2.33301 19 -7s6.33301 -9.66699 7 -15s1 -13.666 1 -24.999v-31c24 -0.666992 48.333 -3.83398 73 -9.50098s47.834 -16.334 69.501 -32.001s32.5 -34.5 32.5 -56.5c0 -20 -6.16699 -37.333 -18.5 -52s-28.5 -22 -48.5 -22
c-12 0 -29.333 4.16699 -52 12.5s-41.334 13.166 -56.001 14.499v-133l43.5 -13c9 -2.66699 23.333 -7.83398 43 -15.501s34.5 -14.667 44.5 -21s22.167 -15.5 36.5 -27.5s25 -24.5 32 -37.5s13.333 -29 19 -48s8.5 -39.5 8.5 -61.5c0 -64.667 -21.667 -117.667 -65 -159
s-97.333 -64.666 -162 -69.999v-3v-29c0 -10 -0.333008 -17.667 -1 -23s-3 -10.666 -7 -15.999s-10.333 -8 -19 -8s-15 2.66699 -19 8s-6.33301 10.666 -7 15.999s-1 13 -1 23v31c-32.667 0.666992 -64 3.83398 -94 9.50098s-58.167 17.167 -84.5 34.5
s-39.5 39.333 -39.5 66c0 20 6.16699 36.833 18.5 50.5s28.5 20.5 48.5 20.5c14.667 0 38.667 -5.83301 72 -17.5s59.666 -18.5 78.999 -20.5z" />
    <glyph glyph-name="percent" unicode="%" horiz-adv-x="722" 
d="M185 503c16 0 28.667 5.66699 38 17s14 25.333 14 42s-4.66699 30.834 -14 42.501s-22 17.5 -38 17.5s-28.667 -5.83301 -38 -17.5s-14 -25.834 -14 -42.501s4.66699 -30.667 14 -42s22 -17 38 -17zM149 74l331 624.001c6.66699 12.667 13.167 21.167 19.5 25.5
s15.166 6.5 26.499 6.5c16 0 29.833 -5.5 41.5 -16.5s17.5 -24.167 17.5 -39.5c0 -10 -2.66699 -20 -8 -30l-336 -629c-0.666992 -1.33301 -2.16699 -3.5 -4.5 -6.5s-3.83301 -5 -4.5 -6s-2 -2.66699 -4 -5s-3.33301 -4 -4 -5s-2 -2.33301 -4 -4s-3.66699 -2.66699 -5 -3
s-3 -0.833008 -5 -1.5s-4.16699 -1.16699 -6.5 -1.5s-4.83301 -0.5 -7.5 -0.5c-13.333 0 -26.166 5.5 -38.499 16.5s-18.5 23.833 -18.5 38.5c0 11.333 3.33301 23.666 10 36.999zM185 401.001c-44 0 -80.667 15.833 -110 47.5s-44 69.5 -44 113.5s14.667 82 44 114
s66 48 110 48s80.667 -16 110 -48s44 -70 44 -114s-14.667 -81.833 -44 -113.5s-66 -47.5 -110 -47.5zM537 -11.999c-44 0 -80.667 15.833 -110 47.5s-44 69.5 -44 113.5s14.667 82 44 114s66 48 110 48s80.667 -16 110 -48s44 -70 44 -114s-14.667 -81.833 -44 -113.5
s-66 -47.5 -110 -47.5zM537 90.001c16 0 28.667 5.66699 38 17s14 25.333 14 42s-4.66699 30.834 -14 42.501s-22 17.5 -38 17.5s-28.667 -5.83301 -38 -17.5s-14 -25.834 -14 -42.501s4.66699 -30.667 14 -42s22 -17 38 -17z" />
    <glyph glyph-name="ampersand" unicode="&#x26;" horiz-adv-x="704" 
d="M399 178l-145 161c-57.333 -36.667 -86 -77 -86 -121c0 -30.667 9.5 -54.667 28.5 -72s44.167 -26 75.5 -26c44 0 86.333 19.333 127 58zM396 392l104.998 -115.998l39 45c14.667 16.667 27.334 28.5 38.001 35.5s23.334 10.5 38.001 10.5s27.5 -5.83301 38.5 -17.5
s16.5 -26.834 16.5 -45.501c0 -24.667 -18.333 -56.334 -55 -95.001l-25 -27l68 -77c14.667 -16.667 22 -33.334 22 -50.001c0 -17.333 -7 -32.833 -21 -46.5s-30.333 -20.5 -49 -20.5c-20.667 0 -38.334 7.66699 -53.001 23l-69 72c-72 -63.333 -145.333 -95 -220 -95
c-70 0 -128.333 19.167 -175 57.5s-70 91.166 -70 158.499c0 46.667 14 88.334 42 125.001s64.333 67.334 109 92.001c-44 44 -66 89 -66 135c0 53.333 20.833 94.666 62.5 123.999s90.834 44 147.501 44c32 0 63 -5.5 93 -16.5s56 -28.833 78 -53.5s33 -53.667 33 -87
c0 -37.333 -12.167 -71.166 -36.5 -101.499s-54.5 -54.833 -90.5 -73.5zM384.998 552.002c0 20 -6.83203 34.667 -20.499 44s-28.834 14 -45.501 14c-14 0 -27.5 -4.83301 -40.5 -14.5s-19.5 -21.5 -19.5 -35.5c0 -14.667 3.66699 -27.667 11 -39s21.333 -27 42 -47
c48.667 24 73 50 73 78z" />
    <glyph glyph-name="quotesingle" unicode="'" horiz-adv-x="240" 
d="M60 494v170c0 18 5.33301 32.5 16 43.5s25.334 16.5 44.001 16.5s33.334 -5.5 44.001 -16.5s16 -25.5 16 -43.5v-170c0 -18 -5.33301 -32.5 -16 -43.5s-25.334 -16.5 -44.001 -16.5s-33.334 5.5 -44.001 16.5s-16 25.5 -16 43.5z" />
    <glyph glyph-name="parenleft" unicode="(" horiz-adv-x="241" 
d="M172 724c17.333 0 32.334 -5.50098 45.001 -16.501s19 -24.833 19 -41.5c0 -2.66699 -6.33301 -24.667 -19 -66c-34.667 -104 -52 -209 -52 -315c0 -109.333 15.333 -208 46 -296c16.667 -43.333 25 -69.666 25 -78.999c0 -18.667 -6 -34 -18 -46s-27.333 -18 -46 -18
c-20 0 -37.333 12.667 -52 38c-24.667 42 -44.334 104.167 -59.001 186.5s-22 153.833 -22 214.5c0 62.667 9.16699 141.5 27.5 236.5s42.5 158.167 72.5 189.5c8 8.66699 19 13 33 13z" />
    <glyph glyph-name="parenright" unicode=")" horiz-adv-x="241" 
d="M69 -154c-17.333 0 -32.334 5.50098 -45.001 16.501s-19 24.833 -19 41.5c0 2.66699 6.33301 24.667 19 66c34.667 104 52 209 52 315c0 109.333 -15.333 208 -46 296c-16.667 43.333 -25 69.666 -25 78.999c0 18.667 5.83301 34 17.5 46s27.167 18 46.5 18
c20 0 37.333 -12.667 52 -38c24.667 -42 44.334 -104.167 59.001 -186.5s22 -153.833 22 -214.5c0 -62.667 -9.16699 -141.5 -27.5 -236.5s-42.5 -158.167 -72.5 -189.5c-8 -8.66699 -19 -13 -33 -13z" />
    <glyph glyph-name="asterisk" unicode="*" horiz-adv-x="389" 
d="M194 718c14.667 0 26.833 -3.83398 36.5 -11.501s14.5 -19.167 14.5 -34.5c0 -6 -1.16699 -16.667 -3.5 -32s-3.83301 -25.666 -4.5 -30.999l19.5 14.5l18.5 14c4 3 9.16699 5.83301 15.5 8.5s12.166 4 17.499 4c14.667 0 27 -5.83301 37 -17.5s15 -25.167 15 -40.5
c0 -11.333 -3.5 -20.5 -10.5 -27.5s-19.833 -14.167 -38.5 -21.5s-29 -11.666 -31 -12.999c4.66699 -2 13 -5.33301 25 -10s21.167 -8.66699 27.5 -12s12.5 -8.5 18.5 -15.5s9 -14.833 9 -23.5c0 -15.333 -5 -29 -15 -41s-22.333 -18 -37 -18
c-5.33301 0 -11.166 1.33301 -17.499 4s-11.666 5.66699 -15.999 9l-18.5 14.5c-8 6.33301 -14.333 11.166 -19 14.499c0.666992 -5.33301 2.16699 -15.666 4.5 -30.999s3.5 -26 3.5 -32c0 -15.333 -4.83301 -26.833 -14.5 -34.5s-21.834 -11.5 -36.501 -11.5
s-26.834 3.83301 -36.501 11.5s-14.5 19.167 -14.5 34.5c0 6 1.16699 16.667 3.5 32s3.83301 25.666 4.5 30.999c-5.33301 -3.33301 -12 -8.16602 -20 -14.499s-14.333 -11.166 -19 -14.499s-10 -6.33301 -16 -9s-11.667 -4 -17 -4c-14.667 0 -26.667 6 -36 18
s-14 25.667 -14 41c0 8.66699 3 16.5 9 23.5s12.167 12.167 18.5 15.5s15.333 7.33301 27 12l24.5 10c-2.66699 1.33301 -13 5.66602 -31 12.999s-30.5 14.5 -37.5 21.5s-10.5 16.167 -10.5 27.5c0 15.333 4.66699 28.833 14 40.5s21.333 17.5 36 17.5
c5.33301 0 11 -1.33301 17 -4s11.167 -5.5 15.5 -8.5l19.5 -14l20 -14.5c-0.666992 5.33301 -2.16699 15.666 -4.5 30.999s-3.5 26 -3.5 32c0 15.333 4.83301 26.833 14.5 34.5s21.834 11.5 36.501 11.5z" />
    <glyph glyph-name="plus" unicode="+" horiz-adv-x="600" 
d="M240 313v145c0 18 5.33301 32.5 16 43.5s25.334 16.5 44.001 16.5s33.334 -5.5 44.001 -16.5s16 -25.5 16 -43.5v-145h145c18.667 0 33.334 -5.5 44.001 -16.5s16 -25.5 16 -43.5s-5.33301 -32.5 -16 -43.5s-25.334 -16.5 -44.001 -16.5h-145v-145
c0 -18 -5.33301 -32.5 -16 -43.5s-25.334 -16.5 -44.001 -16.5s-33.334 5.5 -44.001 16.5s-16 25.5 -16 43.5v145h-145c-18.667 0 -33.334 5.5 -44.001 16.5s-16 25.5 -16 43.5s5.33301 32.5 16 43.5s25.334 16.5 44.001 16.5h145z" />
    <glyph glyph-name="comma" unicode="," horiz-adv-x="268" 
d="M199 50l-84.001 -150c-6 -10.667 -14.667 -19 -26 -25s-21.666 -9 -30.999 -9c-18 0 -33.833 6.5 -47.5 19.5s-20.5 28.5 -20.5 46.5c0 12 4 25.333 12 40l83 150c6 10.667 14.833 19 26.5 25s22.167 9 31.5 9c18 0 34 -6.5 48 -19.5s21 -28.5 21 -46.5
c0 -12 -4.33301 -25.333 -13 -40z" />
    <glyph glyph-name="hyphen" unicode="-" horiz-adv-x="389" 
d="M88 353h213c18 0 32 -6 42 -18s15 -27.333 15 -46c0 -18 -5 -32.833 -15 -44.5s-24 -17.5 -42 -17.5h-213c-18 0 -32 5.83301 -42 17.5s-15 26.5 -15 44.5c0 18.667 5 34 15 46s24 18 42 18z" />
    <glyph glyph-name="hyphen" unicode="&#xad;" horiz-adv-x="389" 
d="M88 353h213c18 0 32 -6 42 -18s15 -27.333 15 -46c0 -18 -5 -32.833 -15 -44.5s-24 -17.5 -42 -17.5h-213c-18 0 -32 5.83301 -42 17.5s-15 26.5 -15 44.5c0 18.667 5 34 15 46s24 18 42 18z" />
    <glyph glyph-name="period" unicode="." horiz-adv-x="268" 
d="M56 66c0 21.333 7.66699 39.666 23 54.999s33.666 23 54.999 23s39.666 -7.66699 54.999 -23s23 -33.666 23 -54.999s-7.66699 -39.666 -23 -54.999s-33.666 -23 -54.999 -23s-39.666 7.66699 -54.999 23s-23 33.666 -23 54.999z" />
    <glyph glyph-name="slash" unicode="/" horiz-adv-x="407" 
d="M17 71l267.001 616c10 24.667 28.667 37 56 37c16.667 0 30.667 -5.33301 42 -16s17 -23.667 17 -39c0 -4.66699 -3 -14 -9 -28l-266 -616c-11.333 -24.667 -30 -37 -56 -37c-16.667 0 -30.834 5.33301 -42.501 16s-17.5 23.667 -17.5 39c0 4.66699 3 14 9 28z" />
    <glyph glyph-name="zero" unicode="0" 
d="M287 124c72.667 0 109 77.333 109 232s-36.333 232 -109 232s-109 -77.333 -109 -232s36.333 -232 109 -232zM287 -12c-48 0 -90 11.333 -126 34s-63.667 52.667 -83 90s-33.5 76.333 -42.5 117s-13.5 83 -13.5 127s4.5 86.333 13.5 127s23.167 79.667 42.5 117
s47 67.333 83 90s78 34 126 34s90 -11.333 126 -34s63.667 -52.667 83 -90s33.5 -76.333 42.5 -117s13.5 -83 13.5 -127s-4.5 -86.333 -13.5 -127s-23.167 -79.667 -42.5 -117s-47 -67.333 -83 -90s-78 -34 -126 -34z" />
    <glyph glyph-name="one" unicode="1" horiz-adv-x="370" 
d="M152 72v501.998h-59c-22.667 0 -39.667 6.83301 -51 20.5s-17 29.834 -17 48.501s6.16699 34.834 18.5 48.501s28.833 20.5 49.5 20.5h142c20.667 0 37 -6.66699 49 -20s18 -30.333 18 -51v-569c0 -24.667 -7 -43.834 -21 -57.501s-32 -20.5 -54 -20.5
s-40 6.83301 -54 20.5s-21 32.834 -21 57.501z" />
    <glyph glyph-name="two" unicode="2" 
d="M268 132h183.002c23.333 0 42.166 -5.5 56.499 -16.5s21.5 -27.5 21.5 -49.5s-6.83301 -38.5 -20.5 -49.5s-30.834 -16.5 -51.501 -16.5h-334c-23.333 0 -42.166 5.5 -56.499 16.5s-21.5 27.5 -21.5 49.5c0 15.333 7.66699 32.333 23 51l80 91.5l94 109
c27.333 33 52.333 65.833 75 98.5c23.333 34 35 65 35 93c0 20.667 -7 38.667 -21 54s-31 23 -51 23c-21.333 0 -38.333 -5.5 -51 -16.5s-21.5 -24.5 -26.5 -40.5l-14.5 -48c-4.66699 -16 -12.167 -29.5 -22.5 -40.5s-24.166 -16.5 -41.499 -16.5
c-22.667 0 -40.5 7 -53.5 21s-19.5 31.333 -19.5 52c0 62 23.5 115.333 70.5 160s101.833 67 164.5 67c63.333 0 116.166 -19.167 158.499 -57.5s63.5 -88.5 63.5 -150.5c0 -32.667 -9.33301 -68.167 -28 -106.5s-37.834 -70 -57.501 -95s-47.5 -58 -83.5 -99
s-59.667 -68.833 -71 -83.5z" />
    <glyph glyph-name="three" unicode="3" 
d="M271 724c66.667 0 118.836 -19.3311 156.503 -57.998s56.5 -80.334 56.5 -125.001c0 -67.333 -27.333 -118.333 -82 -153c36.667 -16.667 66.167 -41 88.5 -73s33.5 -67.333 33.5 -106c0 -60.667 -24.333 -112.667 -73 -156s-108.334 -65 -179.001 -65
c-69.333 0 -126.666 20.333 -171.999 61s-68 83 -68 127c0 18.667 8 34.5 24 47.5s33.667 19.5 53 19.5c14.667 0 27.5 -6.16699 38.5 -18.5s20 -25.666 27 -39.999s19 -27.666 36 -39.999s38.167 -18.5 63.5 -18.5c26 0 48.167 9 66.5 27s27.5 40 27.5 66
s-5.83301 45.333 -17.5 58s-25.834 20.5 -42.501 23.5s-33.334 5.66699 -50.001 8s-30.834 8.5 -42.501 18.5s-17.5 25.667 -17.5 47c0 19.333 4.83301 34.166 14.5 44.499s21.5 17.166 35.5 20.499l42 10.5c14 3.66699 25.833 11 35.5 22s14.5 26.833 14.5 47.5
c0 19.333 -6.5 35.333 -19.5 48s-30.5 19 -52.5 19c-21.333 0 -39.333 -5.16699 -54 -15.5s-25.167 -21.5 -31.5 -33.5s-15 -23.167 -26 -33.5s-23.833 -15.5 -38.5 -15.5c-19.333 0 -35 7.33301 -47 22s-18 32 -18 52c0 39.333 22.667 76.166 68 110.499
s95.333 51.5 150 51.5z" />
    <glyph glyph-name="four" unicode="4" 
d="M327 157l-241.002 -0.00195312c-22.667 0 -40 6.16699 -52 18.5s-18 25.833 -18 40.5c0 14 4.66699 28.667 14 44l224 406c11.333 20.667 24.833 35.5 40.5 44.5s36.167 13.5 61.5 13.5c32 0 59.167 -10.667 81.5 -32s33.5 -53.333 33.5 -96v-307h17
c20 0 36.667 -6.16699 50 -18.5s20 -28.166 20 -47.499s-6.66699 -35.166 -20 -47.499s-30 -18.5 -50 -18.5h-17v-85c0 -26.667 -5.66699 -46.334 -17 -59.001s-29.666 -19 -54.999 -19s-43.666 6.33301 -54.999 19s-17 32.334 -17 59.001v85zM326.998 288.998v279h-2
l-135 -279h137z" />
    <glyph glyph-name="five" unicode="5" 
d="M250 574l-15 -105.999c32 6.66699 57 10 75 10c59.333 0 108.666 -20.667 147.999 -62s59 -91.666 59 -150.999c0 -85.333 -23 -152.833 -69 -202.5s-111.333 -74.5 -196 -74.5c-26 0 -55.5 4.83301 -88.5 14.5s-63.167 25.167 -90.5 46.5s-41 45.666 -41 72.999
c0 18.667 6.66699 34.667 20 48s29.333 20 48 20c11.333 0 33.833 -10.667 67.5 -32s62.834 -32 87.501 -32c32.667 0 58.5 13.167 77.5 39.5s28.5 56.833 28.5 91.5c0 30.667 -8.33301 55.167 -25 73.5s-40.334 27.5 -71.001 27.5c-20 0 -40.5 -5.5 -61.5 -16.5
s-39.833 -16.5 -56.5 -16.5c-18 0 -32.333 5.33301 -43 16s-16 21 -16 31c0 0.666992 1 12 3 34l25 211c4.66699 38 12.667 63.333 24 76s29.333 19 54 19h241c22.667 0 40.5 -5.83301 53.5 -17.5s19.5 -26.834 19.5 -45.501c0 -16 -2.66699 -29.5 -8 -40.5
s-12.166 -18.667 -20.499 -23s-15.833 -7.33301 -22.5 -9s-13 -2.5 -19 -2.5h-188z" />
    <glyph glyph-name="six" unicode="6" 
d="M287 -12c-74.667 0 -135.167 24.168 -181.5 72.501s-69.5 106.833 -69.5 175.5s27.333 148.167 82 238.5s112 163.166 172 218.499c5.33301 5.33301 16 13.333 32 24c7.33301 4.66699 17.333 7 30 7c14.667 0 30.167 -7.83301 46.5 -23.5s24.5 -32.167 24.5 -49.5
c0 -10 -7 -23.667 -21 -41c-9.33301 -11.333 -31.5 -36.333 -66.5 -75s-58.833 -67 -71.5 -85l2 -2c18 8 39 12 63 12c58.667 0 108.167 -22.333 148.5 -67s60.5 -97 60.5 -157c0 -66.667 -23.833 -124.667 -71.5 -174s-107.5 -74 -179.5 -74zM287 340.001
c-28 0 -50.833 -9.83301 -68.5 -29.5s-26.5 -44.5 -26.5 -74.5c0 -29.333 8.66699 -54 26 -74s40.333 -30 69 -30c28 0 50.833 10 68.5 30s26.5 44.667 26.5 74c0 28.667 -8.33301 53.167 -25 73.5s-40 30.5 -70 30.5z" />
    <glyph glyph-name="seven" unicode="7" horiz-adv-x="538" 
d="M95 100l249.999 474.002h-256c-25.333 0 -44 6.66699 -56 20s-18 29.666 -18 48.999s6 35.666 18 48.999s30.667 20 56 20h362c22.667 0 40.334 -8 53.001 -24s19 -32 19 -48c0 -12 -7.66699 -34 -23 -66l-248 -504c-15.333 -30.667 -27.833 -51 -37.5 -61
s-25.167 -15 -46.5 -15c-25.333 0 -45.5 7.66699 -60.5 23s-22.5 31.333 -22.5 48c0 10 3.33301 21.667 10 35z" />
    <glyph glyph-name="eight" unicode="8" 
d="M287 326c-28 0 -50.167 -9.5 -66.5 -28.5s-24.5 -42.833 -24.5 -71.5c0 -27.333 8 -50.833 24 -70.5s38.333 -29.5 67 -29.5c27.333 0 49.333 10 66 30s25 43.333 25 70c0 31.333 -8.16699 55.833 -24.5 73.5s-38.5 26.5 -66.5 26.5zM287 -12
c-70 0 -128.666 21.5 -175.999 64.5s-71 97.5 -71 163.5c0 76.667 35.667 134.334 107 173.001c-50.667 36.667 -76 84.334 -76 143.001c0 57.333 20.667 103.666 62 138.999s92.666 53 153.999 53c60 0 111.167 -17.667 153.5 -53s63.5 -81.666 63.5 -138.999
c0 -28.667 -6.83301 -55.834 -20.5 -81.501s-32.5 -46.167 -56.5 -61.5c34 -17.333 60.333 -40.833 79 -70.5s28 -63.834 28 -102.501c0 -68 -24 -123 -72 -165s-106.333 -63 -175 -63zM287.001 592c-22.667 0 -40.334 -7.16699 -53.001 -21.5s-19 -32.5 -19 -54.5
c0 -22.667 6.33301 -41 19 -55s30.334 -21 53.001 -21s40.5 7 53.5 21s19.5 32.333 19.5 55c0 22 -6.5 40.167 -19.5 54.5s-30.833 21.5 -53.5 21.5z" />
    <glyph glyph-name="nine" unicode="9" 
d="M287 724c74.667 0 135.167 -24.168 181.5 -72.501s69.5 -106.833 69.5 -175.5s-27.333 -148.167 -82 -238.5s-112 -163.166 -172 -218.499c-5.33301 -5.33301 -16 -13.333 -32 -24c-7.33301 -4.66699 -17.333 -7 -30 -7c-14.667 0 -30.167 7.83301 -46.5 23.5
s-24.5 32.167 -24.5 49.5c0 10 7 23.667 21 41c9.33301 11.333 31.5 36.333 66.5 75s58.833 67 71.5 85l-2 2c-18 -8 -39 -12 -63 -12c-58.667 0 -108.167 22.333 -148.5 67s-60.5 97 -60.5 157c0 66.667 23.833 124.667 71.5 174s107.5 74 179.5 74zM287 371.999
c28 0 50.833 9.83301 68.5 29.5s26.5 44.5 26.5 74.5c0 29.333 -8.66699 54 -26 74s-40.333 30 -69 30c-28 0 -50.833 -10 -68.5 -30s-26.5 -44.667 -26.5 -74c0 -28.667 8.33301 -53.167 25 -73.5s40 -30.5 70 -30.5z" />
    <glyph glyph-name="colon" unicode=":" horiz-adv-x="268" 
d="M56 387c0 21.333 7.66699 39.666 23 54.999s33.666 23 54.999 23s39.666 -7.66699 54.999 -23s23 -33.666 23 -54.999s-7.66699 -39.666 -23 -54.999s-33.666 -23 -54.999 -23s-39.666 7.66699 -54.999 23s-23 33.666 -23 54.999zM56 66
c0 21.333 7.66699 39.666 23 54.999s33.666 23 54.999 23s39.666 -7.66699 54.999 -23s23 -33.666 23 -54.999s-7.66699 -39.666 -23 -54.999s-33.666 -23 -54.999 -23s-39.666 7.66699 -54.999 23s-23 33.666 -23 54.999z" />
    <glyph glyph-name="semicolon" unicode=";" horiz-adv-x="268" 
d="M143 156c18 0 33.999 -6.5 47.999 -19.5s21 -28.5 21 -46.5c0 -12 -4.33301 -25.333 -13 -40l-84 -150c-6 -10.667 -14.667 -19 -26 -25s-21.666 -9 -30.999 -9c-18 0 -33.833 6.5 -47.5 19.5s-20.5 28.5 -20.5 46.5c0 12 4 25.333 12 40l83 150
c6 10.667 14.833 19 26.5 25s22.167 9 31.5 9zM55.999 387c0 21.333 7.66699 39.666 23 54.999s33.666 23 54.999 23s39.666 -7.66699 54.999 -23s23 -33.666 23 -54.999s-7.66699 -39.666 -23 -54.999s-33.666 -23 -54.999 -23s-39.666 7.66699 -54.999 23
s-23 33.666 -23 54.999z" />
    <glyph glyph-name="less" unicode="&#x3c;" horiz-adv-x="600" 
d="M196 253l333.001 -139c24 -10 36 -27 36 -51c0 -20 -4.66699 -35.5 -14 -46.5s-20.666 -16.5 -33.999 -16.5c-12.667 0 -29.334 4.66699 -50.001 14l-395 182c-24.667 12 -37 31 -37 57s12.333 45 37 57l395 181c22 10 38.667 15 50 15
c13.333 0 24.666 -5.5 33.999 -16.5s14 -26.5 14 -46.5c0 -24 -12 -41 -36 -51z" />
    <glyph glyph-name="equal" unicode="=" horiz-adv-x="600" 
d="M95 425h410c18.667 0 33.334 -5.5 44.001 -16.5s16 -25.5 16 -43.5s-5.33301 -32.5 -16 -43.5s-25.334 -16.5 -44.001 -16.5h-410c-18.667 0 -33.334 5.5 -44.001 16.5s-16 25.5 -16 43.5s5.33301 32.5 16 43.5s25.334 16.5 44.001 16.5zM95 201h410
c18.667 0 33.334 -5.5 44.001 -16.5s16 -25.5 16 -43.5s-5.33301 -32.5 -16 -43.5s-25.334 -16.5 -44.001 -16.5h-410c-18.667 0 -33.334 5.5 -44.001 16.5s-16 25.5 -16 43.5s5.33301 32.5 16 43.5s25.334 16.5 44.001 16.5z" />
    <glyph glyph-name="greater" unicode="&#x3e;" horiz-adv-x="600" 
d="M71 114l333.001 139l-333 139c-24 10 -36 27 -36 51c0 20 4.66699 35.5 14 46.5s20.666 16.5 33.999 16.5c11.333 0 28 -5 50 -15l395 -181c24.667 -12 37 -31 37 -57s-12.333 -45 -37 -57l-395 -182c-20.667 -9.33301 -37.334 -14 -50.001 -14
c-13.333 0 -24.666 5.5 -33.999 16.5s-14 26.5 -14 46.5c0 24 12 41 36 51z" />
    <glyph glyph-name="question" unicode="?" horiz-adv-x="481" 
d="M147 272l0.00292969 99.9951c0 4.66699 0.666992 8.83398 2 12.501s2.83301 6.83398 4.5 9.50098s4.5 5.33398 8.5 8.00098s7.33301 4.66699 10 6s7 3 13 5s10.333 3.33301 13 4s7.66699 2 15 4s12.333 3.33301 15 4c25.333 6.66699 45 16 59 28s21 31 21 57
c0 21.333 -8.33301 39.333 -25 54s-36 22 -58 22c-18.667 0 -35.834 -5.16699 -51.501 -15.5s-27.834 -21.666 -36.501 -33.999s-19.5 -23.666 -32.5 -33.999s-26.5 -15.5 -40.5 -15.5c-18 0 -32.667 6.5 -44 19.5s-17 30.5 -17 52.5c0 32.667 12.5 62.167 37.5 88.5
s54 45.666 87 57.999s65.5 18.5 97.5 18.5c67.333 0 124 -19.5 170 -58.5s69 -90.833 69 -155.5c0 -53.333 -15.333 -97 -46 -131s-73 -57.667 -127 -71v-36c0 -20 -6.83301 -36.5 -20.5 -49.5s-30.834 -19.5 -51.501 -19.5c-22 0 -39.5 6.33301 -52.5 19
s-19.5 29.334 -19.5 50.001zM219.003 -12.0049c-21.333 0 -39.666 7.66699 -54.999 23s-23 33.666 -23 54.999s7.66699 39.666 23 54.999s33.666 23 54.999 23s39.666 -7.66699 54.999 -23s23 -33.666 23 -54.999s-7.66699 -39.666 -23 -54.999s-33.666 -23 -54.999 -23z
" />
    <glyph glyph-name="at" unicode="@" horiz-adv-x="800" 
d="M359 252c28.667 0 52.5 10.832 71.5 32.499s28.5 46.834 28.5 75.501c0 23.333 -6.83301 43.333 -20.5 60s-32.167 25 -55.5 25c-25.333 0 -47.333 -11.333 -66 -34s-28 -47 -28 -73c0 -22.667 6.16699 -42.667 18.5 -60s29.5 -26 51.5 -26zM400 723.999
c62 0 121.169 -13.666 177.502 -40.999s102.166 -65.833 137.499 -115.5s53 -104.5 53 -164.5c0 -30.667 -5.16699 -59.334 -15.5 -86.001s-23.833 -48.834 -40.5 -66.501s-34.667 -33.334 -54 -47.001s-38.833 -24.167 -58.5 -31.5s-37 -12.833 -52 -16.5
s-27.167 -5.5 -36.5 -5.5c-46 0 -69 16.333 -69 49h-2c-27.333 -32.667 -62.333 -49 -105 -49c-41.333 0 -76.333 17.833 -105 53.5s-43 75.834 -43 120.501c0 59.333 18.167 111.333 54.5 156s83.166 67 140.499 67c52 0 91 -20 117 -60h2v12c0 32 18.667 48 56 48
c13.333 0 24.333 -2.5 33 -7.5s13 -11.833 13 -20.5c0 -8 -1.33301 -18.667 -4 -32l-40 -182c-2.66699 -10.667 -4 -21.667 -4 -33c0 -14 7.66699 -21 23 -21c20 0 41.667 13.333 65 40s35 64 35 112c0 68.667 -27.333 124.334 -82 167.001s-120 64 -196 64
c-77.333 0 -143 -27 -197 -81s-81 -119.667 -81 -197s27 -143 81 -197s119.667 -81 197 -81c80 0 149.333 15.667 208 47c4 2 14.333 9.66699 31 23s28.667 20 36 20c24.667 0 37 -12.333 37 -37c0 -14 -9 -32 -27 -54c-65.333 -59.333 -160.333 -89 -285 -89
c-101.333 0 -188 36 -260 108s-108 158.667 -108 260s36 188 108 260s158.667 108 260 108z" />
    <glyph glyph-name="A" unicode="A" horiz-adv-x="630" 
d="M9 97l200.999 543.999c8.66699 24 22.5 43.833 41.5 59.5s40.833 23.5 65.5 23.5c25.333 0 47.333 -7.5 66 -22.5s32.334 -35.167 41.001 -60.5l196 -544c5.33301 -14 8 -26.333 8 -37c0 -19.333 -6.83301 -35.166 -20.5 -47.499s-29.834 -18.5 -48.501 -18.5
c-37.333 0 -61.666 17.333 -72.999 52l-30 94h-278l-30 -93c-11.333 -35.333 -35.333 -53 -72 -53c-20 0 -37.333 6.66699 -52 20s-22 30 -22 50c0 10.667 2.33301 21.667 7 33zM315.999 567.999l-95 -290h190l-93 290h-2z" />
    <glyph glyph-name="B" unicode="B" 
d="M45 76v561.001c0 23.333 7.33301 41.666 22 54.999s33.667 20 57 20h192c53.333 0 98 -16.333 134 -49s54 -75 54 -127c0 -68.667 -31 -117.667 -93 -147v-2c42.667 -6 78.667 -25 108 -57s44 -69.667 44 -113c0 -69.333 -21 -122.833 -63 -160.5
s-98.333 -56.5 -169 -56.5h-206c-23.333 -0 -42.5 6.83301 -57.5 20.5s-22.5 32.167 -22.5 55.5zM195 580.001l-0.00195312 -150h78c24.667 0 44.334 7 59.001 21s22 33.333 22 58c0 22.667 -7.66699 40.167 -23 52.5s-34.666 18.5 -57.999 18.5h-78zM194.998 298.001
v-165.999h118c28 0 50.667 7.66699 68 23s26 36.666 26 63.999c0 24 -9.16699 43.167 -27.5 57.5s-44.5 21.5 -78.5 21.5h-106z" />
    <glyph glyph-name="C" unicode="C" horiz-adv-x="611" 
d="M17 356c0 105.333 32.1641 193.003 96.4971 263.003s146.833 105 247.5 105c20.667 0 42.334 -1.83301 65.001 -5.5s45.834 -9.33398 69.501 -17.001s43 -19.334 58 -35.001s22.5 -33.834 22.5 -54.501c0 -18.667 -5.83301 -34.5 -17.5 -47.5s-26.5 -19.5 -44.5 -19.5
c-10 0 -30.167 5.83301 -60.5 17.5s-61.166 17.5 -92.499 17.5c-59.333 0 -105.5 -21.667 -138.5 -65s-49.5 -97.333 -49.5 -162c0 -62.667 16.5 -115.167 49.5 -157.5s79.167 -63.5 138.5 -63.5c31.333 0 63.166 7 95.499 21s53.5 21 63.5 21c20 0 36 -7.66699 48 -23
s18 -30.333 18 -45c0 -22.667 -8 -42.167 -24 -58.5s-36.5 -28.5 -61.5 -36.5s-49.167 -13.833 -72.5 -17.5s-45.666 -5.5 -66.999 -5.5c-100.667 0 -183.167 35.167 -247.5 105.5s-96.5 157.833 -96.5 262.5z" />
    <glyph glyph-name="D" unicode="D" horiz-adv-x="667" 
d="M45 75l-0.000976562 560c0 22.667 7.16699 41.167 21.5 55.5s32.833 21.5 55.5 21.5h166c110.667 0 197 -33 259 -99s93 -155 93 -267c0 -104.667 -31.167 -188.5 -93.5 -251.5s-145.166 -94.5 -248.499 -94.5h-174c-20 0 -38.167 6 -54.5 18s-24.5 31 -24.5 57z
M194.999 574v-436h101c62 0 108.833 20 140.5 60s47.5 91.667 47.5 155c0 67.333 -16.5 121 -49.5 161s-82.5 60 -148.5 60h-91z" />
    <glyph glyph-name="E" unicode="E" horiz-adv-x="463" 
d="M45 75l0.000976562 550.006c0 26 6.66699 47 20 63s32.666 24 57.999 24h248c22.667 0 40.167 -6.83301 52.5 -20.5s18.5 -29.834 18.5 -48.501s-6.33301 -34.834 -19 -48.501s-30 -20.5 -52 -20.5h-176v-146h164c23.333 0 41.333 -6.83301 54 -20.5
s19 -29.834 19 -48.501s-6.5 -34.834 -19.5 -48.501s-30.833 -20.5 -53.5 -20.5h-164v-152h185c22.667 0 40.167 -6.83301 52.5 -20.5s18.5 -29.834 18.5 -48.501s-6.33301 -34.834 -19 -48.501s-30 -20.5 -52 -20.5h-258c-22 0 -40.333 7 -55 21s-22 32 -22 54z" />
    <glyph glyph-name="F" unicode="F" horiz-adv-x="444" 
d="M45 72v562.003c0 21.333 7 39.666 21 54.999s33 23 57 23h256c20.667 0 37 -6.83301 49 -20.5s18 -29.834 18 -48.501s-5.83301 -34.834 -17.5 -48.501s-28.167 -20.5 -49.5 -20.5h-184v-146h155c22.667 0 40.334 -6.66699 53.001 -20s19 -29.333 19 -48
s-6.33301 -35 -19 -49s-30.334 -21 -53.001 -21h-155v-218c0 -24.667 -7 -43.834 -21 -57.501s-32 -20.5 -54 -20.5s-40 6.83301 -54 20.5s-21 32.834 -21 57.501z" />
    <glyph glyph-name="G" unicode="G" horiz-adv-x="704" 
d="M429 422l170.001 0.000976562c30.667 0 53 -7.83301 67 -23.5s21 -39.834 21 -72.501c0 -98 -29.667 -178.833 -89 -242.5s-138.333 -95.5 -237 -95.5c-100.667 0 -183.167 35.167 -247.5 105.5s-96.5 157.833 -96.5 262.5c0 105.333 32.167 193 96.5 263
s146.833 105 247.5 105c74 0 138.333 -14.5 193 -43.5s82 -61.5 82 -97.5c0 -21.333 -5.83301 -38.333 -17.5 -51s-26.5 -19 -44.5 -19c-14.667 0 -29.334 3.83301 -44.001 11.5s-27.667 16 -39 25s-28.5 17.333 -51.5 25s-49.167 11.5 -78.5 11.5
c-59.333 0 -105.5 -22.167 -138.5 -66.5s-49.5 -98.833 -49.5 -163.5c0 -65.333 16.167 -120 48.5 -164s78.833 -66 139.5 -66c45.333 0 85 13.167 119 39.5s51 65.833 51 118.5h-102c-20.667 0 -37.5 6.5 -50.5 19.5s-19.5 29.833 -19.5 50.5s6.83301 37.167 20.5 49.5
s30.167 18.5 49.5 18.5z" />
    <glyph glyph-name="H" unicode="H" horiz-adv-x="704" 
d="M45 72v568c0 24.667 7 43.834 21 57.501s32 20.5 54 20.5s40 -6.83301 54 -20.5s21 -32.834 21 -57.501v-212h314v212c0 24.667 7 43.834 21 57.501s32 20.5 54 20.5s40 -6.83301 54 -20.5s21 -32.834 21 -57.501v-568c0 -24.667 -7 -43.834 -21 -57.501
s-32 -20.5 -54 -20.5s-40 6.83301 -54 20.5s-21 32.834 -21 57.501v218h-314v-218c0 -24.667 -7 -43.834 -21 -57.501s-32 -20.5 -54 -20.5s-40 6.83301 -54 20.5s-21 32.834 -21 57.501z" />
    <glyph glyph-name="I" unicode="I" horiz-adv-x="240" 
d="M45 72v568c0 24.667 7 43.834 21 57.501s32 20.5 54 20.5s40 -6.83301 54 -20.5s21 -32.834 21 -57.501v-568c0 -24.667 -7 -43.834 -21 -57.501s-32 -20.5 -54 -20.5s-40 6.83301 -54 20.5s-21 32.834 -21 57.501z" />
    <glyph glyph-name="J" unicode="J" horiz-adv-x="407" 
d="M368 640l0.00195312 -440.001c0 -40 -5.83301 -74.5 -17.5 -103.5s-27.667 -51 -48 -66s-41.333 -25.833 -63 -32.5s-44.834 -10 -69.501 -10c-18.667 0 -38 2 -58 6s-39.833 10 -59.5 18s-35.667 19.833 -48 35.5s-18.5 33.834 -18.5 54.501
c0 14.667 5.5 28.5 16.5 41.5s24.167 19.5 39.5 19.5c12.667 0 32 -6.16699 58 -18.5s46.667 -18.5 62 -18.5c13.333 0 24.166 2.66699 32.499 8s14 13 17 23s4.83301 18.5 5.5 25.5s1 16.167 1 27.5v430c0 24.667 7 43.834 21 57.501s32 20.5 54 20.5s40 -6.83301 54 -20.5
s21 -32.834 21 -57.501z" />
    <glyph glyph-name="K" unicode="K" horiz-adv-x="611" 
d="M45 66l0.000976562 578.001c0 20.667 7 38.167 21 52.5s32 21.5 54 21.5s40 -6.66699 54 -20s21 -31.333 21 -54v-216l246 262c17.333 18.667 36.666 28 57.999 28c20 0 37.333 -6.83301 52 -20.5s22 -30.834 22 -51.501s-16.333 -47.334 -49 -80.001l-189 -186l231 -241
c28 -29.333 42 -54.666 42 -75.999c0 -22 -7.5 -39 -22.5 -51s-33.5 -18 -55.5 -18c-13.333 0 -25.333 3.66699 -36 11s-24 19.333 -40 36l-259 280v-255c0 -20 -7 -37 -21 -51s-32 -21 -54 -21s-40 6.5 -54 19.5s-21 30.5 -21 52.5z" />
    <glyph glyph-name="L" unicode="L" horiz-adv-x="426" 
d="M45 82l-0.000976562 558c0 24.667 7 43.834 21 57.501s32 20.5 54 20.5s40 -6.83301 54 -20.5s21 -32.834 21 -57.501v-502h178c24 0 42.333 -7.33301 55 -22s18.334 -31.334 17.001 -50.001c-0.666992 -17.333 -7.66699 -32.666 -21 -45.999s-30.333 -20 -51 -20h-250
c-24 -0 -43 7.33301 -57 22s-21 34.667 -21 60z" />
    <glyph glyph-name="M" unicode="M" horiz-adv-x="870" 
d="M25 83l93.0059 558c3.33301 19.333 14.166 37 32.499 53s40.166 24 65.499 24c24 0 45.167 -7.16699 63.5 -21.5s30.5 -31.166 36.5 -50.499l118 -396h2l118 396c6 19.333 18.167 36.166 36.5 50.499s39.5 21.5 63.5 21.5c25.333 0 47.166 -8 65.499 -24
s29.166 -33.667 32.499 -53l93 -558c0.666992 -4 1 -9.66699 1 -17c0 -21.333 -6.83301 -38.666 -20.5 -51.999s-30.834 -20 -51.501 -20c-24.667 0 -43 5.66699 -55 17s-19.667 29 -23 53l-59 407h-2l-120 -419c-11.333 -38.667 -38 -58 -80 -58s-68.667 19.333 -80 58
l-120 419h-2l-59 -407c-3.33301 -24 -11 -41.667 -23 -53s-30.333 -17 -55 -17c-20.667 0 -37.834 6.66699 -51.501 20s-20.5 30.666 -20.5 51.999c0 7.33301 0.333008 13 1 17z" />
    <glyph glyph-name="N" unicode="N" horiz-adv-x="685" 
d="M39 72l-0.000976562 568c0 24.667 7 43.834 21 57.501s32 20.5 54 20.5c10 0 21.333 -3.33301 34 -10s22.334 -14.334 29.001 -23.001l317 -423h2v378c0 24.667 7 43.834 21 57.501s32 20.5 54 20.5s40 -6.83301 54 -20.5s21 -32.834 21 -57.501v-568
c0 -24.667 -7 -43.834 -21 -57.501s-32 -20.5 -54 -20.5c-9.33301 0 -20.5 3.33301 -33.5 10s-22.833 14.334 -29.5 23.001l-317 418h-2v-373c0 -24.667 -7 -43.834 -21 -57.501s-32 -20.5 -54 -20.5s-40 6.83301 -54 20.5s-21 32.834 -21 57.501z" />
    <glyph glyph-name="O" unicode="O" horiz-adv-x="722" 
d="M361 126c60.667 0 107.167 22 139.5 66s48.5 98.667 48.5 164c0 64.667 -16.5 119.167 -49.5 163.5s-79.167 66.5 -138.5 66.5s-105.5 -22.167 -138.5 -66.5s-49.5 -98.833 -49.5 -163.5c0 -65.333 16.167 -120 48.5 -164s78.833 -66 139.5 -66zM361 -12
c-100.667 0 -183.167 35.167 -247.5 105.5s-96.5 157.833 -96.5 262.5c0 105.333 32.167 193 96.5 263s146.833 105 247.5 105c99.333 0 181.5 -35.667 246.5 -107s97.5 -158.333 97.5 -261c0 -104.667 -32 -192.167 -96 -262.5s-146.667 -105.5 -248 -105.5z" />
    <glyph glyph-name="P" unicode="P" horiz-adv-x="556" 
d="M45 72l-0.000976562 561.999c0 24 6.83301 43 20.5 57s32.834 21 57.501 21h177c74 0 135.167 -22.167 183.5 -66.5s72.5 -101.833 72.5 -172.5c0 -71.333 -24 -128.666 -72 -171.999s-107.333 -65 -178 -65h-111v-164c0 -24.667 -7 -43.834 -21 -57.501
s-32 -20.5 -54 -20.5s-40 6.83301 -54 20.5s-21 32.834 -21 57.501zM194.999 579.999v-212h102c30.667 0 55.5 10 74.5 30s28.5 45.333 28.5 76s-9.5 56 -28.5 76s-43.833 30 -74.5 30h-102z" />
    <glyph glyph-name="Q" unicode="Q" horiz-adv-x="722" 
d="M594 -16l-57.002 47.999c-51.333 -29.333 -110 -44 -176 -44c-100.667 0 -183.167 35.167 -247.5 105.5s-96.5 157.833 -96.5 262.5c0 105.333 32.167 193 96.5 263s146.833 105 247.5 105c99.333 0 181.5 -35.667 246.5 -107s97.5 -158.333 97.5 -261
c0 -90 -22.333 -167 -67 -231l57 -49c23.333 -20.667 35 -41 35 -61c0 -17.333 -7.16699 -32.166 -21.5 -44.499s-30.166 -18.5 -47.499 -18.5c-19.333 0 -41.666 10.667 -66.999 32zM475.998 266.999l49 -38.999c16 36 24 78.667 24 128c0 64 -16.5 118.333 -49.5 163
s-79.167 67 -138.5 67s-105.5 -22.167 -138.5 -66.5s-49.5 -98.833 -49.5 -163.5c0 -65.333 16.167 -120 48.5 -164s78.833 -66 139.5 -66c19.333 0 40.666 2.33301 63.999 7l-36 35c-12.667 11.333 -19 24.666 -19 39.999c0 20 6.33301 37 19 51s29 21 49 21
c14.667 0 27.334 -4.33301 38.001 -13z" />
    <glyph glyph-name="R" unicode="R" horiz-adv-x="556" 
d="M45 72v562c0 24 6.66699 43 20 57s32.333 21 57 21h176c79.333 0 140.666 -18.5 183.999 -55.5s65 -93.833 65 -170.5c0 -52.667 -17.333 -95.167 -52 -127.5s-79 -52.833 -133 -61.5l170 -182c13.333 -14 20 -28.667 20 -44c0 -20 -7.16699 -37.833 -21.5 -53.5
s-32.166 -23.5 -53.499 -23.5c-24 0 -43.333 8.66699 -58 26l-222 269h-2v-217c0 -24.667 -7 -43.834 -21 -57.501s-32 -20.5 -54 -20.5s-40 6.83301 -54 20.5s-21 32.834 -21 57.501zM195 574v-177h103c28 0 50.5 8 67.5 24s25.5 37.667 25.5 65c0 28 -8.5 49.667 -25.5 65
s-39.5 23 -67.5 23h-103z" />
    <glyph glyph-name="S" unicode="S" horiz-adv-x="537" 
d="M270 724c23.333 0 48.833 -2.5 76.5 -7.5s54.5 -15.667 80.5 -32s39 -36.5 39 -60.5c0 -20 -6.16699 -37.333 -18.5 -52s-28.5 -22 -48.5 -22c-12 0 -31.833 5 -59.5 15s-52.167 15 -73.5 15c-22.667 0 -42 -5.83301 -58 -17.5s-24 -27.5 -24 -47.5
c0 -18.667 11.5 -33.667 34.5 -45s50.833 -21.333 83.5 -30s65.334 -19.834 98.001 -33.501s60.5 -36.167 83.5 -67.5s34.5 -71 34.5 -119c0 -69.333 -24.833 -125.333 -74.5 -168s-110.167 -64 -181.5 -64c-23.333 0 -47.166 1.5 -71.499 4.5s-50.333 8.16699 -78 15.5
s-50.167 19 -67.5 35s-26 35 -26 57c0 20 6.16699 36.833 18.5 50.5s28.5 20.5 48.5 20.5c14 0 39.667 -6.5 77 -19.5s67.666 -19.5 90.999 -19.5c32 0 57 8 75 24s27 36.667 27 62c0 21.333 -11.5 38.5 -34.5 51.5s-50.833 23.667 -83.5 32s-65.334 18.5 -98.001 30.5
s-60.5 31.833 -83.5 59.5s-34.5 62.834 -34.5 105.501c0 68 24.167 122.833 72.5 164.5s106.833 62.5 175.5 62.5z" />
    <glyph glyph-name="T" unicode="T" horiz-adv-x="480" 
d="M165 72v502h-109c-22.667 0 -39.667 6.83301 -51 20.5s-17 29.834 -17 48.501s6.16699 34.834 18.5 48.501s28.833 20.5 49.5 20.5h368c20.667 0 37.167 -6.83301 49.5 -20.5s18.5 -29.834 18.5 -48.501s-5.66699 -34.834 -17 -48.501s-28.333 -20.5 -51 -20.5h-109v-502
c0 -24.667 -7 -43.834 -21 -57.501s-32 -20.5 -54 -20.5s-40 6.83301 -54 20.5s-21 32.834 -21 57.501z" />
    <glyph glyph-name="U" unicode="U" horiz-adv-x="685" 
d="M39 283l-0.00195312 357c0 24.667 7 43.834 21 57.501s32 20.5 54 20.5s40 -6.83301 54 -20.5s21 -32.834 21 -57.501v-349c0 -47.333 14 -86.666 42 -117.999s65.333 -47 112 -47c44.667 0 81.334 16.167 110.001 48.5s43 71.166 43 116.499v349
c0 24.667 7 43.834 21 57.501s32 20.5 54 20.5s40 -6.83301 54 -20.5s21 -32.834 21 -57.501v-357c0 -83.333 -29.667 -153.333 -89 -210s-130.666 -85 -213.999 -85c-84.667 0 -156.5 28.167 -215.5 84.5s-88.5 126.5 -88.5 210.5z" />
    <glyph glyph-name="V" unicode="V" horiz-adv-x="592" 
d="M222 52l-219 557c-4.66699 12 -7 24.333 -7 37c0 20.667 7.66699 37.834 23 51.501s33.333 20.5 54 20.5c29.333 0 52 -16.333 68 -49l155 -416l155 416c16 32.667 38.667 49 68 49c20.667 0 38.667 -6.83301 54 -20.5s23 -30.834 23 -51.501
c0 -12.667 -2.33301 -25 -7 -37l-219 -557c-7.33301 -18.667 -16.5 -33 -27.5 -43s-26.5 -15 -46.5 -15s-35.5 5 -46.5 15s-20.167 24.333 -27.5 43z" />
    <glyph glyph-name="W" unicode="W" horiz-adv-x="908" 
d="M139 72l-127 546c-2.66699 11.333 -4 22.666 -4 33.999c0 17.333 6.66699 32.666 20 45.999s30.333 20 51 20c43.333 0 70 -24 80 -72l85 -425h2l130 438c5.33301 18 15 32.333 29 43s30.333 16 49 16s35 -5.33301 49 -16s23.667 -25 29 -43l130 -438h2l85 425
c10 48 36.667 72 80 72c20.667 0 37.667 -6.66699 51 -20s20 -28.666 20 -45.999c0 -11.333 -1.33301 -22.666 -4 -33.999l-127 -546c-5.33301 -22.667 -16.5 -41.334 -33.5 -56.001s-38.833 -22 -65.5 -22c-24 0 -45 6.83301 -63 20.5s-30 31.167 -36 52.5l-116 386h-2
l-116 -386c-6 -21.333 -18 -38.833 -36 -52.5s-39 -20.5 -63 -20.5c-26.667 0 -48.5 7.33301 -65.5 22s-28.167 33.334 -33.5 56.001z" />
    <glyph glyph-name="X" unicode="X" horiz-adv-x="612" 
d="M21 115l198 266l-162 220c-10.667 14 -16 28.667 -16 44c0 22 7.16699 39.667 21.5 53s32.5 20 54.5 20c26 0 47.667 -12.333 65 -37l124 -176l124 176c17.333 24.667 39 37 65 37c22 0 40.167 -6.66699 54.5 -20s21.5 -31 21.5 -53c0 -15.333 -5.33301 -30 -16 -44
l-162 -220l198 -266c11.333 -15.333 17 -32.333 17 -51c0 -20.667 -7.16699 -37.5 -21.5 -50.5s-32.5 -19.5 -54.5 -19.5c-25.333 0 -46 11 -62 33l-164 228l-164 -228c-16 -22 -36.667 -33 -62 -33c-22 0 -40.167 6.5 -54.5 19.5s-21.5 29.833 -21.5 50.5
c0 18.667 5.66699 35.667 17 51z" />
    <glyph glyph-name="Y" unicode="Y" horiz-adv-x="536" 
d="M193 67v267l-189 266c-9.33301 13.333 -14 28.333 -14 45c0 20 6.83301 37.167 20.5 51.5s30.834 21.5 51.501 21.5c27.333 0 48 -10 62 -30l144 -209l144 209c14 20 34.667 30 62 30c20.667 0 37.834 -7.16699 51.501 -21.5s20.5 -31.5 20.5 -51.5
c0 -16.667 -4.66699 -31.667 -14 -45l-189 -266v-267c0 -20.667 -6.33301 -38 -19 -52s-31.334 -21 -56.001 -21s-43.334 7 -56.001 21s-19 31.333 -19 52z" />
    <glyph glyph-name="Z" unicode="Z" horiz-adv-x="593" 
d="M209 132l290.003 0.000976562c21.333 0 38.666 -5.83301 51.999 -17.5s20 -27.834 20 -48.501c0 -18.667 -7.33301 -34.334 -22 -47.001s-31.334 -19 -50.001 -19h-393c-26 0 -46.5 6.66699 -61.5 20s-22.5 30.666 -22.5 51.999c0 20 6.66699 39.333 20 58l322 450h-263
c-20.667 0 -37.5 5.66699 -50.5 17s-19.5 27 -19.5 47c0 18.667 6.83301 34.667 20.5 48s30.167 20 49.5 20h366c27.333 0 48.166 -7.16699 62.499 -21.5s21.5 -31.166 21.5 -50.499c0 -23.333 -7.33301 -44.666 -22 -63.999z" />
    <glyph glyph-name="bracketleft" unicode="[" horiz-adv-x="278" 
d="M44 -82v733.996c0 22 6.66699 39.5 20 52.5s31 19.5 53 19.5h100c16 0 28.833 -4.66699 38.5 -14s14.5 -23.666 14.5 -42.999s-4.83301 -33.666 -14.5 -42.999s-22.5 -14 -38.5 -14h-47v-650h47c16 0 28.833 -4.66699 38.5 -14s14.5 -23.666 14.5 -42.999
s-4.83301 -33.666 -14.5 -42.999s-22.5 -14 -38.5 -14h-100c-22 0 -39.667 6.5 -53 19.5s-20 30.5 -20 52.5z" />
    <glyph glyph-name="backslash" unicode="\" horiz-adv-x="407" 
d="M123 687l267.001 -616c6 -14 9 -23.333 9 -28c0 -15.333 -5.83301 -28.333 -17.5 -39s-25.834 -16 -42.501 -16c-26.667 0 -45 12.333 -55 37l-268 616c-5.33301 12.667 -8 22 -8 28c0 15.333 5.66699 28.333 17 39s25.333 16 42 16c27.333 0 46 -12.333 56 -37z" />
    <glyph glyph-name="bracketright" unicode="]" horiz-adv-x="278" 
d="M234 652v-733.996c0 -22 -6.66699 -39.5 -20 -52.5s-31 -19.5 -53 -19.5h-100c-16 0 -28.833 4.66699 -38.5 14s-14.5 23.666 -14.5 42.999s4.83301 33.666 14.5 42.999s22.5 14 38.5 14h47v650h-47c-16 0 -28.833 4.66699 -38.5 14s-14.5 23.666 -14.5 42.999
s4.83301 33.666 14.5 42.999s22.5 14 38.5 14h100c22 0 39.667 -6.5 53 -19.5s20 -30.5 20 -52.5z" />
    <glyph glyph-name="asciicircum" unicode="^" horiz-adv-x="600" 
d="M300 568l-125 -231c-10.667 -14.667 -27.667 -22 -51 -22c-14.667 0 -26.834 3.5 -36.501 10.5s-14.5 16.833 -14.5 29.5c0 10.667 4.33301 24 13 40l161 293c10.667 20 28.334 30 53.001 30s42.334 -10 53.001 -30l161 -293c8.66699 -16 13 -29.333 13 -40
c0 -12.667 -4.83301 -22.5 -14.5 -29.5s-21.834 -10.5 -36.501 -10.5c-23.333 0 -40.333 7.33301 -51 22z" />
    <glyph glyph-name="underscore" unicode="_" horiz-adv-x="500" 
d="M500 -125h-500c-19.333 0 -29 8.33301 -29 25s9.66699 25 29 25h500c19.333 0 29 -8.33301 29 -25s-9.66699 -25 -29 -25z" />
    <glyph glyph-name="grave" unicode="`" horiz-adv-x="222" 
d="M80 763l117.999 -48.001l8 -4c18.667 -10 28 -23.333 28 -40c0 -18 -5.16699 -34.667 -15.5 -50s-22.833 -23 -37.5 -23h-5c-6.66699 0 -13 1.33301 -19 4l-16 6l-112 44c-27.333 10.667 -41 30.334 -41 59.001c0 14.667 5.5 28.667 16.5 42s23.5 20 37.5 20
c8.66699 0 21.334 -3.33301 38.001 -10z" />
    <glyph glyph-name="a" unicode="a" horiz-adv-x="531" 
d="M161 160c0 -18 8.33203 -31.166 24.999 -39.499s37.334 -12.5 62.001 -12.5c72.667 0 109 36 109 108v23h-22h-42.5c-9.66699 0 -22.5 -0.666992 -38.5 -2s-28.5 -3.66602 -37.5 -6.99902s-18.333 -7.83301 -28 -13.5s-16.667 -13.334 -21 -23.001
s-6.5 -20.834 -6.5 -33.501zM356.999 47.001c-12 -18.667 -31.001 -33.167 -57.001 -43.5s-52 -15.5 -78 -15.5c-60 0 -108.167 14.833 -144.5 44.5s-54.5 72.167 -54.5 127.5c0 124.667 109.333 187 328 187v39c0 25.333 -21 38 -63 38c-24 0 -44.667 -4 -62 -12
s-31.666 -16.167 -42.999 -24.5s-22 -12.5 -32 -12.5c-20.667 0 -36.334 6 -47.001 18s-16 26.333 -16 43c0 28 22 53 66 75s88.667 33 134 33c66.667 0 117.834 -13.833 153.501 -41.5s53.5 -67.5 53.5 -119.5v-312c0 -21.333 -6.5 -39.5 -19.5 -54.5
s-29.833 -22.5 -50.5 -22.5c-18 0 -32.5 3.66699 -43.5 11s-19.167 21.333 -24.5 42z" />
    <glyph glyph-name="b" unicode="b" 
d="M41 74v616.001c0 24 6.66699 43.333 20 58s30.666 22 51.999 22s38.666 -7.33301 51.999 -22s20 -34 20 -58v-196c38.667 33.333 84.334 50 137.001 50c72.667 0 129.5 -28.5 170.5 -85.5s61.5 -123.5 61.5 -199.5c0 -71.333 -22.167 -134.333 -66.5 -189
s-101.166 -82 -170.499 -82c-26 0 -51.333 5.66699 -76 17s-43.334 27.666 -56.001 48.999c-9.33301 -40 -33.333 -60 -72 -60c-21.333 0 -38.666 7.33301 -51.999 22s-20 34 -20 58zM185 270.001c0 -39.333 9.66699 -74.167 29 -104.5s47.333 -45.5 84 -45.5
c34.667 0 62 14.833 82 44.5s30 63.167 30 100.5c0 38 -10 72 -30 102s-47.333 45 -82 45c-36 0 -63.833 -14 -83.5 -42s-29.5 -61.333 -29.5 -100z" />
    <glyph glyph-name="c" unicode="c" horiz-adv-x="463" 
d="M454 453c0 -16.667 -5.16797 -32.333 -15.501 -47s-23.5 -22 -39.5 -22c-11.333 0 -29.166 4.66699 -53.499 14s-44.5 14 -60.5 14c-38.667 0 -68.5 -14.5 -89.5 -43.5s-31.5 -63.5 -31.5 -103.5c0 -38 11 -71.667 33 -101s51.333 -44 88 -44c13.333 0 33.5 5 60.5 15
s42.5 15 46.5 15c16.667 0 31.167 -6.16699 43.5 -18.5s18.5 -27.166 18.5 -44.499c0 -22.667 -11.5 -42 -34.5 -58s-47.167 -26.833 -72.5 -32.5s-48.333 -8.5 -69 -8.5c-76 0 -138 27 -186 81s-72 119.333 -72 196c0 75.333 24.5 140.666 73.5 195.999s110.5 83 184.5 83
c16 0 33.333 -1.5 52 -4.5s37.667 -7.83301 57 -14.5s35.333 -16.167 48 -28.5s19 -26.833 19 -43.5z" />
    <glyph glyph-name="d" unicode="d" 
d="M533 690v-616.001c0 -24 -6.66699 -43.333 -20 -58s-30.666 -22 -51.999 -22c-38.667 0 -62.667 20 -72 60c-12.667 -21.333 -31.334 -37.666 -56.001 -48.999s-50 -17 -76 -17c-69.333 0 -126.166 27.333 -170.499 82s-66.5 117.667 -66.5 189
c0 76 20.5 142.5 61.5 199.5s97.833 85.5 170.5 85.5c52.667 0 98.334 -16.667 137.001 -50v196c0 24 6.66699 43.333 20 58s30.666 22 51.999 22s38.666 -7.33301 51.999 -22s20 -34 20 -58zM389 269.999c0 38.667 -9.83301 72.001 -29.5 100.001s-47.5 42 -83.5 42
c-34.667 0 -62 -15 -82 -45s-30 -64 -30 -102c0 -37.333 10 -70.833 30 -100.5s47.333 -44.5 82 -44.5c36.667 0 64.667 15.167 84 45.5s29 65.166 29 104.499z" />
    <glyph glyph-name="e" unicode="e" horiz-adv-x="537" 
d="M464 218l-306.999 0.000976562c4.66699 -34 19.667 -59.833 45 -77.5s55.666 -26.5 90.999 -26.5c27.333 0 59 9.66699 95 29s58.667 29 68 29c15.333 0 29 -6.33301 41 -19s18 -27 18 -43c0 -30 -25.5 -57.833 -76.5 -83.5s-103.833 -38.5 -158.5 -38.5
c-80 0 -145 26 -195 78s-75 118.333 -75 199c0 75.333 24.5 140.666 73.5 195.999s110.5 83 184.5 83s135.667 -27.5 185 -82.5s74 -114.833 74 -179.5c0 -42.667 -21 -64 -63 -64zM154.001 314.001h229c-4 32.667 -16 59.167 -36 79.5s-46.333 30.5 -79 30.5
c-31.333 0 -57.333 -10.5 -78 -31.5s-32.667 -47.167 -36 -78.5z" />
    <glyph glyph-name="f" unicode="f" horiz-adv-x="296" 
d="M74 74l-0.00292969 332.002h-32c-19.333 0 -34.666 5.66699 -45.999 17s-17 26.666 -17 45.999c0 18 6 33 18 45s27 18 45 18h32v74c0 52 13.833 92.333 41.5 121s64.167 43 109.5 43c66.667 0 100 -21.667 100 -65c0 -40.667 -19.667 -61 -59 -61
c-8 0 -14 -0.333008 -18 -1s-8.83301 -2.5 -14.5 -5.5s-9.66699 -8.33301 -12 -16s-3.5 -17.834 -3.5 -30.501v-59h45c48.667 0 73 -21 73 -63s-24.333 -63 -73 -63h-45v-332c0 -24 -6.66699 -43.333 -20 -58s-30.666 -22 -51.999 -22s-38.666 7.33301 -51.999 22
s-20 34 -20 58z" />
    <glyph glyph-name="g" unicode="g" 
d="M533 458l-0.00195312 -415.999c0 -84 -25 -148.333 -75 -193s-117.333 -67 -202 -67c-24 0 -52.5 3.16699 -85.5 9.5s-64.833 18.333 -95.5 36s-46 38.5 -46 62.5c0 14 6.16699 28 18.5 42s25.5 21 39.5 21c12 0 37.333 -7.5 76 -22.5s73.334 -22.5 104.001 -22.5
c36 0 65.333 10.167 88 30.5s34 48.166 34 83.499v34h-2c-30.667 -45.333 -79 -68 -145 -68c-71.333 0 -126.166 26.667 -164.499 80s-57.5 118.666 -57.5 195.999c0 75.333 22 140.833 66 196.5s101 83.5 171 83.5c26 0 51.333 -5.66699 76 -17
s43.334 -27.666 56.001 -48.999c9.33301 40 33.333 60 72 60c21.333 0 38.666 -7.33301 51.999 -22s20 -34 20 -58zM388.998 262.001c0 39.333 -9.66699 74.166 -29 104.499s-47.333 45.5 -84 45.5c-34.667 0 -62 -14.833 -82 -44.5s-30 -63.167 -30 -100.5
c0 -41.333 9.83301 -76.166 29.5 -104.499s47.167 -42.5 82.5 -42.5c36 0 63.833 14 83.5 42s29.5 61.333 29.5 100z" />
    <glyph glyph-name="h" unicode="h" horiz-adv-x="556" 
d="M41 74l-0.00195312 616.001c0 24 6.66699 43.333 20 58s30.666 22 51.999 22s38.666 -7.33301 51.999 -22s20 -34 20 -58v-196h2c27.333 33.333 71 50 131 50c58 0 105.333 -17.333 142 -52s55 -82 55 -142v-276c0 -24 -6.66699 -43.333 -20 -58s-30.666 -22 -51.999 -22
s-38.666 7.33301 -51.999 22s-20 34 -20 58v251c0 32 -8.83301 56.5 -26.5 73.5s-40.167 25.5 -67.5 25.5c-28.667 0 -51.167 -9.33301 -67.5 -28s-24.5 -42.334 -24.5 -71.001v-251c0 -24 -6.66699 -43.333 -20 -58s-30.666 -22 -51.999 -22s-38.666 7.33301 -51.999 22
s-20 34 -20 58z" />
    <glyph glyph-name="i" unicode="i" horiz-adv-x="222" 
d="M39 74v384c0 24 6.66699 43.333 20 58s30.666 22 51.999 22s38.666 -7.33301 51.999 -22s20 -34 20 -58v-384c0 -24 -6.66699 -43.333 -20 -58s-30.666 -22 -51.999 -22s-38.666 7.33301 -51.999 22s-20 34 -20 58zM111 754c21.333 0 40.168 -8 56.501 -24
s24.5 -34.333 24.5 -55c0 -22.667 -7.83301 -42.167 -23.5 -58.5s-34.834 -24.5 -57.501 -24.5c-21.333 0 -40.166 8.33301 -56.499 25s-24.5 36 -24.5 58c0 20.667 8.16699 39 24.5 55s35.166 24 56.499 24z" />
    <glyph glyph-name="j" unicode="j" horiz-adv-x="222" 
d="M39 -138v596c0 24 6.66699 43.333 20 58s30.666 22 51.999 22s38.666 -7.33301 51.999 -22s20 -34 20 -58v-596c0 -24 -6.66699 -43.333 -20 -58s-30.666 -22 -51.999 -22s-38.666 7.33301 -51.999 22s-20 34 -20 58zM111 754c21.333 0 40.168 -8 56.501 -24
s24.5 -34.333 24.5 -55c0 -22.667 -7.83301 -42.167 -23.5 -58.5s-34.834 -24.5 -57.501 -24.5c-21.333 0 -40.166 8.33301 -56.499 25s-24.5 36 -24.5 58c0 20.667 8.16699 39 24.5 55s35.166 24 56.499 24z" />
    <glyph glyph-name="k" unicode="k" horiz-adv-x="500" 
d="M41 74v616c0 24 6.66699 43.333 20 58s30.666 22 51.999 22s38.666 -7.33301 51.999 -22s20 -34 20 -58v-336l158 153c21.333 20.667 43 31 65 31c17.333 0 31.833 -6.66699 43.5 -20s17.5 -28.333 17.5 -45c0 -21.333 -9.33301 -40.333 -28 -57l-128 -114l169 -198
c12 -14 18 -30 18 -48c0 -18.667 -6.66699 -34.667 -20 -48s-29.333 -20 -48 -20c-22 0 -45 14.667 -69 44l-176 217h-2v-175c0 -24 -6.66699 -43.333 -20 -58s-30.666 -22 -51.999 -22s-38.666 7.33301 -51.999 22s-20 34 -20 58z" />
    <glyph glyph-name="l" unicode="l" horiz-adv-x="222" 
d="M39 74v616c0 24 6.66699 43.333 20 58s30.666 22 51.999 22s38.666 -7.33301 51.999 -22s20 -34 20 -58v-616c0 -24 -6.66699 -43.333 -20 -58s-30.666 -22 -51.999 -22s-38.666 7.33301 -51.999 22s-20 34 -20 58z" />
    <glyph glyph-name="m" unicode="m" horiz-adv-x="852" 
d="M41 74l-0.00488281 384.002c0 24 6.66699 43.333 20 58s30.666 22 51.999 22c38.667 0 60.667 -18 66 -54c36.667 40 81.334 60 134.001 60c60.667 0 110.334 -24.333 149.001 -73c19.333 22.667 43.166 40.5 71.499 53.5s55.166 19.5 80.499 19.5
c60 0 107.833 -16.833 143.5 -50.5s53.5 -81.5 53.5 -143.5v-276c0 -24 -6.66699 -43.333 -20 -58s-30.666 -22 -51.999 -22s-38.666 7.33301 -51.999 22s-20 34 -20 58v251c0 29.333 -7.5 53.166 -22.5 71.499s-35.5 27.5 -61.5 27.5s-46.667 -9.16699 -62 -27.5
s-23 -42.166 -23 -71.499v-251c0 -24 -6.66699 -43.333 -20 -58s-30.666 -22 -51.999 -22s-38.666 7.33301 -51.999 22s-20 34 -20 58v251c0 29.333 -7.5 53.166 -22.5 71.499s-35.5 27.5 -61.5 27.5c-28.667 0 -50 -8.83301 -64 -26.5s-21 -41.834 -21 -72.501v-251
c0 -24 -6.66699 -43.333 -20 -58s-30.666 -22 -51.999 -22s-38.666 7.33301 -51.999 22s-20 34 -20 58z" />
    <glyph glyph-name="n" unicode="n" horiz-adv-x="556" 
d="M41 74l-0.00292969 384.001c0 24 6.66699 43.333 20 58s30.666 22 51.999 22c38.667 0 60.667 -17.667 66 -53c28 39.333 74.333 59 139 59c58 0 105.333 -17.333 142 -52s55 -82 55 -142v-276c0 -24 -6.66699 -43.333 -20 -58s-30.666 -22 -51.999 -22
s-38.666 7.33301 -51.999 22s-20 34 -20 58v251c0 32 -8.83301 56.5 -26.5 73.5s-40.167 25.5 -67.5 25.5c-28.667 0 -51.167 -9.33301 -67.5 -28s-24.5 -42.334 -24.5 -71.001v-251c0 -24 -6.66699 -43.333 -20 -58s-30.666 -22 -51.999 -22s-38.666 7.33301 -51.999 22
s-20 34 -20 58z" />
    <glyph glyph-name="o" unicode="o" horiz-adv-x="556" 
d="M278 544c74 0 135.5 -27.667 184.5 -83s73.5 -120.666 73.5 -195.999c0 -76.667 -24 -142 -72 -196s-110 -81 -186 -81s-138 27 -186 81s-72 119.333 -72 196c0 75.333 24.5 140.666 73.5 195.999s110.5 83 184.5 83zM278 412c-36.667 0 -64.834 -14.833 -84.501 -44.5
s-29.5 -63.834 -29.5 -102.501c0 -38 9.83301 -71.667 29.5 -101s47.834 -44 84.501 -44s64.834 14.667 84.501 44s29.5 63 29.5 101c0 38.667 -9.83301 72.834 -29.5 102.501s-47.834 44.5 -84.501 44.5z" />
    <glyph glyph-name="p" unicode="p" 
d="M41 -138l-0.00195312 596.001c0 24 6.66699 43.333 20 58s30.666 22 51.999 22c38.667 0 62.667 -20 72 -60c12.667 21.333 31.667 37.666 57 48.999s52 17 80 17c72.667 0 129.5 -28.5 170.5 -85.5s61.5 -123.5 61.5 -199.5c0 -71.333 -22.167 -134.333 -66.5 -189
s-101.166 -82 -170.499 -82c-49.333 0 -93.333 16.667 -132 50v-176c0 -24 -6.66699 -43.333 -20 -58s-30.666 -22 -51.999 -22s-38.666 7.33301 -51.999 22s-20 34 -20 58zM184.998 270.001c0 -39.333 9.66699 -74.167 29 -104.5s47.333 -45.5 84 -45.5
c34.667 0 62 14.833 82 44.5s30 63.167 30 100.5c0 38 -10 72 -30 102s-47.333 45 -82 45c-36 0 -63.833 -14 -83.5 -42s-29.5 -61.333 -29.5 -100z" />
    <glyph glyph-name="q" unicode="q" 
d="M533 458l-0.00195312 -596.001c0 -24 -6.66699 -43.333 -20 -58s-30.666 -22 -51.999 -22s-38.666 7.33301 -51.999 22s-20 34 -20 58v176c-38.667 -33.333 -82.667 -50 -132 -50c-69.333 0 -126.166 27.333 -170.499 82s-66.5 117.667 -66.5 189
c0 76 20.5 142.5 61.5 199.5s97.833 85.5 170.5 85.5c28 0 54.667 -5.66699 80 -17s44.333 -27.666 57 -48.999c9.33301 40 33.333 60 72 60c21.333 0 38.666 -7.33301 51.999 -22s20 -34 20 -58zM388.998 269.999c0 38.667 -9.83301 72.001 -29.5 100.001
s-47.5 42 -83.5 42c-34.667 0 -62 -15 -82 -45s-30 -64 -30 -102c0 -37.333 10 -70.833 30 -100.5s47.333 -44.5 82 -44.5c36.667 0 64.667 15.167 84 45.5s29 65.166 29 104.499z" />
    <glyph glyph-name="r" unicode="r" horiz-adv-x="333" 
d="M39 74l-0.00195312 392c0 22.667 7.5 40.334 22.5 53.001s32.167 19 51.5 19c46.667 0 70 -20 70 -60h2c27.333 40 61 60 101 60c19.333 0 35.833 -6.66699 49.5 -20s20.5 -32.333 20.5 -57c0 -11.333 -2.83301 -20.833 -8.5 -28.5s-11.334 -13 -17.001 -16
s-15.667 -7.33301 -30 -13s-24.5 -9.83398 -30.5 -12.501c-15.333 -7.33301 -26.333 -12.833 -33 -16.5s-15.167 -9.33398 -25.5 -17.001s-17.666 -16.667 -21.999 -27s-6.5 -22.166 -6.5 -35.499v-221c0 -24 -6.66699 -43.333 -20 -58s-30.666 -22 -51.999 -22
s-38.666 7.33301 -51.999 22s-20 34 -20 58z" />
    <glyph glyph-name="s" unicode="s" horiz-adv-x="426" 
d="M403 440c0 -16.667 -5.66211 -31.5 -16.9951 -44.5s-25.333 -19.5 -42 -19.5c-7.33301 0 -26.333 7 -57 21s-54.667 21 -72 21c-14 0 -25.667 -3.33301 -35 -10s-14 -16.667 -14 -30c0 -12 8.66699 -22.833 26 -32.5s38.166 -18.834 62.499 -27.501
s48.666 -19 72.999 -31s45.166 -29 62.499 -51s26 -48.333 26 -79c0 -48.667 -18.833 -89 -56.5 -121s-87.167 -48 -148.5 -48c-44.667 0 -89.334 10.833 -134.001 32.5s-67 47.834 -67 78.501c0 13.333 5.83301 27.333 17.5 42s26.5 22 44.5 22
c17.333 0 40.666 -8.16699 69.999 -24.5s55.666 -24.5 78.999 -24.5c21.333 0 36.166 3.33301 44.499 10s12.5 17 12.5 31c0 12 -8.66699 22.667 -26 32s-38.166 18.5 -62.499 27.5s-48.666 19.333 -72.999 31s-45.166 28.667 -62.499 51s-26 48.833 -26 79.5
c0 50 18.167 90.5 54.5 121.5s83.166 46.5 140.499 46.5c26 0 52.167 -3.5 78.5 -10.5s49.833 -18.833 70.5 -35.5s31 -36 31 -58z" />
    <glyph glyph-name="t" unicode="t" horiz-adv-x="296" 
d="M76 74l-0.000976562 331.999h-32c-19.333 0 -34.666 5.66699 -45.999 17s-17 26.666 -17 45.999c0 18 6 33 18 45s27 18 45 18h32v86c0 24 6.66699 43.333 20 58s30.666 22 51.999 22s38.666 -7.33301 51.999 -22s20 -34 20 -58v-86h41c20 0 36.5 -5.16699 49.5 -15.5
s19.5 -26.166 19.5 -47.499s-6.5 -37.166 -19.5 -47.499s-29.5 -15.5 -49.5 -15.5h-41v-332c0 -24 -6.66699 -43.333 -20 -58s-30.666 -22 -51.999 -22s-38.666 7.33301 -51.999 22s-20 34 -20 58z" />
    <glyph glyph-name="u" unicode="u" horiz-adv-x="556" 
d="M515 74c0 -24 -6.66406 -43.334 -19.9971 -58.001s-30.666 -22 -51.999 -22c-38.667 0 -60.667 17.667 -66 53c-28 -39.333 -74.333 -59 -139 -59c-58 0 -105.333 17.333 -142 52s-55 82 -55 142v276c0 24 6.66699 43.333 20 58s30.666 22 51.999 22
s38.666 -7.33301 51.999 -22s20 -34 20 -58v-251c0 -32 8.83301 -56.5 26.5 -73.5s40.167 -25.5 67.5 -25.5c28.667 0 51.167 9.33301 67.5 28s24.5 42.334 24.5 71.001v251c0 24 6.66699 43.333 20 58s30.666 22 51.999 22s38.666 -7.33301 51.999 -22s20 -34 20 -58v-384z
" />
    <glyph glyph-name="v" unicode="v" horiz-adv-x="462" 
d="M153 54l-145 372c-6 15.333 -9 29.333 -9 42c0 22 7.33301 39.167 22 51.5s32.334 18.5 53.001 18.5c32 0 53.333 -17 64 -51l92 -284h2l92 284c10.667 34 32 51 64 51c20.667 0 38.334 -6.16699 53.001 -18.5s22 -29.5 22 -51.5c0 -12.667 -3 -26.667 -9 -42l-145 -372
c-8 -20.667 -17.333 -35.834 -28 -45.501s-27.334 -14.5 -50.001 -14.5s-39.334 4.83301 -50.001 14.5s-20 24.834 -28 45.501z" />
    <glyph glyph-name="w" unicode="w" horiz-adv-x="778" 
d="M144 67l-122 345c-10 29.333 -15 52 -15 68s6.83301 29.667 20.5 41s30.834 17 51.501 17c34 0 56.667 -19 68 -57l83 -275h2l84 269c12.667 42 37 63 73 63s60.333 -21 73 -63l84 -269h2l83 275c11.333 38 34 57 68 57c21.333 0 38.666 -6.33301 51.999 -19
s20 -29.667 20 -51c0 -10 -4.66699 -28 -14 -54l-123 -347c-17.333 -48.667 -46.333 -73 -87 -73c-41.333 0 -69 22.333 -83 67l-74 232h-2l-74 -232c-14 -44.667 -41.667 -67 -83 -67c-40.667 0 -69.667 24.333 -87 73z" />
    <glyph glyph-name="x" unicode="x" horiz-adv-x="500" 
d="M20 113l146 166l-122 137c-14.667 17.333 -22 34.666 -22 51.999c0 18.667 7.66699 35 23 49s32.333 21 51 21c20 0 37.667 -9.33301 53 -28l101 -126l101 126c15.333 18.667 33 28 53 28c18.667 0 35.667 -7 51 -21s23 -30.333 23 -49
c0 -17.333 -7.33301 -34.666 -22 -51.999l-122 -137l146 -166c13.333 -14.667 20 -31 20 -49c0 -20.667 -6.5 -37.5 -19.5 -50.5s-30.167 -19.5 -51.5 -19.5c-14.667 0 -26 2.5 -34 7.5s-16.667 13.167 -26 24.5l-119 146l-119 -146
c-6 -7.33301 -11.167 -12.833 -15.5 -16.5s-10.333 -7.16699 -18 -10.5s-16.5 -5 -26.5 -5c-21.333 0 -38.5 6.5 -51.5 19.5s-19.5 29.833 -19.5 50.5c0 18 6.66699 34.333 20 49z" />
    <glyph glyph-name="y" unicode="y" horiz-adv-x="481" 
d="M164 42l-159.001 397c-4.66699 12.667 -7 25 -7 37c0 17.333 7.33301 32 22 44s30 18 46 18c35.333 0 59.333 -17 72 -51l99 -271l106 271c12.667 34 36.667 51 72 51c16 0 31.333 -6 46 -18s22 -26.667 22 -44c0 -14.667 -2.33301 -27 -7 -37l-241 -600
c-15.333 -38 -38 -57 -68 -57c-23.333 0 -41.666 6.16699 -54.999 18.5s-20 26.833 -20 43.5c0 12.667 3 26.667 9 42z" />
    <glyph glyph-name="z" unicode="z" horiz-adv-x="481" 
d="M24 88l226.001 317.999h-167c-18.667 0 -34.167 5.66699 -46.5 17s-18.5 26.666 -18.5 45.999s6.16699 34.666 18.5 45.999s27.833 17 46.5 17h327c6 0 12.167 -0.833008 18.5 -2.5s12.666 -6.16699 18.999 -13.5s9.5 -17 9.5 -29c0 -15.333 -5 -29.666 -15 -42.999
l-227 -318h190c18.667 0 34.167 -5.66699 46.5 -17s18.5 -26.666 18.5 -45.999s-6.16699 -34.666 -18.5 -45.999s-27.833 -17 -46.5 -17h-335c-16.667 0 -30.667 4.16699 -42 12.5s-17 20.5 -17 36.5c0 12 4.33301 25 13 39z" />
    <glyph glyph-name="braceleft" unicode="{" horiz-adv-x="333" 
d="M86 -23v194.006c0 27.333 -4.16699 45.166 -12.5 53.499s-20.166 12.5 -35.499 12.5s-27.166 4.66699 -35.499 14s-12.5 20.666 -12.5 33.999s4.16699 24.666 12.5 33.999s20.166 14 35.499 14s27.166 4.16699 35.499 12.5s12.5 26.166 12.5 53.499v194
c0 87.333 44.333 131 133 131h62c13.333 0 24.166 -3.83301 32.499 -11.5s12.5 -18.834 12.5 -33.501s-4.16699 -25.834 -12.5 -33.501s-19.166 -11.5 -32.499 -11.5h-25c-29.333 0 -44 -19.333 -44 -58v-189c0 -21.333 -3.66699 -39.166 -11 -53.499
s-17.666 -24.5 -30.999 -30.5s-24.333 -10 -33 -12s-19.667 -3.66699 -33 -5v-2c13.333 -1.33301 24.333 -3 33 -5s19.667 -6 33 -12s23.666 -16.167 30.999 -30.5s11 -32.166 11 -53.499v-189c0 -38.667 14.667 -58 44 -58h25c13.333 0 24.166 -3.83301 32.499 -11.5
s12.5 -18.834 12.5 -33.501s-4.16699 -25.834 -12.5 -33.501s-19.166 -11.5 -32.499 -11.5h-62c-88.667 0 -133 43.667 -133 131z" />
    <glyph glyph-name="bar" unicode="|" horiz-adv-x="222" 
d="M171 710v-662c0 -18 -5.33301 -32.5 -16 -43.5s-25.334 -16.5 -44.001 -16.5s-33.334 5.5 -44.001 16.5s-16 25.5 -16 43.5v662c0 18 5.33301 32.5 16 43.5s25.334 16.5 44.001 16.5s33.334 -5.5 44.001 -16.5s16 -25.5 16 -43.5z" />
    <glyph glyph-name="braceright" unicode="}" horiz-adv-x="333" 
d="M247 593v-194.006c0 -27.333 4.16699 -45.166 12.5 -53.499s20.166 -12.5 35.499 -12.5s27.166 -4.66699 35.499 -14s12.5 -20.666 12.5 -33.999s-4.16699 -24.666 -12.5 -33.999s-20.166 -14 -35.499 -14s-27.166 -4.16699 -35.499 -12.5s-12.5 -26.166 -12.5 -53.499
v-194c0 -87.333 -44.333 -131 -133 -131h-62c-13.333 0 -24.166 3.83301 -32.499 11.5s-12.5 18.834 -12.5 33.501s4.16699 25.834 12.5 33.501s19.166 11.5 32.499 11.5h25c29.333 0 44 19.333 44 58v189c0 21.333 3.66699 39.166 11 53.499s17.666 24.5 30.999 30.5
s24.333 10 33 12s19.667 3.66699 33 5v2c-13.333 1.33301 -24.333 3 -33 5s-19.667 6 -33 12s-23.666 16.167 -30.999 30.5s-11 32.166 -11 53.499v189c0 38.667 -14.667 58 -44 58h-25c-13.333 0 -24.166 3.83301 -32.499 11.5s-12.5 18.834 -12.5 33.501
s4.16699 25.834 12.5 33.501s19.166 11.5 32.499 11.5h62c88.667 0 133 -43.667 133 -131z" />
    <glyph glyph-name="asciitilde" unicode="~" horiz-adv-x="600" 
d="M405 279c19.333 0 39.5 10.167 60.5 30.5s37.833 30.5 50.5 30.5c14.667 0 25.5 -4.83301 32.5 -14.5s10.5 -21.167 10.5 -34.5c0 -33.333 -14 -63.666 -42 -90.999s-64.667 -41 -110 -41c-26.667 0 -64.834 11.333 -114.501 34s-82.167 34 -97.5 34
c-19.333 0 -39.5 -10.167 -60.5 -30.5s-37.833 -30.5 -50.5 -30.5c-14.667 0 -25.5 4.83301 -32.5 14.5s-10.5 21.167 -10.5 34.5c0 33.333 14 63.666 42 90.999s64.667 41 110 41c26.667 0 64.834 -11.333 114.501 -34s82.167 -34 97.5 -34z" />
    <glyph glyph-name="sterling" unicode="&#xa3;" horiz-adv-x="611" 
d="M273 424l152.003 -0.00195312c21.333 0 38.666 -6.16699 51.999 -18.5s20 -29.166 20 -50.499s-6.66699 -38.166 -20 -50.499s-30.666 -18.5 -51.999 -18.5h-129c0 -52 -17 -101.333 -51 -148h278c21.333 0 38.666 -6.16699 51.999 -18.5s20 -29.166 20 -50.499
s-6.66699 -38.166 -20 -50.499s-30.666 -18.5 -51.999 -18.5h-392c-24.667 0 -43.834 7 -57.501 21s-20.5 33 -20.5 57c0 10 7.16699 23.833 21.5 41.5s28.833 40.834 43.5 69.501s22 61 22 97h-52c-21.333 0 -38.666 6.16699 -51.999 18.5s-20 29.166 -20 50.499
s6.66699 38.166 20 50.499s30.666 18.5 51.999 18.5h21c-6.66699 12.667 -12.667 30 -18 52s-8 40 -8 54c0 58 24.5 104.833 73.5 140.5s108.5 53.5 178.5 53.5c70.667 0 130.5 -16.5 179.5 -49.5s73.5 -74.167 73.5 -123.5c0 -22.667 -7.33301 -41 -22 -55
s-33.334 -21 -56.001 -21c-14.667 0 -28.167 5.5 -40.5 16.5s-22.5 23 -30.5 36s-20.5 25 -37.5 36s-37.167 16.5 -60.5 16.5c-26.667 0 -49.334 -6.83301 -68.001 -20.5s-28 -32.5 -28 -56.5c0 -20.667 4.33301 -38.334 13 -53.001z" />
    <glyph glyph-name="currency" unicode="&#xa4;" horiz-adv-x="600" 
d="M300 109c-60.667 0 -107.999 15.333 -141.999 46l-57 -59c-7.33301 -8 -17 -12 -29 -12c-14.667 0 -26 5.33301 -34 16c-8 11.333 -12 23.333 -12 36c0 6 4.66699 13.667 14 23l58 58c-30.667 34.667 -46 81 -46 139c0 64 15.333 111 46 141l-58 58
c-8 8 -12.667 15.667 -14 23c0 14.667 4 26.667 12 36c8 10.667 19.333 16 34 16c11.333 0 21 -4 29 -12l57 -57c36 29.333 83.333 44 142 44s106 -14.667 142 -44l57 57c8 8 17.667 12 29 12c14.667 0 26 -5.33301 34 -16c8 -11.333 12 -23.333 12 -36
c0 -6 -4.66699 -13.667 -14 -23l-58 -58c30.667 -30 46 -77 46 -141c0 -58 -15.333 -104.333 -46 -139l58 -58c9.33301 -9.33301 14 -17 14 -23c0 -12.667 -4 -24.667 -12 -36c-8 -10.667 -19.333 -16 -34 -16c-12.667 0 -22.334 4 -29.001 12l-57 59
c-34 -30.667 -81.333 -46 -142 -46zM300.001 491c-36.667 0 -67.167 -12.833 -91.5 -38.5s-36.5 -57.834 -36.5 -96.501c0 -38 12.167 -69.667 36.5 -95s54.833 -38 91.5 -38s67.167 12.667 91.5 38s36.5 57 36.5 95c0 38.667 -12.167 70.834 -36.5 96.501
s-54.833 38.5 -91.5 38.5z" />
    <glyph glyph-name="brokenbar" unicode="&#xa6;" horiz-adv-x="222" 
d="M51 48v194c0 18 5.33301 32.5 16 43.5s25.334 16.5 44.001 16.5s33.334 -5.5 44.001 -16.5s16 -25.5 16 -43.5v-194c0 -18 -5.33301 -32.5 -16 -43.5s-25.334 -16.5 -44.001 -16.5s-33.334 5.5 -44.001 16.5s-16 25.5 -16 43.5zM51 516v194c0 18 5.33301 32.5 16 43.5
s25.334 16.5 44.001 16.5s33.334 -5.5 44.001 -16.5s16 -25.5 16 -43.5v-194c0 -18 -5.33301 -32.5 -16 -43.5s-25.334 -16.5 -44.001 -16.5s-33.334 5.5 -44.001 16.5s-16 25.5 -16 43.5z" />
    <glyph glyph-name="section" unicode="&#xa7;" 
d="M280 724c33.333 0 67.6709 -4.16309 103.004 -12.4961s68.166 -24.333 98.499 -48s45.5 -52.834 45.5 -87.501c0 -18.667 -6.66699 -35.167 -20 -49.5s-29 -21.5 -47 -21.5c-13.333 0 -26.666 4.5 -39.999 13.5s-24.833 19 -34.5 30s-22.334 21 -38.001 30
s-32.167 13.5 -49.5 13.5c-20 0 -37.333 -6.5 -52 -19.5s-22 -29.5 -22 -49.5c0 -13.333 5.16699 -25 15.5 -35s21.666 -17.667 33.999 -23s31 -12.666 56 -21.999s45.167 -17.333 60.5 -24c26 -12 46.5 -22 61.5 -30s31.667 -19 50 -33s31.666 -29.833 39.999 -47.5
s12.5 -37.5 12.5 -59.5c0 -40.667 -8.5 -74.167 -25.5 -100.5s-43.833 -52.166 -80.5 -77.499c28.667 -37.333 43 -72.333 43 -105c0 -56 -20.667 -100.667 -62 -134s-91 -50 -149 -50c-60 0 -116.333 15.5 -169 46.5s-79 65.833 -79 104.5
c0 21.333 7.83301 39.166 23.5 53.499s34.5 21.5 56.5 21.5c10 0 19.5 -3.16699 28.5 -9.5s17.333 -14.166 25 -23.499l24 -28c8.33301 -9.33301 18.833 -17.166 31.5 -23.499s26.334 -9.5 41.001 -9.5c18 0 34.667 5.16699 50 15.5s23 24.166 23 41.499
c0 9.33301 -2.33301 18 -7 26s-9.83398 14.667 -15.501 20s-14.834 11.166 -27.501 17.499s-23 11.166 -31 14.499s-20.667 8.16602 -38 14.499s-30 11.166 -38 14.499c-48.667 19.333 -87.167 42.333 -115.5 69s-42.5 64 -42.5 112c0 37.333 7.16699 69 21.5 95
s36.833 51.667 67.5 77c-16.667 18 -28.667 34.667 -36 50s-11 33.666 -11 54.999c0 58 21 103.833 63 137.5s93.667 50.5 155 50.5zM221.005 209.004l126 -53c34 20 51 44.333 51 73c0 30 -24.667 55 -74 75l-110 43c-29.333 -22 -44 -45.667 -44 -71
c0 -30 17 -52.333 51 -67z" />
    <glyph glyph-name="copyright" unicode="&#xa9;" horiz-adv-x="800" 
d="M536 389c-5.33301 0 -10 0.336914 -14 1.00391s-7.66699 2.16699 -11 4.5s-6 4 -8 5s-4.33301 3.5 -7 7.5l-5 7.5c-0.666992 1 -2.33398 4.33301 -5.00098 10s-4 8.83398 -4 9.50098c-16 25.333 -42.333 38 -79 38c-29.333 0 -51.833 -10.333 -67.5 -31
s-23.5 -49 -23.5 -85s7.83301 -64.333 23.5 -85s38.167 -31 67.5 -31c36.667 0 63 12.667 79 38c0.666992 1.33301 2 4.16602 4 8.49902s3.33301 7.16602 4 8.49902s2 3.66602 4 6.99902s3.66699 5.66602 5 6.99902s3.33301 3.16602 6 5.49902s5.5 4 8.5 5
s6.33301 1.83301 10 2.5s7.83398 1 12.501 1c16 -2.66699 26.667 -7.66699 32 -15s8 -20.333 8 -39c0 -25.333 -16.833 -51.5 -50.5 -78.5s-74.5 -40.5 -122.5 -40.5c-60.667 0 -109 19.333 -145 58s-54 88 -54 148s18 109.333 54 148s84.333 58 145 58
c48 0 88.833 -13.5 122.5 -40.5s50.5 -53.167 50.5 -78.5c0 -18.667 -2.66699 -31.667 -8 -39s-16 -12.333 -32 -15zM32 356.004c0 101.333 36 188 108 260s158.667 108 260 108s188 -36 260 -108s108 -158.667 108 -260s-36 -188 -108 -260s-158.667 -108 -260 -108
s-188 36 -260 108s-108 158.667 -108 260zM122 356.004c0 -77.333 27 -143 81 -197s119.667 -81 197 -81s143 27 197 81s81 119.667 81 197s-27 143 -81 197s-119.667 81 -197 81s-143 -27 -197 -81s-81 -119.667 -81 -197z" />
    <glyph glyph-name="guillemotleft" unicode="&#xab;" horiz-adv-x="500" 
d="M265 341l97 136.999c10 11.333 24.333 17 43 17c17.333 0 31.333 -5.33301 42 -16s16 -23.667 16 -39c0 -13.333 -3.66699 -26 -11 -38l-79 -121l79 -119c7.33301 -10.667 11 -22 11 -34c0 -18 -5.5 -33 -16.5 -45s-25.5 -18 -43.5 -18c-22 0 -38.667 8.33301 -50 25
l-103 159c-6 8.66699 -9 20.667 -9 36c0 14.667 8 33.334 24 56.001zM61 340.999l97 136.999c10 11.333 24.333 17 43 17c17.333 0 31.333 -5.33301 42 -16s16 -23.667 16 -39c0 -13.333 -3.66699 -26 -11 -38l-79 -121l79 -119c7.33301 -10.667 11 -22 11 -34
c0 -18 -5.5 -33 -16.5 -45s-25.5 -18 -43.5 -18c-22 0 -38.667 8.33301 -50 25l-103 159c-6 8.66699 -9 20.667 -9 36c0 14.667 8 33.334 24 56.001z" />
    <glyph glyph-name="logicalnot" unicode="&#xac;" horiz-adv-x="600" 
d="M95 425h410.001c18.667 0 33.334 -5.5 44.001 -16.5s16 -25.5 16 -43.5v-227c0 -18 -5.33301 -32.5 -16 -43.5s-25.334 -16.5 -44.001 -16.5s-33.334 5.5 -44.001 16.5s-16 25.5 -16 43.5v167h-350c-18.667 0 -33.334 5.5 -44.001 16.5s-16 25.5 -16 43.5
s5.33301 32.5 16 43.5s25.334 16.5 44.001 16.5z" />
    <glyph glyph-name="registered" unicode="&#xae;" horiz-adv-x="800" 
d="M342 316l0.000976562 -118.005c0 -32 -15 -48 -45 -48c-16.667 0 -28.334 3.83301 -35.001 11.5s-10 19.834 -10 36.501v309c0 28 15.333 42 46 42h113c99.333 0 149 -39 149 -117c0 -70 -33.333 -106.667 -100 -110l71 -116c4 -6.66699 6 -13.667 6 -21
c0 -23.333 -15.667 -35 -47 -35c-3.33301 0 -6.5 0.166992 -9.5 0.5s-6 1.33301 -9 3s-5.33301 2.83398 -7 3.50098s-3.83398 2.33398 -6.50098 5.00098l-5.5 5.5c-1 1 -2.66699 3.5 -5 7.5s-3.66602 6.33301 -3.99902 7s-1.83301 3.33398 -4.5 8.00098
s-4 7.33398 -4 8.00098l-63 118h-30zM342.001 387.995l75 0.000976562c18 0 31.333 3.16699 40 9.5s13 17.833 13 34.5c0 17.333 -4.33301 29.166 -13 35.499s-22 9.5 -40 9.5h-75v-89zM32.001 355.996c0 101.333 36 188 108 260s158.667 108 260 108s188 -36 260 -108
s108 -158.667 108 -260s-36 -188 -108 -260s-158.667 -108 -260 -108s-188 36 -260 108s-108 158.667 -108 260zM122.001 355.996c0 -77.333 27 -143 81 -197s119.667 -81 197 -81s143 27 197 81s81 119.667 81 197s-27 143 -81 197s-119.667 81 -197 81s-143 -27 -197 -81
s-81 -119.667 -81 -197z" />
    <glyph glyph-name="degree" unicode="&#xb0;" horiz-adv-x="400" 
d="M117 563c0 -22.667 8.16699 -42.167 24.5 -58.5s35.833 -24.5 58.5 -24.5s42.167 8.16699 58.5 24.5s24.5 35.833 24.5 58.5s-8.16699 42.167 -24.5 58.5s-35.833 24.5 -58.5 24.5s-42.167 -8.16699 -58.5 -24.5s-24.5 -35.833 -24.5 -58.5zM39 563
c0 44.667 15.667 82.667 47 114s69.333 47 114 47s82.667 -15.667 114 -47s47 -69.333 47 -114s-15.667 -82.667 -47 -114s-69.333 -47 -114 -47s-82.667 15.667 -114 47s-47 69.333 -47 114z" />
    <glyph glyph-name="plusminus" unicode="&#xb1;" horiz-adv-x="600" 
d="M240 394v64c0 18 5.33301 32.5 16 43.5s25.334 16.5 44.001 16.5s33.334 -5.5 44.001 -16.5s16 -25.5 16 -43.5v-64h145c18.667 0 33.334 -5.5 44.001 -16.5s16 -25.5 16 -43.5s-5.33301 -32.5 -16 -43.5s-25.334 -16.5 -44.001 -16.5h-145v-64
c0 -18 -5.33301 -32.5 -16 -43.5s-25.334 -16.5 -44.001 -16.5s-33.334 5.5 -44.001 16.5s-16 25.5 -16 43.5v64h-145c-18.667 0 -33.334 5.5 -44.001 16.5s-16 25.5 -16 43.5s5.33301 32.5 16 43.5s25.334 16.5 44.001 16.5h145zM95 120h410
c18.667 0 33.334 -5.5 44.001 -16.5s16 -25.5 16 -43.5s-5.33301 -32.5 -16 -43.5s-25.334 -16.5 -44.001 -16.5h-410c-18.667 0 -33.334 5.5 -44.001 16.5s-16 25.5 -16 43.5s5.33301 32.5 16 43.5s25.334 16.5 44.001 16.5z" />
    <glyph glyph-name="mu" unicode="&#xb5;" horiz-adv-x="556" 
d="M41 -138l0.00195312 595.998c0 24 6.66699 43.333 20 58s30.666 22 51.999 22s38.666 -7.33301 51.999 -22s20 -34 20 -58v-257c0 -28.667 9.16699 -51.334 27.5 -68.001s40.166 -25 65.499 -25s47.166 8.33301 65.499 25s27.5 39.334 27.5 68.001v257
c0 24 6.66699 43.333 20 58s30.666 22 51.999 22s38.666 -7.33301 51.999 -22s20 -34 20 -58v-384c0 -24 -6.66699 -43.333 -20 -58s-30.666 -22 -51.999 -22s-38.666 6.33301 -51.999 19s-20 29.334 -20 50.001h-2c-10 -25.333 -23.667 -44.166 -41 -56.499
s-34.333 -18.5 -51 -18.5c-15.333 0 -31.833 4.83301 -49.5 14.5s-31.167 21.5 -40.5 35.5h-2v-176c0 -24 -6.66699 -43.333 -20 -58s-30.666 -22 -51.999 -22s-38.666 7.33301 -51.999 22s-20 34 -20 58z" />
    <glyph glyph-name="mu" unicode="&#x3bc;" horiz-adv-x="556" 
d="M41 -138l0.00195312 595.998c0 24 6.66699 43.333 20 58s30.666 22 51.999 22s38.666 -7.33301 51.999 -22s20 -34 20 -58v-257c0 -28.667 9.16699 -51.334 27.5 -68.001s40.166 -25 65.499 -25s47.166 8.33301 65.499 25s27.5 39.334 27.5 68.001v257
c0 24 6.66699 43.333 20 58s30.666 22 51.999 22s38.666 -7.33301 51.999 -22s20 -34 20 -58v-384c0 -24 -6.66699 -43.333 -20 -58s-30.666 -22 -51.999 -22s-38.666 6.33301 -51.999 19s-20 29.334 -20 50.001h-2c-10 -25.333 -23.667 -44.166 -41 -56.499
s-34.333 -18.5 -51 -18.5c-15.333 0 -31.833 4.83301 -49.5 14.5s-31.167 21.5 -40.5 35.5h-2v-176c0 -24 -6.66699 -43.333 -20 -58s-30.666 -22 -51.999 -22s-38.666 7.33301 -51.999 22s-20 34 -20 58z" />
    <glyph glyph-name="paragraph" unicode="&#xb6;" horiz-adv-x="620" 
d="M238 -152l0.00292969 515c-72 0 -127.167 15 -165.5 45s-57.5 72 -57.5 126c0 66.667 21.5 113 64.5 139s103.5 39 181.5 39h254c18.667 0 33.334 -5.5 44.001 -16.5s16 -25.5 16 -43.5v-804c0 -18 -5.33301 -32.5 -16 -43.5s-25.334 -16.5 -44.001 -16.5
s-33.334 5.5 -44.001 16.5s-16 25.5 -16 43.5v774h-97v-774c0 -18 -5.33301 -32.5 -16 -43.5s-25.334 -16.5 -44.001 -16.5s-33.334 5.5 -44.001 16.5s-16 25.5 -16 43.5zM238.003 -152h120.002c0 -18 -5.33301 -32.5 -16 -43.5s-25.334 -16.5 -44.001 -16.5
s-33.334 5.5 -44.001 16.5s-16 25.5 -16 43.5z" />
    <glyph glyph-name="periodcentered" unicode="&#xb7;" horiz-adv-x="268" 
d="M134 359c21.333 0 39.666 -7.66602 54.999 -22.999s23 -33.666 23 -54.999c0 -22 -7.66699 -40.5 -23 -55.5s-33.666 -22.5 -54.999 -22.5s-39.666 7.66699 -54.999 23s-23 33.666 -23 54.999s7.66699 39.666 23 54.999s33.666 23 54.999 23z" />
    <glyph glyph-name="periodcentered" unicode="&#x2219;" horiz-adv-x="268" 
d="M134 359c21.333 0 39.666 -7.66602 54.999 -22.999s23 -33.666 23 -54.999c0 -22 -7.66699 -40.5 -23 -55.5s-33.666 -22.5 -54.999 -22.5s-39.666 7.66699 -54.999 23s-23 33.666 -23 54.999s7.66699 39.666 23 54.999s33.666 23 54.999 23z" />
    <glyph glyph-name="guillemotright" unicode="&#xbb;" horiz-adv-x="500" 
d="M252 158l79 123.001l-79 117c-7.33301 10.667 -11 22 -11 34c0 18 5.5 33 16.5 45s25.5 18 43.5 18c22 0 38.667 -8.33301 50 -25l103 -159c6 -8.66699 9 -20.667 9 -36c0 -14.667 -8 -33.334 -24 -56.001l-97 -137c-10 -11.333 -24.333 -17 -43 -17
c-17.333 0 -31.333 5.33301 -42 16s-16 23.667 -16 39c0 13.333 3.66699 26 11 38zM48 158.001l79 123.001l-79 117c-7.33301 10.667 -11 22 -11 34c0 18 5.5 33 16.5 45s25.5 18 43.5 18c22 0 38.667 -8.33301 50 -25l103 -159c6 -8.66699 9 -20.667 9 -36
c0 -14.667 -8 -33.334 -24 -56.001l-97 -137c-10 -11.333 -24.333 -17 -43 -17c-17.333 0 -31.333 5.33301 -42 16s-16 23.667 -16 39c0 13.333 3.66699 26 11 38z" />
    <glyph glyph-name="divide" unicode="&#xf7;" horiz-adv-x="600" 
d="M95 313h410c18.667 0 33.334 -5.5 44.001 -16.5s16 -25.5 16 -43.5s-5.33301 -32.5 -16 -43.5s-25.334 -16.5 -44.001 -16.5h-410c-18.667 0 -33.334 5.5 -44.001 16.5s-16 25.5 -16 43.5s5.33301 32.5 16 43.5s25.334 16.5 44.001 16.5zM222 46
c0 21.333 7.66699 39.666 23 54.999s33.666 23 54.999 23s39.666 -7.66699 54.999 -23s23 -33.666 23 -54.999s-7.66699 -39.666 -23 -54.999s-33.666 -23 -54.999 -23s-39.666 7.66699 -54.999 23s-23 33.666 -23 54.999zM222 460c0 21.333 7.66699 39.666 23 54.999
s33.666 23 54.999 23s39.666 -7.66699 54.999 -23s23 -33.666 23 -54.999s-7.66699 -39.666 -23 -54.999s-33.666 -23 -54.999 -23s-39.666 7.66699 -54.999 23s-23 33.666 -23 54.999z" />
    <glyph glyph-name="florin" unicode="&#x192;" 
d="M221 423l28.998 151.001c18.667 100 73.667 150 165 150c65.333 0 98 -22.667 98 -68c0 -38.667 -26 -58 -78 -58c-24 0 -39.333 -18 -46 -54l-22 -121h35c22 0 39.167 -5.33301 51.5 -16s18.5 -26 18.5 -46c0 -23.333 -7.83301 -39.833 -23.5 -49.5
s-39.5 -14.5 -71.5 -14.5h-33l-63 -346c-10 -53.333 -28 -94.833 -54 -124.5s-64.667 -44.5 -116 -44.5c-64.667 0 -97 21.667 -97 65c0 11.333 2 21.166 6 29.499s8.5 14.5 13.5 18.5s11.833 7 20.5 9s15.334 3.16699 20.001 3.5s11 0.5 19 0.5
c22.667 0 37.667 20.667 45 62l61 327h-25c-22.667 0 -39.667 5.83301 -51 17.5s-17 26.167 -17 43.5c0 21.333 6.83301 37.5 20.5 48.5s31.834 16.5 54.501 16.5h40z" />
    <glyph glyph-name="afii10023" unicode="&#x401;" horiz-adv-x="463" 
d="M45 75l0.000976562 550.006c0 26 6.66699 47 20 63s32.666 24 57.999 24h248c22.667 0 40.167 -6.83301 52.5 -20.5s18.5 -29.834 18.5 -48.501s-6.33301 -34.834 -19 -48.501s-30 -20.5 -52 -20.5h-176v-146h164c23.333 0 41.333 -6.83301 54 -20.5
s19 -29.834 19 -48.501s-6.5 -34.834 -19.5 -48.501s-30.833 -20.5 -53.5 -20.5h-164v-152h185c22.667 0 40.167 -6.83301 52.5 -20.5s18.5 -29.834 18.5 -48.501s-6.33301 -34.834 -19 -48.501s-30 -20.5 -52 -20.5h-258c-22 0 -40.333 7 -55 21s-22 32 -22 54z
M270.001 837.006c0 20 7 37 21 51s31 21 51 21s37 -7 51 -21s21 -31 21 -51s-7 -37 -21 -51s-31 -21 -51 -21s-37 7 -51 21s-21 31 -21 51zM50.001 837.006c0 20 7 37 21 51s31 21 51 21s37 -7 51 -21s21 -31 21 -51s-7 -37 -21 -51s-31 -21 -51 -21s-37 7 -51 21
s-21 31 -21 51z" />
    <glyph glyph-name="afii10051" unicode="&#x402;" horiz-adv-x="655" 
d="M492 198c0 86.667 -41.667 129.999 -125 129.999h-52v-256c0 -24.667 -7 -43.834 -21 -57.501s-32 -20.5 -54 -20.5s-40 6.83301 -54 20.5s-21 32.834 -21 57.501v502h-109c-22.667 0 -39.667 6.83301 -51 20.5s-17 29.834 -17 48.501s6.16699 34.834 18.5 48.501
s28.833 20.5 49.5 20.5h368c20.667 0 37.167 -6.83301 49.5 -20.5s18.5 -29.834 18.5 -48.501s-5.66699 -34.834 -17 -48.501s-28.333 -20.5 -51 -20.5h-109v-108h62c79.333 0 143.833 -21.667 193.5 -65s74.5 -101.666 74.5 -174.999c0 -94 -15.833 -176.167 -47.5 -246.5
s-85.167 -133.833 -160.5 -190.5c-7.33301 -6 -17 -9 -29 -9c-19.333 0 -37 6 -53 18s-24 28 -24 48c0 12 5.66699 26.333 17 43c10 14.667 26.333 36.834 49 66.501s40.667 55.167 54 76.5c18.667 29.333 30.167 54.666 34.5 75.999s6.5 51.333 6.5 90z" />
    <glyph glyph-name="afii10052" unicode="&#x403;" horiz-adv-x="444" 
d="M148 877l117.998 48.001c16.667 6.66699 29.334 10 38.001 10c14 0 26.5 -6.66699 37.5 -20s16.5 -27.333 16.5 -42c0 -28.667 -13.667 -48.334 -41 -59.001l-112 -44c-23.333 -6.66699 -36.666 -10 -39.999 -10c-14.667 0 -27.167 7.66699 -37.5 23s-15.5 32 -15.5 50
c0 16.667 9.33301 30 28 40zM44.998 72.001v562.003c0 21.333 7 39.666 21 54.999s33 23 57 23h256c20.667 0 37 -6.83301 49 -20.5s18 -29.834 18 -48.501s-5.83301 -34.834 -17.5 -48.501s-28.167 -20.5 -49.5 -20.5h-184v-502c0 -24.667 -7 -43.834 -21 -57.501
s-32 -20.5 -54 -20.5s-40 6.83301 -54 20.5s-21 32.834 -21 57.501z" />
    <glyph glyph-name="afii10053" unicode="&#x404;" horiz-adv-x="611" 
d="M594 106c0 -22.667 -8.00488 -42.1621 -24.0049 -58.4951s-36.5 -28.5 -61.5 -36.5s-49.167 -13.833 -72.5 -17.5s-45.666 -5.5 -66.999 -5.5c-100.667 0 -183.167 35.167 -247.5 105.5s-96.5 157.833 -96.5 262.5c0 105.333 32.167 193 96.5 263s146.833 105 247.5 105
c20.667 0 42.334 -1.83301 65.001 -5.5s45.834 -9.33398 69.501 -17.001s43 -19.334 58 -35.001s22.5 -33.834 22.5 -54.501c0 -18.667 -5.83301 -34.5 -17.5 -47.5s-26.5 -19.5 -44.5 -19.5c-10 0 -30.167 5.83301 -60.5 17.5s-61.166 17.5 -92.499 17.5
c-47.333 0 -86.166 -13.833 -116.499 -41.5s-51.166 -64.5 -62.499 -110.5h205c23.333 0 41.333 -6.83301 54 -20.5s19 -29.834 19 -48.501s-6.5 -34.834 -19.5 -48.501s-30.833 -20.5 -53.5 -20.5h-208c10.667 -47.333 31.667 -85.5 63 -114.5s71 -43.5 119 -43.5
c31.333 0 63.166 7 95.499 21s53.5 21 63.5 21c20 0 36 -7.66699 48 -23s18 -30.333 18 -45z" />
    <glyph glyph-name="afii10054" unicode="&#x405;" horiz-adv-x="537" 
d="M270 724c23.333 0 48.833 -2.5 76.5 -7.5s54.5 -15.667 80.5 -32s39 -36.5 39 -60.5c0 -20 -6.16699 -37.333 -18.5 -52s-28.5 -22 -48.5 -22c-12 0 -31.833 5 -59.5 15s-52.167 15 -73.5 15c-22.667 0 -42 -5.83301 -58 -17.5s-24 -27.5 -24 -47.5
c0 -18.667 11.5 -33.667 34.5 -45s50.833 -21.333 83.5 -30s65.334 -19.834 98.001 -33.501s60.5 -36.167 83.5 -67.5s34.5 -71 34.5 -119c0 -69.333 -24.833 -125.333 -74.5 -168s-110.167 -64 -181.5 -64c-23.333 0 -47.166 1.5 -71.499 4.5s-50.333 8.16699 -78 15.5
s-50.167 19 -67.5 35s-26 35 -26 57c0 20 6.16699 36.833 18.5 50.5s28.5 20.5 48.5 20.5c14 0 39.667 -6.5 77 -19.5s67.666 -19.5 90.999 -19.5c32 0 57 8 75 24s27 36.667 27 62c0 21.333 -11.5 38.5 -34.5 51.5s-50.833 23.667 -83.5 32s-65.334 18.5 -98.001 30.5
s-60.5 31.833 -83.5 59.5s-34.5 62.834 -34.5 105.501c0 68 24.167 122.833 72.5 164.5s106.833 62.5 175.5 62.5z" />
    <glyph glyph-name="afii10055" unicode="&#x406;" horiz-adv-x="240" 
d="M45 72v568c0 24.667 7 43.834 21 57.501s32 20.5 54 20.5s40 -6.83301 54 -20.5s21 -32.834 21 -57.501v-568c0 -24.667 -7 -43.834 -21 -57.501s-32 -20.5 -54 -20.5s-40 6.83301 -54 20.5s-21 32.834 -21 57.501z" />
    <glyph glyph-name="afii10056" unicode="&#x407;" horiz-adv-x="240" 
d="M45 72v568c0 24.667 7 43.834 21 57.501s32 20.5 54 20.5s40 -6.83301 54 -20.5s21 -32.834 21 -57.501v-568c0 -24.667 -7 -43.834 -21 -57.501s-32 -20.5 -54 -20.5s-40 6.83301 -54 20.5s-21 32.834 -21 57.501zM158 837c0 20 7 37 21 51s31 21 51 21s37 -7 51 -21
s21 -31 21 -51s-7 -37 -21 -51s-31 -21 -51 -21s-37 7 -51 21s-21 31 -21 51zM-62 837c0 20 7 37 21 51s31 21 51 21s37 -7 51 -21s21 -31 21 -51s-7 -37 -21 -51s-31 -21 -51 -21s-37 7 -51 21s-21 31 -21 51z" />
    <glyph glyph-name="afii10057" unicode="&#x408;" horiz-adv-x="407" 
d="M368 640l0.00195312 -440.001c0 -40 -5.83301 -74.5 -17.5 -103.5s-27.667 -51 -48 -66s-41.333 -25.833 -63 -32.5s-44.834 -10 -69.501 -10c-18.667 0 -38 2 -58 6s-39.833 10 -59.5 18s-35.667 19.833 -48 35.5s-18.5 33.834 -18.5 54.501
c0 14.667 5.5 28.5 16.5 41.5s24.167 19.5 39.5 19.5c12.667 0 32 -6.16699 58 -18.5s46.667 -18.5 62 -18.5c13.333 0 24.166 2.66699 32.499 8s14 13 17 23s4.83301 18.5 5.5 25.5s1 16.167 1 27.5v430c0 24.667 7 43.834 21 57.501s32 20.5 54 20.5s40 -6.83301 54 -20.5
s21 -32.834 21 -57.501z" />
    <glyph glyph-name="afii10058" unicode="&#x409;" horiz-adv-x="1024" 
d="M1012 222c0 -69.333 -21.166 -123.666 -63.499 -162.999s-98.5 -59 -168.5 -59h-191c-24 0 -43.333 6 -58 18s-22 30 -22 54v508h-198v-224c0 -62 -9.16699 -121.167 -27.5 -177.5s-46.5 -100.833 -84.5 -133.5c-40 -34 -79.667 -51 -119 -51
c-22.667 0 -39.667 6.83301 -51 20.5s-17 29.834 -17 48.501c0 16.667 4.33301 30.167 13 40.5s23 20.166 43 29.499c25.333 11.333 47.166 33.333 65.499 66s27.5 75 27.5 127v308c0 24 7 43 21 57s32 21 54 21h348c22 0 40 -6.83301 54 -20.5s21 -32.834 21 -57.501v-194
h103c76 0 136.667 -18.333 182 -55s68 -91 68 -163zM856.001 224c0 24.667 -9.16699 44.833 -27.5 60.5s-44.5 23.5 -78.5 23.5h-91v-176h103c27.333 0 49.833 8.5 67.5 25.5s26.5 39.167 26.5 66.5z" />
    <glyph glyph-name="afii10059" unicode="&#x40a;" horiz-adv-x="1024" 
d="M1012 222c0 -69.333 -21.167 -123.667 -63.5 -163s-98.5 -59 -168.5 -59h-191c-24 0 -43.333 6 -58 18s-22 30 -22 54v218h-314v-218c0 -24.667 -7 -43.834 -21 -57.501s-32 -20.5 -54 -20.5s-40 6.83301 -54 20.5s-21 32.834 -21 57.501v568
c0 24.667 7 43.834 21 57.501s32 20.5 54 20.5s40 -6.83301 54 -20.5s21 -32.834 21 -57.501v-212h314v212c0 24.667 7 43.834 21 57.501s32 20.5 54 20.5s40 -6.83301 54 -20.5s21 -32.834 21 -57.501v-200h103c76 0 136.667 -18.333 182 -55s68 -91 68 -163zM856 223.999
c0 24.667 -9.16699 44.833 -27.5 60.5s-44.5 23.5 -78.5 23.5h-91v-176h103c27.333 0 49.833 8.5 67.5 25.5s26.5 39.167 26.5 66.5z" />
    <glyph glyph-name="afii10060" unicode="&#x40b;" horiz-adv-x="667" 
d="M645 72c0 -24.667 -7 -43.834 -21 -57.501s-32 -20.5 -54 -20.5s-40 6.83301 -54 20.5s-21 32.834 -21 57.501v146c0 34 -11.667 60.833 -35 80.5s-54.333 29.5 -93 29.5h-52v-256c0 -24.667 -7 -43.834 -21 -57.501s-32 -20.5 -54 -20.5s-40 6.83301 -54 20.5
s-21 32.834 -21 57.501v502h-109c-22.667 0 -39.667 6.83301 -51 20.5s-17 29.834 -17 48.501s6.16699 34.834 18.5 48.501s28.833 20.5 49.5 20.5h368c20.667 0 37.167 -6.83301 49.5 -20.5s18.5 -29.834 18.5 -48.501s-5.66699 -34.834 -17 -48.501
s-28.333 -20.5 -51 -20.5h-109v-108h62c80.667 0 145.5 -21 194.5 -63s73.5 -101 73.5 -177v-154z" />
    <glyph glyph-name="afii10061" unicode="&#x40c;" horiz-adv-x="611" 
d="M228 877l117.998 48.001c16.667 6.66699 29.334 10 38.001 10c14 0 26.5 -6.66699 37.5 -20s16.5 -27.333 16.5 -42c0 -28.667 -13.667 -48.334 -41 -59.001l-112 -44c-23.333 -6.66699 -36.666 -10 -39.999 -10c-14.667 0 -27.167 7.66699 -37.5 23s-15.5 32 -15.5 50
c0 16.667 9.33301 30 28 40zM44.998 66.001l0.000976562 578.001c0 20.667 7 38.167 21 52.5s32 21.5 54 21.5s40 -6.66699 54 -20s21 -31.333 21 -54v-216l246 262c17.333 18.667 36.666 28 57.999 28c20 0 37.333 -6.83301 52 -20.5s22 -30.834 22 -51.501
s-16.333 -47.334 -49 -80.001l-189 -186l231 -241c28 -29.333 42 -54.666 42 -75.999c0 -22 -7.5 -39 -22.5 -51s-33.5 -18 -55.5 -18c-13.333 0 -25.333 3.66699 -36 11s-24 19.333 -40 36l-259 280v-255c0 -20 -7 -37 -21 -51s-32 -21 -54 -21s-40 6.5 -54 19.5
s-21 30.5 -21 52.5z" />
    <glyph glyph-name="afii10062" unicode="&#x40e;" horiz-adv-x="536" 
d="M98 859c0 16 3.66699 30.0039 11 42.0039s18.666 18 33.999 18c12.667 0 23 -2.33301 31 -7s14 -10.334 18 -17.001s8.33301 -13.334 13 -20.001s11.834 -12.334 21.501 -17.001s22.167 -7 37.5 -7c19.333 0 34.833 3.5 46.5 10.5s19.5 14.833 23.5 23.5s11 16.5 21 23.5
s23 10.5 39 10.5c12 0 22.5 -6.5 31.5 -19.5s13.5 -26.5 13.5 -40.5c0 -33.333 -17.667 -59 -53 -77s-76 -27 -122 -27c-26.667 0 -52 3.33301 -76 10s-45 18.167 -63 34.5s-27 36.166 -27 59.499zM535 646.004c0 -10 -2.66699 -21.335 -8 -34.002l-263 -574
c-14 -29.333 -35.333 -44 -64 -44c-20.667 0 -39.167 6.83301 -55.5 20.5s-24.5 30.834 -24.5 51.501c0 10 2.66699 21.333 8 34l58 127l-186 384c-5.33301 10.667 -8 22.334 -8 35.001c0 20 8.16699 37 24.5 51s34.833 21 55.5 21c28.667 0 50 -14.667 64 -44l132 -269
l123 269c13.333 29.333 35.333 44 66 44c20 0 38 -7 54 -21s24 -31 24 -51z" />
    <glyph glyph-name="afii10145" unicode="&#x40f;" horiz-adv-x="704" 
d="M274 0h-154c-22 0 -40 7 -54 21s-21 33 -21 57v562c0 24.667 7 43.834 21 57.501s32 20.5 54 20.5s40 -6.83301 54 -20.5s21 -32.834 21 -57.501v-508h314v508c0 24.667 7 43.834 21 57.501s32 20.5 54 20.5s40 -6.83301 54 -20.5s21 -32.834 21 -57.501v-562
c0 -24 -7 -43 -21 -57s-32 -21 -54 -21h-160v-112c0 -24.667 -7 -43.834 -21 -57.501s-32 -20.5 -54 -20.5s-40 6.83301 -54 20.5s-21 32.834 -21 57.501v112z" />
    <glyph glyph-name="afii10017" unicode="&#x410;" horiz-adv-x="630" 
d="M9 97l200.999 543.999c8.66699 24 22.5 43.833 41.5 59.5s40.833 23.5 65.5 23.5c25.333 0 47.333 -7.5 66 -22.5s32.334 -35.167 41.001 -60.5l196 -544c5.33301 -14 8 -26.333 8 -37c0 -19.333 -6.83301 -35.166 -20.5 -47.499s-29.834 -18.5 -48.501 -18.5
c-37.333 0 -61.666 17.333 -72.999 52l-30 94h-278l-30 -93c-11.333 -35.333 -35.333 -53 -72 -53c-20 0 -37.333 6.66699 -52 20s-22 30 -22 50c0 10.667 2.33301 21.667 7 33zM315.999 567.999l-95 -290h190l-93 290h-2z" />
    <glyph glyph-name="afii10018" unicode="&#x411;" 
d="M195 298v-165.999h118c28 0 50.667 7.66699 68 23s26 36.666 26 63.999c0 24 -9.16699 43.167 -27.5 57.5s-44.5 21.5 -78.5 21.5h-106zM563 217.001c0 -69.333 -21 -122.83 -63 -160.497s-98.333 -56.5 -169 -56.5h-206c-23.333 0 -42.5 6.83301 -57.5 20.5
s-22.5 32.167 -22.5 55.5v561c0 23.333 7.33301 41.666 22 54.999s33.667 20 57 20h298c22.667 0 40.167 -6.83301 52.5 -20.5s18.5 -29.834 18.5 -48.501s-6.33301 -34.834 -19 -48.501s-30 -20.5 -52 -20.5h-227v-144h118c76.667 0 137.5 -17.5 182.5 -52.5
s67.5 -88.5 67.5 -160.5z" />
    <glyph glyph-name="afii10019" unicode="&#x412;" 
d="M45 76v561.001c0 23.333 7.33301 41.666 22 54.999s33.667 20 57 20h192c53.333 0 98 -16.333 134 -49s54 -75 54 -127c0 -68.667 -31 -117.667 -93 -147v-2c42.667 -6 78.667 -25 108 -57s44 -69.667 44 -113c0 -69.333 -21 -122.833 -63 -160.5
s-98.333 -56.5 -169 -56.5h-206c-23.333 -0 -42.5 6.83301 -57.5 20.5s-22.5 32.167 -22.5 55.5zM195 580.001l-0.00195312 -150h78c24.667 0 44.334 7 59.001 21s22 33.333 22 58c0 22.667 -7.66699 40.167 -23 52.5s-34.666 18.5 -57.999 18.5h-78zM194.998 298.001
v-165.999h118c28 0 50.667 7.66699 68 23s26 36.666 26 63.999c0 24 -9.16699 43.167 -27.5 57.5s-44.5 21.5 -78.5 21.5h-106z" />
    <glyph glyph-name="afii10020" unicode="&#x413;" horiz-adv-x="444" 
d="M45 72v562.003c0 21.333 7 39.666 21 54.999s33 23 57 23h256c20.667 0 37 -6.83301 49 -20.5s18 -29.834 18 -48.501s-5.83301 -34.834 -17.5 -48.501s-28.167 -20.5 -49.5 -20.5h-184v-502c0 -24.667 -7 -43.834 -21 -57.501s-32 -20.5 -54 -20.5s-40 6.83301 -54 20.5
s-21 32.834 -21 57.501z" />
    <glyph glyph-name="afii10021" unicode="&#x414;" horiz-adv-x="734" 
d="M729 -84c0 -24.667 -6.99902 -43.834 -20.999 -57.501s-32 -20.5 -54 -20.5s-40 6.83301 -54 20.5s-21 32.834 -21 57.501v84h-424v-84c0 -24.667 -7 -43.834 -21 -57.501s-32 -20.5 -54 -20.5s-40 6.83301 -54 20.5s-21 32.834 -21 57.501v138c0 24 7.16699 43 21.5 57
s32.166 21 53.499 21c14.667 0 30.167 40.667 46.5 122s24.5 155.333 24.5 222v158c0 24 7 43 21 57s32 21 54 21h338c22 0 40 -7 54 -21s21 -33 21 -57v-502h15c22 0 40 -7 54 -21s21 -33 21 -57v-138zM489.001 132v447.999h-188v-94c0 -60 -5.66699 -125.167 -17 -195.5
s-25 -123.166 -41 -158.499h246z" />
    <glyph glyph-name="afii10022" unicode="&#x415;" horiz-adv-x="463" 
d="M45 75l0.000976562 550.006c0 26 6.66699 47 20 63s32.666 24 57.999 24h248c22.667 0 40.167 -6.83301 52.5 -20.5s18.5 -29.834 18.5 -48.501s-6.33301 -34.834 -19 -48.501s-30 -20.5 -52 -20.5h-176v-146h164c23.333 0 41.333 -6.83301 54 -20.5
s19 -29.834 19 -48.501s-6.5 -34.834 -19.5 -48.501s-30.833 -20.5 -53.5 -20.5h-164v-152h185c22.667 0 40.167 -6.83301 52.5 -20.5s18.5 -29.834 18.5 -48.501s-6.33301 -34.834 -19 -48.501s-30 -20.5 -52 -20.5h-258c-22 0 -40.333 7 -55 21s-22 32 -22 54z" />
    <glyph glyph-name="afii10024" unicode="&#x416;" horiz-adv-x="980" 
d="M978 63c0 -22 -7.49805 -39 -22.498 -51s-33.5 -18 -55.5 -18c-13.333 0 -25.333 3.66699 -36 11s-24 19.333 -40 36l-259 280v-255c0 -20 -7 -37 -21 -51s-32 -21 -54 -21s-40 6.5 -54 19.5s-21 30.5 -21 52.5v255l-259 -280c-16 -16.667 -29.333 -28.667 -40 -36
s-22.667 -11 -36 -11c-22 0 -40.5 6 -55.5 18s-22.5 29 -22.5 51c0 21.333 14 46.666 42 75.999l231 241l-189 186c-32.667 32.667 -49 59.334 -49 80.001s7.33301 37.834 22 51.501s32 20.5 52 20.5c21.333 0 40.666 -9.33301 57.999 -28l246 -262v216
c0 20.667 7 38.167 21 52.5s32 21.5 54 21.5s40 -6.66699 54 -20s21 -31.333 21 -54v-216l246 262c17.333 18.667 36.666 28 57.999 28c20 0 37.333 -6.83301 52 -20.5s22 -30.834 22 -51.501s-16.333 -47.334 -49 -80.001l-189 -186l231 -241
c28 -29.333 42 -54.666 42 -75.999z" />
    <glyph glyph-name="afii10025" unicode="&#x417;" horiz-adv-x="537" 
d="M12 106c0 20 6.16602 36.834 18.499 50.501s28.5 20.5 48.5 20.5c12 0 34.667 -8.5 68 -25.5s67 -25.5 101 -25.5c26 0 48.167 9 66.5 27s27.5 40 27.5 66c0 18 -2.66699 32.833 -8 44.5s-13.666 20.5 -24.999 26.5s-21.333 10.167 -30 12.5s-21 4.5 -37 6.5
c-17.333 2.66699 -30.833 5.5 -40.5 8.5s-18.667 9.16699 -27 18.5s-12.5 22 -12.5 38c0 9.33301 1.5 17.666 4.5 24.999s6 13 9 17s8.5 7.83301 16.5 11.5s13.667 6.16699 17 7.5s10.833 3.33301 22.5 6s18.5 4.33398 20.5 5.00098c41.333 11.333 62 35.666 62 72.999
c0 19.333 -6.5 35.333 -19.5 48s-30.5 19 -52.5 19c-26 0 -54 -7 -84 -21s-50.667 -21 -62 -21c-20 0 -36.167 7.33301 -48.5 22s-18.5 32 -18.5 52c0 18.667 7.66699 35.167 23 49.5s35 25.5 59 33.5s48 13.833 72 17.5s46.667 5.5 68 5.5
c68.667 0 121.334 -17.167 158.001 -51.5s55 -78.166 55 -131.499c0 -33.333 -7.33301 -63.833 -22 -91.5s-36.667 -48.167 -66 -61.5c38 -10 68.833 -32.167 92.5 -66.5s35.5 -71.833 35.5 -112.5c0 -62 -23.333 -114.333 -70 -157s-107.334 -64 -182.001 -64
c-22 0 -45.5 1.83301 -70.5 5.5s-50.833 9.66699 -77.5 18s-48.667 20.666 -66 36.999s-26 35.5 -26 57.5z" />
    <glyph glyph-name="afii10026" unicode="&#x418;" horiz-adv-x="704" 
d="M659 72c0 -24.667 -7 -43.834 -21 -57.501s-32 -20.5 -54 -20.5s-40 6.83301 -54 20.5s-21 32.834 -21 57.501v373h-2l-324 -418c-16.667 -22 -37.667 -33 -63 -33c-22 0 -40 6.83301 -54 20.5s-21 32.834 -21 57.501v568c0 24.667 7 43.834 21 57.501s32 20.5 54 20.5
s40 -6.83301 54 -20.5s21 -32.834 21 -57.501v-378h2l324 423c16.667 22 37.667 33 63 33c22 0 40 -6.83301 54 -20.5s21 -32.834 21 -57.501v-568z" />
    <glyph glyph-name="afii10027" unicode="&#x419;" horiz-adv-x="704" 
d="M659 72c0 -24.667 -7 -43.834 -21 -57.501s-32 -20.5 -54 -20.5s-40 6.83301 -54 20.5s-21 32.834 -21 57.501v373h-2l-324 -418c-16.667 -22 -37.667 -33 -63 -33c-22 0 -40 6.83301 -54 20.5s-21 32.834 -21 57.501v568c0 24.667 7 43.834 21 57.501s32 20.5 54 20.5
s40 -6.83301 54 -20.5s21 -32.834 21 -57.501v-378h2l324 423c16.667 22 37.667 33 63 33c22 0 40 -6.83301 54 -20.5s21 -32.834 21 -57.501v-568zM188 859c0 16 3.66699 30.0039 11 42.0039s18.666 18 33.999 18c12.667 0 23 -2.33301 31 -7s14 -10.334 18 -17.001
s8.33301 -13.334 13 -20.001s11.834 -12.334 21.501 -17.001s22.167 -7 37.5 -7c19.333 0 34.833 3.5 46.5 10.5s19.5 14.833 23.5 23.5s11 16.5 21 23.5s23 10.5 39 10.5c12 0 22.5 -6.5 31.5 -19.5s13.5 -26.5 13.5 -40.5c0 -33.333 -17.667 -59 -53 -77s-76 -27 -122 -27
c-26.667 0 -52 3.33301 -76 10s-45 18.167 -63 34.5s-27 36.166 -27 59.499z" />
    <glyph glyph-name="afii10028" unicode="&#x41a;" horiz-adv-x="611" 
d="M45 66l0.000976562 578.001c0 20.667 7 38.167 21 52.5s32 21.5 54 21.5s40 -6.66699 54 -20s21 -31.333 21 -54v-216l246 262c17.333 18.667 36.666 28 57.999 28c20 0 37.333 -6.83301 52 -20.5s22 -30.834 22 -51.501s-16.333 -47.334 -49 -80.001l-189 -186l231 -241
c28 -29.333 42 -54.666 42 -75.999c0 -22 -7.5 -39 -22.5 -51s-33.5 -18 -55.5 -18c-13.333 0 -25.333 3.66699 -36 11s-24 19.333 -40 36l-259 280v-255c0 -20 -7 -37 -21 -51s-32 -21 -54 -21s-40 6.5 -54 19.5s-21 30.5 -21 52.5z" />
    <glyph glyph-name="afii10029" unicode="&#x41b;" horiz-adv-x="704" 
d="M659 72c0 -24.667 -6.99902 -43.834 -20.999 -57.501s-32 -20.5 -54 -20.5s-40 6.83301 -54 20.5s-21 32.834 -21 57.501v508h-198v-224c0 -62 -9.16699 -121.167 -27.5 -177.5s-46.5 -100.833 -84.5 -133.5c-40 -34 -79.667 -51 -119 -51
c-22.667 0 -39.667 6.83301 -51 20.5s-17 29.834 -17 48.501c0 16.667 4.33301 30.167 13 40.5s23 20.166 43 29.499c25.333 11.333 47.166 33.333 65.499 66s27.5 75 27.5 127v308c0 24 7 43 21 57s32 21 54 21h348c22 0 40 -7 54 -21s21 -33 21 -57v-562z" />
    <glyph glyph-name="afii10030" unicode="&#x41c;" horiz-adv-x="870" 
d="M25 83l93.0059 558c3.33301 19.333 14.166 37 32.499 53s40.166 24 65.499 24c24 0 45.167 -7.16699 63.5 -21.5s30.5 -31.166 36.5 -50.499l118 -396h2l118 396c6 19.333 18.167 36.166 36.5 50.499s39.5 21.5 63.5 21.5c25.333 0 47.166 -8 65.499 -24
s29.166 -33.667 32.499 -53l93 -558c0.666992 -4 1 -9.66699 1 -17c0 -21.333 -6.83301 -38.666 -20.5 -51.999s-30.834 -20 -51.501 -20c-24.667 0 -43 5.66699 -55 17s-19.667 29 -23 53l-59 407h-2l-120 -419c-11.333 -38.667 -38 -58 -80 -58s-68.667 19.333 -80 58
l-120 419h-2l-59 -407c-3.33301 -24 -11 -41.667 -23 -53s-30.333 -17 -55 -17c-20.667 0 -37.834 6.66699 -51.501 20s-20.5 30.666 -20.5 51.999c0 7.33301 0.333008 13 1 17z" />
    <glyph glyph-name="afii10031" unicode="&#x41d;" horiz-adv-x="704" 
d="M45 72v568c0 24.667 7 43.834 21 57.501s32 20.5 54 20.5s40 -6.83301 54 -20.5s21 -32.834 21 -57.501v-212h314v212c0 24.667 7 43.834 21 57.501s32 20.5 54 20.5s40 -6.83301 54 -20.5s21 -32.834 21 -57.501v-568c0 -24.667 -7 -43.834 -21 -57.501
s-32 -20.5 -54 -20.5s-40 6.83301 -54 20.5s-21 32.834 -21 57.501v218h-314v-218c0 -24.667 -7 -43.834 -21 -57.501s-32 -20.5 -54 -20.5s-40 6.83301 -54 20.5s-21 32.834 -21 57.501z" />
    <glyph glyph-name="afii10032" unicode="&#x41e;" horiz-adv-x="722" 
d="M361 126c60.667 0 107.167 22 139.5 66s48.5 98.667 48.5 164c0 64.667 -16.5 119.167 -49.5 163.5s-79.167 66.5 -138.5 66.5s-105.5 -22.167 -138.5 -66.5s-49.5 -98.833 -49.5 -163.5c0 -65.333 16.167 -120 48.5 -164s78.833 -66 139.5 -66zM361 -12
c-100.667 0 -183.167 35.167 -247.5 105.5s-96.5 157.833 -96.5 262.5c0 105.333 32.167 193 96.5 263s146.833 105 247.5 105c99.333 0 181.5 -35.667 246.5 -107s97.5 -158.333 97.5 -261c0 -104.667 -32 -192.167 -96 -262.5s-146.667 -105.5 -248 -105.5z" />
    <glyph glyph-name="afii10033" unicode="&#x41f;" horiz-adv-x="704" 
d="M584 712c22 0 40 -7 54 -21s21 -33 21 -57v-562c0 -24.667 -7 -43.834 -21 -57.501s-32 -20.5 -54 -20.5s-40 6.83301 -54 20.5s-21 32.834 -21 57.501v508h-314v-508c0 -24.667 -7 -43.834 -21 -57.501s-32 -20.5 -54 -20.5s-40 6.83301 -54 20.5s-21 32.834 -21 57.501
v562c0 24 7 43 21 57s32 21 54 21h464z" />
    <glyph glyph-name="afii10034" unicode="&#x420;" horiz-adv-x="556" 
d="M45 72l-0.000976562 561.999c0 24 6.83301 43 20.5 57s32.834 21 57.501 21h177c74 0 135.167 -22.167 183.5 -66.5s72.5 -101.833 72.5 -172.5c0 -71.333 -24 -128.666 -72 -171.999s-107.333 -65 -178 -65h-111v-164c0 -24.667 -7 -43.834 -21 -57.501
s-32 -20.5 -54 -20.5s-40 6.83301 -54 20.5s-21 32.834 -21 57.501zM194.999 579.999v-212h102c30.667 0 55.5 10 74.5 30s28.5 45.333 28.5 76s-9.5 56 -28.5 76s-43.833 30 -74.5 30h-102z" />
    <glyph glyph-name="afii10035" unicode="&#x421;" horiz-adv-x="611" 
d="M17 356c0 105.333 32.1641 193.003 96.4971 263.003s146.833 105 247.5 105c20.667 0 42.334 -1.83301 65.001 -5.5s45.834 -9.33398 69.501 -17.001s43 -19.334 58 -35.001s22.5 -33.834 22.5 -54.501c0 -18.667 -5.83301 -34.5 -17.5 -47.5s-26.5 -19.5 -44.5 -19.5
c-10 0 -30.167 5.83301 -60.5 17.5s-61.166 17.5 -92.499 17.5c-59.333 0 -105.5 -21.667 -138.5 -65s-49.5 -97.333 -49.5 -162c0 -62.667 16.5 -115.167 49.5 -157.5s79.167 -63.5 138.5 -63.5c31.333 0 63.166 7 95.499 21s53.5 21 63.5 21c20 0 36 -7.66699 48 -23
s18 -30.333 18 -45c0 -22.667 -8 -42.167 -24 -58.5s-36.5 -28.5 -61.5 -36.5s-49.167 -13.833 -72.5 -17.5s-45.666 -5.5 -66.999 -5.5c-100.667 0 -183.167 35.167 -247.5 105.5s-96.5 157.833 -96.5 262.5z" />
    <glyph glyph-name="afii10036" unicode="&#x422;" horiz-adv-x="480" 
d="M165 72v502h-109c-22.667 0 -39.667 6.83301 -51 20.5s-17 29.834 -17 48.501s6.16699 34.834 18.5 48.501s28.833 20.5 49.5 20.5h368c20.667 0 37.167 -6.83301 49.5 -20.5s18.5 -29.834 18.5 -48.501s-5.66699 -34.834 -17 -48.501s-28.333 -20.5 -51 -20.5h-109v-502
c0 -24.667 -7 -43.834 -21 -57.501s-32 -20.5 -54 -20.5s-40 6.83301 -54 20.5s-21 32.834 -21 57.501z" />
    <glyph glyph-name="afii10037" unicode="&#x423;" horiz-adv-x="536" 
d="M535 646c0 -10 -2.66699 -21.335 -8 -34.002l-263 -574c-14 -29.333 -35.333 -44 -64 -44c-20.667 0 -39.167 6.83301 -55.5 20.5s-24.5 30.834 -24.5 51.501c0 10 2.66699 21.333 8 34l58 127l-186 384c-5.33301 10.667 -8 22.334 -8 35.001c0 20 8.16699 37 24.5 51
s34.833 21 55.5 21c28.667 0 50 -14.667 64 -44l132 -269l123 269c13.333 29.333 35.333 44 66 44c20 0 38 -7 54 -21s24 -31 24 -51z" />
    <glyph glyph-name="afii10038" unicode="&#x424;" horiz-adv-x="835" 
d="M819 359c0 -76.667 -24.335 -142 -73.002 -196s-109.667 -81 -183 -81c-23.333 0 -47 3.33301 -71 10v-20c0 -24.667 -7 -43.834 -21 -57.501s-32 -20.5 -54 -20.5s-40 6.83301 -54 20.5s-21 32.834 -21 57.501v20c-24 -6.66699 -47.667 -10 -71 -10
c-73.333 0 -134.333 27 -183 81s-73 119.333 -73 196c0 77.333 24.167 143 72.5 197s109.5 81 183.5 81c18.667 0 42.334 -2.66699 71.001 -8v11c0 24.667 7 43.834 21 57.501s32 20.5 54 20.5s40 -6.83301 54 -20.5s21 -32.834 21 -57.501v-11
c28.667 5.33301 52.334 8 71.001 8c74 0 135.167 -27 183.5 -81s72.5 -119.667 72.5 -197zM662.998 359c0 40.667 -13.5 74.167 -40.5 100.5s-59.167 39.5 -96.5 39.5c-10 0 -22.667 -2.33301 -38 -7v-264c16 -5.33301 28.667 -8 38 -8c38 0 70.333 12.833 97 38.5
s40 59.167 40 100.5zM345.998 228v264c-15.333 4.66699 -28 7 -38 7c-37.333 0 -69.5 -13.167 -96.5 -39.5s-40.5 -59.833 -40.5 -100.5c0 -41.333 13.333 -74.833 40 -100.5s59 -38.5 97 -38.5c9.33301 0 22 2.66699 38 8z" />
    <glyph glyph-name="afii10039" unicode="&#x425;" horiz-adv-x="612" 
d="M21 115l198 266l-162 220c-10.667 14 -16 28.667 -16 44c0 22 7.16699 39.667 21.5 53s32.5 20 54.5 20c26 0 47.667 -12.333 65 -37l124 -176l124 176c17.333 24.667 39 37 65 37c22 0 40.167 -6.66699 54.5 -20s21.5 -31 21.5 -53c0 -15.333 -5.33301 -30 -16 -44
l-162 -220l198 -266c11.333 -15.333 17 -32.333 17 -51c0 -20.667 -7.16699 -37.5 -21.5 -50.5s-32.5 -19.5 -54.5 -19.5c-25.333 0 -46 11 -62 33l-164 228l-164 -228c-16 -22 -36.667 -33 -62 -33c-22 0 -40.167 6.5 -54.5 19.5s-21.5 29.833 -21.5 50.5
c0 18.667 5.66699 35.667 17 51z" />
    <glyph glyph-name="afii10040" unicode="&#x426;" horiz-adv-x="754" 
d="M759 -84c0 -24.667 -7 -43.834 -21 -57.501s-32 -20.5 -54 -20.5s-40 6.83301 -54 20.5s-21 32.834 -21 57.501v84h-489c-22 0 -40 7 -54 21s-21 33 -21 57v562c0 24.667 7 43.834 21 57.501s32 20.5 54 20.5s40 -6.83301 54 -20.5s21 -32.834 21 -57.501v-508h314v508
c0 24.667 7 43.834 21 57.501s32 20.5 54 20.5s40 -6.83301 54 -20.5s21 -32.834 21 -57.501v-508h25c22 0 40 -7 54 -21s21 -33 21 -57v-138z" />
    <glyph glyph-name="afii10041" unicode="&#x427;" horiz-adv-x="630" 
d="M435 384l0.000976562 255.999c0 24.667 7 43.834 21 57.501s32 20.5 54 20.5s40 -6.83301 54 -20.5s21 -32.834 21 -57.501v-568c0 -24.667 -7 -43.834 -21 -57.501s-32 -20.5 -54 -20.5s-40 6.83301 -54 20.5s-21 32.834 -21 57.501v174h-122
c-79.333 0 -145.5 22.333 -198.5 67s-79.5 102.334 -79.5 173.001v154c0 24.667 7 43.834 21 57.501s32 20.5 54 20.5s40 -6.83301 54 -20.5s21 -32.834 21 -57.501v-146c0 -33.333 13.167 -60 39.5 -80s59.166 -30 98.499 -30h112z" />
    <glyph glyph-name="afii10042" unicode="&#x428;" horiz-adv-x="1020" 
d="M120 0c-22 0 -40 7 -54 21s-21 33 -21 57v562c0 24.667 7 43.834 21 57.501s32 20.5 54 20.5s40 -6.83301 54 -20.5s21 -32.834 21 -57.501v-508h244v508c0 24.667 7 43.834 21 57.501s32 20.5 54 20.5s40 -6.83301 54 -20.5s21 -32.834 21 -57.501v-508h244v508
c0 24.667 7 43.834 21 57.501s32 20.5 54 20.5s40 -6.83301 54 -20.5s21 -32.834 21 -57.501v-562c0 -24 -7 -43 -21 -57s-32 -21 -54 -21h-788z" />
    <glyph glyph-name="afii10043" unicode="&#x429;" horiz-adv-x="1070" 
d="M1083 -84c0 -24.667 -7 -43.834 -21 -57.501s-32 -20.5 -54 -20.5s-40 6.83301 -54 20.5s-21 32.834 -21 57.501v84h-813c-22 0 -40 7 -54 21s-21 33 -21 57v562c0 24.667 7 43.834 21 57.501s32 20.5 54 20.5s40 -6.83301 54 -20.5s21 -32.834 21 -57.501v-508h244v508
c0 24.667 7 43.834 21 57.501s32 20.5 54 20.5s40 -6.83301 54 -20.5s21 -32.834 21 -57.501v-508h244v508c0 24.667 7 43.834 21 57.501s32 20.5 54 20.5s40 -6.83301 54 -20.5s21 -32.834 21 -57.501v-508h25c22 0 40 -7 54 -21s21 -33 21 -57v-138z" />
    <glyph glyph-name="afii10044" unicode="&#x42a;" horiz-adv-x="725" 
d="M355 308v-176.001h98c27.333 0 49.833 8.5 67.5 25.5s26.5 39.167 26.5 66.5c0 24.667 -9.16699 44.834 -27.5 60.501s-44.5 23.5 -78.5 23.5h-86zM205 573.999l-149 -0.00195312c-22.667 0 -39.667 6.83301 -51 20.5s-17 29.834 -17 48.501s6.16699 34.834 18.5 48.501
s28.833 20.5 49.5 20.5h224c22 0 40 -6.83301 54 -20.5s21 -32.834 21 -57.501v-194h98c76 0 136.667 -18.333 182 -55s68 -91 68 -163c0 -69.333 -21.167 -123.666 -63.5 -162.999s-98.5 -59 -168.5 -59h-186c-23.333 0 -42.5 6.83301 -57.5 20.5s-22.5 32.167 -22.5 55.5
v498z" />
    <glyph glyph-name="afii10045" unicode="&#x42b;" horiz-adv-x="825" 
d="M630 640c0 24.667 7 43.834 21 57.501s32 20.5 54 20.5s40 -6.83301 54 -20.5s21 -32.834 21 -57.501v-568c0 -24.667 -7 -43.834 -21 -57.501s-32 -20.5 -54 -20.5s-40 6.83301 -54 20.5s-21 32.834 -21 57.501v568zM195 308v-176.001h103
c27.333 0 49.833 8.5 67.5 25.5s26.5 39.167 26.5 66.5c0 24.667 -9.16699 44.834 -27.5 60.501s-44.5 23.5 -78.5 23.5h-91zM195 439.999l103 -0.000976562c76 0 136.667 -18.333 182 -55s68 -91 68 -163c0 -69.333 -21.167 -123.666 -63.5 -162.999s-98.5 -59 -168.5 -59
h-191c-23.333 0 -42.5 6.83301 -57.5 20.5s-22.5 32.167 -22.5 55.5v564c0 24.667 7 43.834 21 57.501s32 20.5 54 20.5s40 -6.83301 54 -20.5s21 -32.834 21 -57.501v-200z" />
    <glyph glyph-name="afii10046" unicode="&#x42c;" horiz-adv-x="556" 
d="M195 308v-176.001h103c27.333 0 49.833 8.5 67.5 25.5s26.5 39.167 26.5 66.5c0 24.667 -9.16699 44.834 -27.5 60.501s-44.5 23.5 -78.5 23.5h-91zM195 439.999l103 -0.000976562c76 0 136.667 -18.333 182 -55s68 -91 68 -163
c0 -69.333 -21.167 -123.666 -63.5 -162.999s-98.5 -59 -168.5 -59h-191c-23.333 0 -42.5 6.83301 -57.5 20.5s-22.5 32.167 -22.5 55.5v564c0 24.667 7 43.834 21 57.501s32 20.5 54 20.5s40 -6.83301 54 -20.5s21 -32.834 21 -57.501v-200z" />
    <glyph glyph-name="afii10047" unicode="&#x42d;" horiz-adv-x="611" 
d="M435 290l-208.005 -0.00488281c-22.667 0 -40.5 6.83301 -53.5 20.5s-19.5 29.834 -19.5 48.501s6.33301 34.834 19 48.501s30.667 20.5 54 20.5h205c-11.333 46 -32.166 82.833 -62.499 110.5s-69.166 41.5 -116.499 41.5c-31.333 0 -62.166 -5.83301 -92.499 -17.5
s-50.5 -17.5 -60.5 -17.5c-18 0 -32.833 6.5 -44.5 19.5s-17.5 28.833 -17.5 47.5c0 20.667 7.5 38.834 22.5 54.501s34.333 27.334 58 35.001s46.834 13.334 69.501 17.001s44.334 5.5 65.001 5.5c100.667 0 183.167 -35 247.5 -105s96.5 -157.667 96.5 -263
c0 -104.667 -32.167 -192.167 -96.5 -262.5s-146.833 -105.5 -247.5 -105.5c-21.333 0 -43.666 1.83301 -66.999 5.5s-47.5 9.5 -72.5 17.5s-45.5 20.167 -61.5 36.5s-24 35.833 -24 58.5c0 14.667 6 29.667 18 45s28 23 48 23c10 0 31.167 -7 63.5 -21
s64.166 -21 95.499 -21c48 0 87.667 14.5 119 43.5s52.333 67.167 63 114.5z" />
    <glyph glyph-name="afii10048" unicode="&#x42e;" horiz-adv-x="1000" 
d="M820 356c0 64.667 -16.5 119.167 -49.5 163.5s-79.167 66.5 -138.5 66.5s-105.5 -22.167 -138.5 -66.5s-49.5 -98.833 -49.5 -163.5c0 -65.333 16.167 -120 48.5 -164s78.833 -66 139.5 -66s107.167 22 139.5 66s48.5 98.667 48.5 164zM293 290h-98.001v-218
c0 -24.667 -7 -43.834 -21 -57.501s-32 -20.5 -54 -20.5s-40 6.83301 -54 20.5s-21 32.834 -21 57.501v568c0 24.667 7 43.834 21 57.501s32 20.5 54 20.5s40 -6.83301 54 -20.5s21 -32.834 21 -57.501v-212h99c14 87.333 51.667 158.5 113 213.5s136.333 82.5 225 82.5
c99.333 0 181.5 -35.667 246.5 -107s97.5 -158.333 97.5 -261c0 -104.667 -32 -192.167 -96 -262.5s-146.667 -105.5 -248 -105.5c-89.333 0 -164.666 28.167 -225.999 84.5s-99 128.833 -113 217.5z" />
    <glyph glyph-name="afii10049" unicode="&#x42f;" horiz-adv-x="556" 
d="M526 72c0 -24.667 -7 -43.834 -21 -57.501s-32 -20.5 -54 -20.5s-40 6.83301 -54 20.5s-21 32.834 -21 57.501v217h-2l-222 -269c-14.667 -17.333 -34 -26 -58 -26c-21.333 0 -39.166 7.83301 -53.499 23.5s-21.5 33.5 -21.5 53.5c0 15.333 6.66699 30 20 44l170 182
c-54 8.66699 -98.333 29.167 -133 61.5s-52 74.833 -52 127.5c0 76.667 21.667 133.5 65 170.5s104.666 55.5 183.999 55.5h176c24.667 0 43.667 -7 57 -21s20 -33 20 -57v-562zM376 397v177h-103c-28 0 -50.5 -7.66699 -67.5 -23s-25.5 -37 -25.5 -65
c0 -27.333 8.5 -49 25.5 -65s39.5 -24 67.5 -24h103z" />
    <glyph glyph-name="afii10065" unicode="&#x430;" horiz-adv-x="531" 
d="M161 160c0 -18 8.33203 -31.166 24.999 -39.499s37.334 -12.5 62.001 -12.5c72.667 0 109 36 109 108v23h-22h-42.5c-9.66699 0 -22.5 -0.666992 -38.5 -2s-28.5 -3.66602 -37.5 -6.99902s-18.333 -7.83301 -28 -13.5s-16.667 -13.334 -21 -23.001
s-6.5 -20.834 -6.5 -33.501zM356.999 47.001c-12 -18.667 -31.001 -33.167 -57.001 -43.5s-52 -15.5 -78 -15.5c-60 0 -108.167 14.833 -144.5 44.5s-54.5 72.167 -54.5 127.5c0 124.667 109.333 187 328 187v39c0 25.333 -21 38 -63 38c-24 0 -44.667 -4 -62 -12
s-31.666 -16.167 -42.999 -24.5s-22 -12.5 -32 -12.5c-20.667 0 -36.334 6 -47.001 18s-16 26.333 -16 43c0 28 22 53 66 75s88.667 33 134 33c66.667 0 117.834 -13.833 153.501 -41.5s53.5 -67.5 53.5 -119.5v-312c0 -21.333 -6.5 -39.5 -19.5 -54.5
s-29.833 -22.5 -50.5 -22.5c-18 0 -32.5 3.66699 -43.5 11s-19.167 21.333 -24.5 42z" />
    <glyph glyph-name="afii10066" unicode="&#x431;" horiz-adv-x="556" 
d="M536 254c0 -74 -23.999 -136.837 -71.999 -188.504s-110 -77.5 -186 -77.5c-60.667 0 -111.334 15.833 -152.001 47.5s-70 74.5 -88 128.5c-12 36 -18 91.667 -18 167c0 54 7.66699 107.833 23 161.5s34.666 91.834 57.999 114.501c18 17.333 34 30.666 48 39.999
s39.833 19.333 77.5 30s84.5 18.334 140.5 23.001c7.33301 0.666992 18.333 4.83398 33 12.501s26 11.5 34 11.5c18.667 0 34.334 -6.33301 47.001 -19s19 -26.667 19 -42c0 -21.333 -9.66699 -40.666 -29 -57.999s-46 -27 -80 -29
c-87.333 -4 -152.666 -17.333 -195.999 -40c-12 -6 -23.5 -16.667 -34.5 -32s-16.833 -29.333 -17.5 -42l3 -3c12.667 16.667 32.667 31.334 60 44.001s54.666 19 81.999 19c69.333 0 128 -26.833 176 -80.5s72 -116.167 72 -187.5zM392.001 258.996
c0 37.333 -9.83301 70.166 -29.5 98.499s-47.834 42.5 -84.501 42.5s-64.834 -14.167 -84.501 -42.5s-29.5 -61.166 -29.5 -98.499c0 -36.667 9.83301 -69 29.5 -97s47.834 -42 84.501 -42s64.834 14 84.501 42s29.5 60.333 29.5 97z" />
    <glyph glyph-name="afii10067" unicode="&#x432;" horiz-adv-x="521" 
d="M41 67l0.000976562 398.997c0 18 6.83301 33.5 20.5 46.5s29.834 19.5 48.501 19.5h193c40 0 73.333 -12.167 100 -36.5s40 -56.166 40 -95.499c0 -51.333 -23 -87.666 -69 -108.999v-2c32 -4.66699 59 -19 81 -43s33 -52 33 -84
c0 -51.333 -15.833 -91.166 -47.5 -119.499s-73.834 -42.5 -126.501 -42.5h-204c-18.667 0 -34.834 6.5 -48.501 19.5s-20.5 28.833 -20.5 47.5zM183.001 432.997l-0.00195312 -112h58c18.667 0 33.334 5.16699 44.001 15.5s16 24.833 16 43.5
c0 16.667 -5.66699 29.667 -17 39s-25.666 14 -42.999 14h-58zM182.999 222.997v-124h88c20.667 0 37.5 5.66699 50.5 17s19.5 27.333 19.5 48c0 18 -6.83301 32.333 -20.5 43s-33.167 16 -58.5 16h-79z" />
    <glyph glyph-name="afii10068" unicode="&#x433;" horiz-adv-x="410" 
d="M36 74l-0.00195312 394.999c0 17.333 6 32.166 18 44.499s27 18.5 45 18.5h242c20 0 36.5 -5.16699 49.5 -15.5s19.5 -26.166 19.5 -47.499s-6.5 -37.166 -19.5 -47.499s-29.5 -15.5 -49.5 -15.5h-161v-332c0 -24 -6.66699 -43.333 -20 -58s-30.666 -22 -51.999 -22
s-38.666 7.33301 -51.999 22s-20 34 -20 58z" />
    <glyph glyph-name="afii10069" unicode="&#x434;" horiz-adv-x="598" 
d="M600 -72c0 -24 -6.66699 -43.333 -20 -58s-30.666 -22 -51.999 -22s-38.666 7.33301 -51.999 22s-20 34 -20 58v72h-308v-72c0 -24 -6.66699 -43.333 -20 -58s-30.666 -22 -51.999 -22s-38.666 7.33301 -51.999 22s-20 34 -20 58v118c0 24 6.66699 43.333 20 58
s30.666 22 51.999 22h8c24 83.333 36 192 36 326c0 25.333 6.66699 45 20 59s30.666 21 51.999 21h256c21.333 0 38.666 -7.33301 51.999 -22s20 -34 20 -58v-326h8c21.333 0 38.666 -7.33301 51.999 -22s20 -34 20 -58v-118zM384 118l-0.000976562 297.999h-123
c-3.33301 -119.333 -15.666 -218.666 -36.999 -297.999h160z" />
    <glyph glyph-name="afii10070" unicode="&#x435;" horiz-adv-x="537" 
d="M464 218l-306.999 0.000976562c4.66699 -34 19.667 -59.833 45 -77.5s55.666 -26.5 90.999 -26.5c27.333 0 59 9.66699 95 29s58.667 29 68 29c15.333 0 29 -6.33301 41 -19s18 -27 18 -43c0 -30 -25.5 -57.833 -76.5 -83.5s-103.833 -38.5 -158.5 -38.5
c-80 0 -145 26 -195 78s-75 118.333 -75 199c0 75.333 24.5 140.666 73.5 195.999s110.5 83 184.5 83s135.667 -27.5 185 -82.5s74 -114.833 74 -179.5c0 -42.667 -21 -64 -63 -64zM154.001 314.001h229c-4 32.667 -16 59.167 -36 79.5s-46.333 30.5 -79 30.5
c-31.333 0 -57.333 -10.5 -78 -31.5s-32.667 -47.167 -36 -78.5z" />
    <glyph glyph-name="afii10072" unicode="&#x436;" horiz-adv-x="778" 
d="M777 62c0 -18.667 -6.5 -34.667 -19.5 -48s-29.167 -20 -48.5 -20c-18 0 -41 14.667 -69 44l-176 187h-2v-151c0 -24 -6.66699 -43.333 -20 -58s-30.666 -22 -51.999 -22s-38.666 7.33301 -51.999 22s-20 34 -20 58v151h-2l-176 -187c-28 -29.333 -51 -44 -69 -44
c-19.333 0 -35.5 6.66699 -48.5 20s-19.5 29.333 -19.5 48c0 20 6 36 18 48l175 169l-134 137c-18.667 20 -28 39 -28 57c0 16.667 5.83301 31.667 17.5 45s26.167 20 43.5 20c25.333 0 47 -10.333 65 -31l158 -181v132c0 24 6.66699 43.333 20 58s30.666 22 51.999 22
s38.666 -7.33301 51.999 -22s20 -34 20 -58v-132l158 181c18 20.667 39.667 31 65 31c17.333 0 31.833 -6.66699 43.5 -20s17.5 -28.333 17.5 -45c0 -18 -9.33301 -37 -28 -57l-134 -137l175 -169c12 -12 18 -28 18 -48z" />
    <glyph glyph-name="afii10073" unicode="&#x437;" horiz-adv-x="443" 
d="M418 155c0 -47.333 -17.167 -86.9961 -51.5 -118.996s-81.5 -48 -141.5 -48c-53.333 0 -100.833 10.5 -142.5 31.5s-62.5 47.167 -62.5 78.5c0 13.333 5.83301 27.333 17.5 42s26.5 22 44.5 22c17.333 0 38 -8 62 -24s47.667 -24 71 -24
c19.333 0 34.666 4.16699 45.999 12.5s17 20.166 17 35.499c0 22 -6.66699 37.833 -20 47.5s-28.166 14.667 -44.499 15s-31.166 4.5 -44.499 12.5s-20 22 -20 42c0 18 5.66699 31.167 17 39.5s23.666 13.166 36.999 14.499s25.666 5.83301 36.999 13.5s17 19.834 17 36.501
c0 23.333 -14.667 35 -44 35c-17.333 0 -39 -7 -65 -21s-42.667 -21 -50 -21c-16.667 0 -30.667 6.5 -42 19.5s-17 27.833 -17 44.5c0 32 20.333 57.333 61 76s82.334 28 125.001 28c53.333 0 94.333 -13.667 123 -41s43 -60 43 -98c0 -24.667 -5.5 -47.334 -16.5 -68.001
s-27.167 -36.334 -48.5 -47.001c27.333 -8.66699 49.5 -25.834 66.5 -51.501s25.5 -53.5 25.5 -83.5z" />
    <glyph glyph-name="afii10074" unicode="&#x438;" horiz-adv-x="556" 
d="M515 74c0 -24 -6.66602 -43.333 -19.999 -58s-30.666 -22 -51.999 -22s-38.666 7.33301 -51.999 22s-20 34 -20 58v212h-2l-197 -259c-16.667 -22 -36.334 -33 -59.001 -33c-21.333 0 -38.666 7.33301 -51.999 22s-20 34 -20 58v384c0 24 6.66699 43.333 20 58
s30.666 22 51.999 22s38.666 -7.33301 51.999 -22s20 -34 20 -58v-208h2l184 244c22.667 29.333 46.667 44 72 44c21.333 0 38.666 -7.33301 51.999 -22s20 -34 20 -58v-384z" />
    <glyph glyph-name="afii10075" unicode="&#x439;" horiz-adv-x="556" 
d="M131 664c0 16 3.66699 30 11 42s18.666 18 33.999 18c14 0 25.667 -3.5 35 -10.5s16 -14.833 20 -23.5s10.667 -16.5 20 -23.5s21 -10.5 35 -10.5c12 0 22.333 3.5 31 10.5s15.334 14.833 20.001 23.5s12 16.5 22 23.5s22.333 10.5 37 10.5c12 0 22.5 -6.5 31.5 -19.5
s13.5 -26.5 13.5 -40.5c0 -32.667 -16.833 -58.167 -50.5 -76.5s-68.5 -27.5 -104.5 -27.5c-37.333 0 -72.5 8.83301 -105.5 26.5s-49.5 43.5 -49.5 77.5zM515 74c0 -24 -6.66602 -43.333 -19.999 -58s-30.666 -22 -51.999 -22s-38.666 7.33301 -51.999 22s-20 34 -20 58
v212h-2l-197 -259c-16.667 -22 -36.334 -33 -59.001 -33c-21.333 0 -38.666 7.33301 -51.999 22s-20 34 -20 58v384c0 24 6.66699 43.333 20 58s30.666 22 51.999 22s38.666 -7.33301 51.999 -22s20 -34 20 -58v-208h2l184 244c22.667 29.333 46.667 44 72 44
c21.333 0 38.666 -7.33301 51.999 -22s20 -34 20 -58v-384z" />
    <glyph glyph-name="afii10076" unicode="&#x43a;" horiz-adv-x="500" 
d="M41 74v384c0 24 6.66699 43.333 20 58s30.666 22 51.999 22s38.666 -7.33301 51.999 -22s20 -34 20 -58v-132l158 181c18 20.667 39.667 31 65 31c17.333 0 31.833 -6.66699 43.5 -20s17.5 -28.333 17.5 -45c0 -18 -9.33301 -37 -28 -57l-134 -137l175 -169
c12 -12 18 -28 18 -48c0 -18.667 -6.66699 -34.667 -20 -48s-29.333 -20 -48 -20c-18 0 -41 14.667 -69 44l-176 187h-2v-151c0 -24 -6.66699 -43.333 -20 -58s-30.666 -22 -51.999 -22s-38.666 7.33301 -51.999 22s-20 34 -20 58z" />
    <glyph glyph-name="afii10077" unicode="&#x43b;" horiz-adv-x="556" 
d="M105 452c0 24 6.66602 43.332 19.999 57.999s30.666 22 51.999 22h266c21.333 0 38.666 -7.33301 51.999 -22s20 -34 20 -58v-378c0 -24 -6.66699 -43.333 -20 -58s-30.666 -22 -51.999 -22s-38.666 7.33301 -51.999 22s-20 34 -20 58v332h-122v-149
c0 -84.667 -16.833 -149.667 -50.5 -195s-78.167 -68 -133.5 -68c-19.333 0 -34.666 6.33301 -45.999 19s-17 27.667 -17 45c0 13.333 3.83301 25.333 11.5 36s18.5 18.334 32.5 23.001c39.333 12 59 53 59 123v212z" />
    <glyph glyph-name="afii10078" unicode="&#x43c;" horiz-adv-x="722" 
d="M697 63c0 -19.333 -6.33203 -35.666 -18.999 -48.999s-29 -20 -49 -20c-44 0 -69 21.333 -75 64l-37 263h-2l-81 -276c-10 -34 -35 -51 -75 -51c-39.333 0 -64.333 17 -75 51l-80 276h-2l-36 -263c-6 -42.667 -31 -64 -75 -64c-19.333 0 -35.5 6.66699 -48.5 20
s-19.5 29.666 -19.5 48.999c0 6 0.333008 10.667 1 14l72 398c2.66699 16 12.5 30.5 29.5 43.5s37.167 19.5 60.5 19.5c21.333 0 40.5 -6 57.5 -18s27.833 -25.667 32.5 -41l83 -263h2l82 263c4.66699 15.333 15.5 29 32.5 41s36.167 18 57.5 18
c23.333 0 43.666 -6.5 60.999 -19.5s27.333 -27.5 30 -43.5l72 -398c0.666992 -3.33301 1 -8 1 -14z" />
    <glyph glyph-name="afii10079" unicode="&#x43d;" horiz-adv-x="556" 
d="M515 74c0 -24 -6.66699 -43.333 -20 -58s-30.666 -22 -51.999 -22s-38.666 7.33301 -51.999 22s-20 34 -20 58v140h-186v-140c0 -24 -6.66699 -43.333 -20 -58s-30.666 -22 -51.999 -22s-38.666 7.33301 -51.999 22s-20 34 -20 58v384c0 24 6.66699 43.333 20 58
s30.666 22 51.999 22s38.666 -7.33301 51.999 -22s20 -34 20 -58v-118h186v118c0 24 6.66699 43.333 20 58s30.666 22 51.999 22s38.666 -7.33301 51.999 -22s20 -34 20 -58v-384z" />
    <glyph glyph-name="afii10080" unicode="&#x43e;" horiz-adv-x="556" 
d="M278 544c74 0 135.5 -27.667 184.5 -83s73.5 -120.666 73.5 -195.999c0 -76.667 -24 -142 -72 -196s-110 -81 -186 -81s-138 27 -186 81s-72 119.333 -72 196c0 75.333 24.5 140.666 73.5 195.999s110.5 83 184.5 83zM278 412c-36.667 0 -64.834 -14.833 -84.501 -44.5
s-29.5 -63.834 -29.5 -102.501c0 -38 9.83301 -71.667 29.5 -101s47.834 -44 84.501 -44s64.834 14.667 84.501 44s29.5 63 29.5 101c0 38.667 -9.83301 72.834 -29.5 102.501s-47.834 44.5 -84.501 44.5z" />
    <glyph glyph-name="afii10081" unicode="&#x43f;" horiz-adv-x="556" 
d="M515 74c0 -24 -6.66895 -43.333 -20.002 -58s-30.666 -22 -51.999 -22s-38.666 7.33301 -51.999 22s-20 34 -20 58v332h-186v-332c0 -24 -6.66699 -43.333 -20 -58s-30.666 -22 -51.999 -22s-38.666 7.33301 -51.999 22s-20 34 -20 58v378c0 24 6.66699 43.333 20 58
s30.666 22 51.999 22h330c21.333 0 38.666 -7.33301 51.999 -22s20 -34 20 -58v-378z" />
    <glyph glyph-name="afii10082" unicode="&#x440;" 
d="M41 -138l-0.00195312 596.001c0 24 6.66699 43.333 20 58s30.666 22 51.999 22c38.667 0 62.667 -20 72 -60c12.667 21.333 31.667 37.666 57 48.999s52 17 80 17c72.667 0 129.5 -28.5 170.5 -85.5s61.5 -123.5 61.5 -199.5c0 -71.333 -22.167 -134.333 -66.5 -189
s-101.166 -82 -170.499 -82c-49.333 0 -93.333 16.667 -132 50v-176c0 -24 -6.66699 -43.333 -20 -58s-30.666 -22 -51.999 -22s-38.666 7.33301 -51.999 22s-20 34 -20 58zM184.998 270.001c0 -39.333 9.66699 -74.167 29 -104.5s47.333 -45.5 84 -45.5
c34.667 0 62 14.833 82 44.5s30 63.167 30 100.5c0 38 -10 72 -30 102s-47.333 45 -82 45c-36 0 -63.833 -14 -83.5 -42s-29.5 -61.333 -29.5 -100z" />
    <glyph glyph-name="afii10083" unicode="&#x441;" horiz-adv-x="463" 
d="M454 453c0 -16.667 -5.16797 -32.333 -15.501 -47s-23.5 -22 -39.5 -22c-11.333 0 -29.166 4.66699 -53.499 14s-44.5 14 -60.5 14c-38.667 0 -68.5 -14.5 -89.5 -43.5s-31.5 -63.5 -31.5 -103.5c0 -38 11 -71.667 33 -101s51.333 -44 88 -44c13.333 0 33.5 5 60.5 15
s42.5 15 46.5 15c16.667 0 31.167 -6.16699 43.5 -18.5s18.5 -27.166 18.5 -44.499c0 -22.667 -11.5 -42 -34.5 -58s-47.167 -26.833 -72.5 -32.5s-48.333 -8.5 -69 -8.5c-76 0 -138 27 -186 81s-72 119.333 -72 196c0 75.333 24.5 140.666 73.5 195.999s110.5 83 184.5 83
c16 0 33.333 -1.5 52 -4.5s37.667 -7.83301 57 -14.5s35.333 -16.167 48 -28.5s19 -26.833 19 -43.5z" />
    <glyph glyph-name="afii10084" unicode="&#x442;" horiz-adv-x="478" 
d="M164 74l-0.00292969 331.999h-101c-19.333 0 -34.666 5.66699 -45.999 17s-17 26.666 -17 45.999c0 18 6 33 18 45s27 18 45 18h346c20 0 36.5 -5.16699 49.5 -15.5s19.5 -26.166 19.5 -47.499s-6.5 -37.166 -19.5 -47.499s-29.5 -15.5 -49.5 -15.5h-101v-332
c0 -24 -6.66699 -43.333 -20 -58s-30.666 -22 -51.999 -22s-38.666 7.33301 -51.999 22s-20 34 -20 58z" />
    <glyph glyph-name="afii10085" unicode="&#x443;" horiz-adv-x="481" 
d="M164 42l-159.001 397c-4.66699 12.667 -7 25 -7 37c0 17.333 7.33301 32 22 44s30 18 46 18c35.333 0 59.333 -17 72 -51l99 -271l106 271c12.667 34 36.667 51 72 51c16 0 31.333 -6 46 -18s22 -26.667 22 -44c0 -14.667 -2.33301 -27 -7 -37l-241 -600
c-15.333 -38 -38 -57 -68 -57c-23.333 0 -41.666 6.16699 -54.999 18.5s-20 26.833 -20 43.5c0 12.667 3 26.667 9 42z" />
    <glyph glyph-name="afii10086" unicode="&#x444;" horiz-adv-x="848" 
d="M827 259c0 -72.667 -19.6709 -136 -59.0039 -190s-92.333 -81 -159 -81c-43.333 0 -81.333 14.333 -114 43v-169c0 -24 -6.66699 -43.333 -20 -58s-30.666 -22 -51.999 -22s-38.666 7.33301 -51.999 22s-20 34 -20 58v169c-32.667 -28.667 -70.667 -43 -114 -43
c-66 0 -118.833 27 -158.5 81s-59.5 117.333 -59.5 190c0 36 4.33301 70.667 13 104s21.334 63.666 38.001 90.999s39.167 49.166 67.5 65.499s60.166 24.5 95.499 24.5c22.667 0 44.834 -4.66699 66.501 -14s38.834 -22.333 51.501 -39v153c0 24 6.66699 43.333 20 58
s30.666 22 51.999 22s38.666 -7.33301 51.999 -22s20 -34 20 -58v-153c12.667 16.667 29.834 29.667 51.501 39s43.834 14 66.501 14c35.333 0 67.166 -8.16699 95.499 -24.5s50.833 -38.166 67.5 -65.499s29.334 -57.666 38.001 -90.999s13 -68 13 -104zM682.996 265
c0 38 -9.00098 72 -27.001 102s-43 45 -75 45c-40 0 -68.667 -21 -86 -63v-162c17.333 -44.667 46 -67 86 -67c32.667 0 57.834 14.833 75.501 44.5s26.5 63.167 26.5 100.5zM350.995 187v162c-17.333 42 -46 63 -86 63c-32.667 0 -57.834 -15 -75.501 -45
s-26.5 -64 -26.5 -102c0 -37.333 8.83301 -70.833 26.5 -100.5s42.834 -44.5 75.501 -44.5c19.333 0 36.5 6.16699 51.5 18.5s26.5 28.5 34.5 48.5z" />
    <glyph glyph-name="afii10087" unicode="&#x445;" horiz-adv-x="500" 
d="M20 113l146 166l-122 137c-14.667 17.333 -22 34.666 -22 51.999c0 18.667 7.66699 35 23 49s32.333 21 51 21c20 0 37.667 -9.33301 53 -28l101 -126l101 126c15.333 18.667 33 28 53 28c18.667 0 35.667 -7 51 -21s23 -30.333 23 -49
c0 -17.333 -7.33301 -34.666 -22 -51.999l-122 -137l146 -166c13.333 -14.667 20 -31 20 -49c0 -20.667 -6.5 -37.5 -19.5 -50.5s-30.167 -19.5 -51.5 -19.5c-14.667 0 -26 2.5 -34 7.5s-16.667 13.167 -26 24.5l-119 146l-119 -146
c-6 -7.33301 -11.167 -12.833 -15.5 -16.5s-10.333 -7.16699 -18 -10.5s-16.5 -5 -26.5 -5c-21.333 0 -38.5 6.5 -51.5 19.5s-19.5 29.833 -19.5 50.5c0 18 6.66699 34.333 20 49z" />
    <glyph glyph-name="afii10088" unicode="&#x446;" horiz-adv-x="593" 
d="M523 126c21.333 0 38.668 -7.33301 52.001 -22s20 -34 20 -58v-118c0 -24 -6.66699 -43.333 -20 -58s-30.666 -22 -51.999 -22s-38.666 7.33301 -51.999 22s-20 34 -20 58v72h-338c-21.333 -0 -38.666 7.33301 -51.999 22s-20 34 -20 58v378c0 24 6.66699 43.333 20 58
s30.666 22 51.999 22s38.666 -7.33301 51.999 -22s20 -34 20 -58v-332h186v332c0 24 6.66699 43.333 20 58s30.666 22 51.999 22s38.666 -7.33301 51.999 -22s20 -34 20 -58v-332h8z" />
    <glyph glyph-name="afii10089" unicode="&#x447;" horiz-adv-x="521" 
d="M181 370c0 -19.333 7.50195 -34.168 22.502 -44.501s35.167 -15.5 60.5 -15.5h73v148c0 24 6.66699 43.333 20 58s30.666 22 51.999 22s38.666 -7.33301 51.999 -22s20 -34 20 -58v-384c0 -24 -6.66699 -43.333 -20 -58s-30.666 -22 -51.999 -22
s-38.666 7.33301 -51.999 22s-20 34 -20 58v110h-92c-59.333 0 -108.833 16.833 -148.5 50.5s-59.5 76.834 -59.5 129.501v94c0 24 6.66699 43.333 20 58s30.666 22 51.999 22s38.666 -7.33301 51.999 -22s20 -34 20 -58v-88z" />
    <glyph glyph-name="afii10090" unicode="&#x448;" horiz-adv-x="800" 
d="M113 0c-21.333 0 -38.6621 7.33301 -51.9951 22s-20 34 -20 58v378c0 24 6.66699 43.333 20 58s30.666 22 51.999 22s38.666 -7.33301 51.999 -22s20 -34 20 -58v-332h146v332c0 24 6.66699 43.333 20 58s30.666 22 51.999 22s38.666 -7.33301 51.999 -22s20 -34 20 -58
v-332h146v332c0 24 6.66699 43.333 20 58s30.666 22 51.999 22s38.666 -7.33301 51.999 -22s20 -34 20 -58v-378c0 -24 -6.66699 -43.333 -20 -58s-30.666 -22 -51.999 -22h-580z" />
    <glyph glyph-name="afii10091" unicode="&#x449;" horiz-adv-x="845" 
d="M845 -72c0 -24 -6.66309 -43.333 -19.9961 -58s-30.666 -22 -51.999 -22s-38.666 7.33301 -51.999 22s-20 34 -20 58v72h-588c-21.333 -0 -38.666 7.33301 -51.999 22s-20 34 -20 58v378c0 24 6.66699 43.333 20 58s30.666 22 51.999 22s38.666 -7.33301 51.999 -22
s20 -34 20 -58v-332h146v332c0 24 6.66699 43.333 20 58s30.666 22 51.999 22s38.666 -7.33301 51.999 -22s20 -34 20 -58v-332h146v332c0 24 6.66699 43.333 20 58s30.666 22 51.999 22s38.666 -7.33301 51.999 -22s20 -34 20 -58v-332h8
c21.333 0 38.666 -7.33301 51.999 -22s20 -34 20 -58v-118z" />
    <glyph glyph-name="afii10092" unicode="&#x44a;" horiz-adv-x="623" 
d="M603 171c0 -53.333 -16.334 -95.166 -49.001 -125.499s-76 -45.5 -130 -45.5h-188c-21.333 0 -38.666 7.33301 -51.999 22s-20 34 -20 58v326h-101c-19.333 0 -34.666 5.66699 -45.999 17s-17 26.666 -17 45.999c0 18 6 33 18 45s27 18 45 18h173
c21.333 0 38.666 -7.33301 51.999 -22s20 -34 20 -58v-112h102c58.667 0 105.5 -14.167 140.5 -42.5s52.5 -70.5 52.5 -126.5zM458.999 173c0 14 -5.33301 25.499 -16 34.499s-26 13.5 -46 13.5h-89v-102h95c16.667 0 30.167 4.83301 40.5 14.5s15.5 22.834 15.5 39.501z
" />
    <glyph glyph-name="afii10093" unicode="&#x44b;" horiz-adv-x="732" 
d="M185 221v-102.001h95c16.667 0 30.167 4.83301 40.5 14.5s15.5 22.834 15.5 39.501c0 14 -5.33301 25.5 -16 34.5s-26 13.5 -46 13.5h-89zM113 -0.000976562c-21.333 0 -38.665 7.33203 -51.998 21.999s-20 34 -20 58v378c0 24 6.66699 43.333 20 58s30.666 22 51.999 22
s38.666 -7.33301 51.999 -22s20 -34 20 -58v-118h102c58.667 0 105.5 -14.167 140.5 -42.5s52.5 -70.5 52.5 -126.5c0 -53.333 -16.333 -95.166 -49 -125.499s-76 -45.5 -130 -45.5h-188zM551.001 73.998v384c0 24 6.66699 43.333 20 58s30.666 22 51.999 22
s38.666 -7.33301 51.999 -22s20 -34 20 -58v-384c0 -24 -6.66699 -43.333 -20 -58s-30.666 -22 -51.999 -22s-38.666 7.33301 -51.999 22s-20 34 -20 58z" />
    <glyph glyph-name="afii10094" unicode="&#x44c;" horiz-adv-x="500" 
d="M185 221v-102.001h95c16.667 0 30.167 4.83301 40.5 14.5s15.5 22.834 15.5 39.501c0 14 -5.33301 25.5 -16 34.5s-26 13.5 -46 13.5h-89zM113 -0.000976562c-21.333 0 -38.665 7.33203 -51.998 21.999s-20 34 -20 58v378c0 24 6.66699 43.333 20 58s30.666 22 51.999 22
s38.666 -7.33301 51.999 -22s20 -34 20 -58v-118h102c58.667 0 105.5 -14.167 140.5 -42.5s52.5 -70.5 52.5 -126.5c0 -53.333 -16.333 -95.166 -49 -125.499s-76 -45.5 -130 -45.5h-188z" />
    <glyph glyph-name="afii10095" unicode="&#x44d;" horiz-adv-x="463" 
d="M297 220l-111.001 -0.000976562c-18 0 -32.833 4.83301 -44.5 14.5s-17.5 23.834 -17.5 42.501c0 19.333 5.83301 33.666 17.5 42.999s26.5 14 44.5 14h105c-20.667 52 -57 78 -109 78c-16 0 -36.167 -4.66699 -60.5 -14s-42.166 -14 -53.499 -14
c-16 0 -29.167 7.33301 -39.5 22s-15.5 30.334 -15.5 47.001s6.33301 31.167 19 43.5s28.667 21.833 48 28.5s38.333 11.5 57 14.5s36 4.5 52 4.5c74 0 135.5 -27.667 184.5 -83s73.5 -120.666 73.5 -195.999c0 -76.667 -24 -142 -72 -196s-110 -81 -186 -81
c-20.667 0 -43.667 2.83301 -69 8.5s-49.5 16.5 -72.5 32.5s-34.5 35.333 -34.5 58c0 17.333 6.16699 32.166 18.5 44.499s26.833 18.5 43.5 18.5c4 0 19.5 -5 46.5 -15s47.167 -15 60.5 -15c29.333 0 54 9.5 74 28.5s33.667 42.833 41 71.5z" />
    <glyph glyph-name="afii10096" unicode="&#x44e;" horiz-adv-x="778" 
d="M754 265c0 -76.667 -24 -142 -72 -196s-110 -81 -186 -81c-66.667 0 -123 21.333 -169 64s-74.333 96.667 -85 162h-57v-140c0 -24 -6.66699 -43.333 -20 -58s-30.666 -22 -51.999 -22s-38.666 7.33301 -51.999 22s-20 34 -20 58v384c0 24 6.66699 43.333 20 58
s30.666 22 51.999 22s38.666 -7.33301 51.999 -22s20 -34 20 -58v-118h62c15.333 59.333 45.5 108.166 90.5 146.499s97.833 57.5 158.5 57.5c74 0 135.5 -27.667 184.5 -83s73.5 -120.666 73.5 -195.999zM610 265c0 38.667 -9.83301 72.834 -29.5 102.501
s-47.834 44.5 -84.501 44.5s-64.834 -14.833 -84.501 -44.5s-29.5 -63.834 -29.5 -102.501c0 -38 9.83301 -71.667 29.5 -101s47.834 -44 84.501 -44s64.834 14.667 84.501 44s29.5 63 29.5 101z" />
    <glyph glyph-name="afii10097" unicode="&#x44f;" horiz-adv-x="480" 
d="M297 297v132.002h-49c-21.333 0 -38.333 -5.83301 -51 -17.5s-19 -27.834 -19 -48.501s6.5 -36.834 19.5 -48.501s29.833 -17.5 50.5 -17.5h49zM154 225.002c-36 9.33301 -65 25.667 -87 49s-33 53 -33 89c0 56.667 16.167 99 48.5 127s78.166 42 137.499 42h149
c21.333 0 38.666 -7.33301 51.999 -22s20 -34 20 -58v-378c0 -24 -6.66699 -43.333 -20 -58s-30.666 -22 -51.999 -22s-38.666 7.33301 -51.999 22s-20 34 -20 58v128h-2l-153 -185c-12.667 -15.333 -30 -23 -52 -23c-19.333 0 -35.5 7 -48.5 21s-19.5 30 -19.5 48
c0 14.667 6 28 18 40z" />
    <glyph glyph-name="afii10071" unicode="&#x451;" horiz-adv-x="537" 
d="M464 218l-306.999 0.000976562c4.66699 -34 19.667 -59.833 45 -77.5s55.666 -26.5 90.999 -26.5c27.333 0 59 9.66699 95 29s58.667 29 68 29c15.333 0 29 -6.33301 41 -19s18 -27 18 -43c0 -30 -25.5 -57.833 -76.5 -83.5s-103.833 -38.5 -158.5 -38.5
c-80 0 -145 26 -195 78s-75 118.333 -75 199c0 75.333 24.5 140.666 73.5 195.999s110.5 83 184.5 83s135.667 -27.5 185 -82.5s74 -114.833 74 -179.5c0 -42.667 -21 -64 -63 -64zM154.001 314.001h229c-4 32.667 -16 59.167 -36 79.5s-46.333 30.5 -79 30.5
c-31.333 0 -57.333 -10.5 -78 -31.5s-32.667 -47.167 -36 -78.5zM307.001 652.001c0 20 7 37 21 51s31 21 51 21s37 -7 51 -21s21 -31 21 -51s-7 -37 -21 -51s-31 -21 -51 -21s-37 7 -51 21s-21 31 -21 51zM87.001 652.001c0 20 7 37 21 51s31 21 51 21s37 -7 51 -21
s21 -31 21 -51s-7 -37 -21 -51s-31 -21 -51 -21s-37 7 -51 21s-21 31 -21 51z" />
    <glyph glyph-name="afii10099" unicode="&#x452;" horiz-adv-x="561" 
d="M391 196c0 48 -8.33301 81.334 -25 100.001s-39.667 28 -69 28c-28.667 0 -51.167 -9.33301 -67.5 -28s-24.5 -42.334 -24.5 -71.001v-151c0 -24 -6.66699 -43.333 -20 -58s-30.666 -22 -51.999 -22s-38.666 7.33301 -51.999 22s-20 34 -20 58v442h-25
c-17.333 0 -31 5.16699 -41 15.5s-15 24.166 -15 41.499c0 16 5.33301 29.5 16 40.5s24 16.5 40 16.5h25v60c0 24 6.66699 43.333 20 58s30.666 22 51.999 22s38.666 -7.33301 51.999 -22s20 -34 20 -58v-60h173c18 0 32.833 -4.66699 44.5 -14s17.5 -23.666 17.5 -42.999
c0 -18.667 -5.83301 -32.834 -17.5 -42.501s-26.5 -14.5 -44.5 -14.5h-173v-122h2c27.333 33.333 71 50 131 50c59.333 0 107 -17.167 143 -51.5s54 -85.833 54 -154.5c0 -50 -4.83301 -96.333 -14.5 -139s-23.834 -81.167 -42.501 -115.5s-36.5 -63.166 -53.5 -86.499
s-38.167 -48.666 -63.5 -75.999c-6 -8 -15 -16.333 -27 -25c-8 -6 -17.333 -9 -28 -9c-15.333 0 -30.666 6 -45.999 18s-23 25.667 -23 41c0 9.33301 5.66699 22.666 17 39.999c38 54.667 66.667 98 86 130c34 56 51 116 51 180z" />
    <glyph glyph-name="afii10100" unicode="&#x453;" horiz-adv-x="410" 
d="M124 715l117.998 48.001c16.667 6.66699 29.334 10 38.001 10c14 0 26.5 -6.66699 37.5 -20s16.5 -27.333 16.5 -42c0 -28.667 -13.667 -48.334 -41 -59.001l-112 -44c-23.333 -6.66699 -36.666 -10 -39.999 -10c-14.667 0 -27.167 7.66699 -37.5 23s-15.5 32 -15.5 50
c0 16.667 9.33301 30 28 40zM35.998 74.001l-0.00195312 394.999c0 17.333 6 32.166 18 44.499s27 18.5 45 18.5h242c20 0 36.5 -5.16699 49.5 -15.5s19.5 -26.166 19.5 -47.499s-6.5 -37.166 -19.5 -47.499s-29.5 -15.5 -49.5 -15.5h-161v-332
c0 -24 -6.66699 -43.333 -20 -58s-30.666 -22 -51.999 -22s-38.666 7.33301 -51.999 22s-20 34 -20 58z" />
    <glyph glyph-name="afii10101" unicode="&#x454;" horiz-adv-x="463" 
d="M451 87c0 -22.667 -11.501 -41.999 -34.501 -57.999s-47.167 -26.833 -72.5 -32.5s-48.333 -8.5 -69 -8.5c-76 0 -138 27 -186 81s-72 119.333 -72 196c0 75.333 24.5 140.666 73.5 195.999s110.5 83 184.5 83c16 0 33.333 -1.5 52 -4.5s37.667 -7.83301 57 -14.5
s35.333 -16.167 48 -28.5s19 -26.833 19 -43.5s-5.16699 -32.334 -15.5 -47.001s-23.5 -22 -39.5 -22c-11.333 0 -29.166 4.66699 -53.499 14s-44.5 14 -60.5 14c-52 0 -88.333 -26 -109 -78h105c18 0 32.833 -4.66699 44.5 -14s17.5 -23.666 17.5 -42.999
c0 -18.667 -5.83301 -32.834 -17.5 -42.501s-26.5 -14.5 -44.5 -14.5h-111c7.33301 -28.667 21 -52.5 41 -71.5s44.667 -28.5 74 -28.5c13.333 0 33.5 5 60.5 15s42.5 15 46.5 15c16.667 0 31.167 -6.16699 43.5 -18.5s18.5 -27.166 18.5 -44.499z" />
    <glyph glyph-name="afii10102" unicode="&#x455;" horiz-adv-x="426" 
d="M403 440c0 -16.667 -5.66211 -31.5 -16.9951 -44.5s-25.333 -19.5 -42 -19.5c-7.33301 0 -26.333 7 -57 21s-54.667 21 -72 21c-14 0 -25.667 -3.33301 -35 -10s-14 -16.667 -14 -30c0 -12 8.66699 -22.833 26 -32.5s38.166 -18.834 62.499 -27.501
s48.666 -19 72.999 -31s45.166 -29 62.499 -51s26 -48.333 26 -79c0 -48.667 -18.833 -89 -56.5 -121s-87.167 -48 -148.5 -48c-44.667 0 -89.334 10.833 -134.001 32.5s-67 47.834 -67 78.501c0 13.333 5.83301 27.333 17.5 42s26.5 22 44.5 22
c17.333 0 40.666 -8.16699 69.999 -24.5s55.666 -24.5 78.999 -24.5c21.333 0 36.166 3.33301 44.499 10s12.5 17 12.5 31c0 12 -8.66699 22.667 -26 32s-38.166 18.5 -62.499 27.5s-48.666 19.333 -72.999 31s-45.166 28.667 -62.499 51s-26 48.833 -26 79.5
c0 50 18.167 90.5 54.5 121.5s83.166 46.5 140.499 46.5c26 0 52.167 -3.5 78.5 -10.5s49.833 -18.833 70.5 -35.5s31 -36 31 -58z" />
    <glyph glyph-name="afii10103" unicode="&#x456;" horiz-adv-x="222" 
d="M39 74v384c0 24 6.66699 43.333 20 58s30.666 22 51.999 22s38.666 -7.33301 51.999 -22s20 -34 20 -58v-384c0 -24 -6.66699 -43.333 -20 -58s-30.666 -22 -51.999 -22s-38.666 7.33301 -51.999 22s-20 34 -20 58zM111 754c21.333 0 40.168 -8 56.501 -24
s24.5 -34.333 24.5 -55c0 -22.667 -7.83301 -42.167 -23.5 -58.5s-34.834 -24.5 -57.501 -24.5c-21.333 0 -40.166 8.33301 -56.499 25s-24.5 36 -24.5 58c0 20.667 8.16699 39 24.5 55s35.166 24 56.499 24z" />
    <glyph glyph-name="afii10104" unicode="&#x457;" horiz-adv-x="222" 
d="M39 74v384c0 24 6.66699 43.333 20 58s30.666 22 51.999 22s38.666 -7.33301 51.999 -22s20 -34 20 -58v-384c0 -24 -6.66699 -43.333 -20 -58s-30.666 -22 -51.999 -22s-38.666 7.33301 -51.999 22s-20 34 -20 58zM149 675c0 20 7 37 21 51s31 21 51 21s37 -7 51 -21
s21 -31 21 -51s-7 -37 -21 -51s-31 -21 -51 -21s-37 7 -51 21s-21 31 -21 51zM-71 675c0 20 7 37 21 51s31 21 51 21s37 -7 51 -21s21 -31 21 -51s-7 -37 -21 -51s-31 -21 -51 -21s-37 7 -51 21s-21 31 -21 51z" />
    <glyph glyph-name="afii10105" unicode="&#x458;" horiz-adv-x="222" 
d="M39 -138v596c0 24 6.66699 43.333 20 58s30.666 22 51.999 22s38.666 -7.33301 51.999 -22s20 -34 20 -58v-596c0 -24 -6.66699 -43.333 -20 -58s-30.666 -22 -51.999 -22s-38.666 7.33301 -51.999 22s-20 34 -20 58zM111 754c21.333 0 40.168 -8 56.501 -24
s24.5 -34.333 24.5 -55c0 -22.667 -7.83301 -42.167 -23.5 -58.5s-34.834 -24.5 -57.501 -24.5c-21.333 0 -40.166 8.33301 -56.499 25s-24.5 36 -24.5 58c0 20.667 8.16699 39 24.5 55s35.166 24 56.499 24z" />
    <glyph glyph-name="afii10106" unicode="&#x459;" horiz-adv-x="830" 
d="M810 171c0 -53.333 -16.333 -95.168 -49 -125.501s-76 -45.5 -130 -45.5h-188c-21.333 0 -38.666 7.33301 -51.999 22s-20 34 -20 58v326h-122v-149c0 -84.667 -16.833 -149.667 -50.5 -195s-78.167 -68 -133.5 -68c-19.333 0 -34.666 6.33301 -45.999 19
s-17 27.667 -17 45c0 13.333 3.83301 25.333 11.5 36s18.5 18.334 32.5 23.001c39.333 12 59 53 59 123v212c0 24 6.66699 43.333 20 58s30.666 22 51.999 22h266c21.333 0 38.666 -7.33301 51.999 -22s20 -34 20 -58v-112h102c58.667 0 105.5 -14.167 140.5 -42.5
s52.5 -70.5 52.5 -126.5zM666 172.998c0 14 -5.33301 25.499 -16 34.499s-26 13.5 -46 13.5h-89v-102h95c16.667 0 30.167 4.83301 40.5 14.5s15.5 22.834 15.5 39.501z" />
    <glyph glyph-name="afii10107" unicode="&#x45a;" horiz-adv-x="830" 
d="M810 171c0 -53.333 -16.332 -95.167 -48.999 -125.5s-76 -45.5 -130 -45.5h-188c-21.333 -0 -38.666 7.33301 -51.999 22s-20 34 -20 58v134h-186v-140c0 -24 -6.66699 -43.333 -20 -58s-30.666 -22 -51.999 -22s-38.666 7.33301 -51.999 22s-20 34 -20 58v384
c0 24 6.66699 43.333 20 58s30.666 22 51.999 22s38.666 -7.33301 51.999 -22s20 -34 20 -58v-118h186v118c0 24 6.66699 43.333 20 58s30.666 22 51.999 22s38.666 -7.33301 51.999 -22s20 -34 20 -58v-118h102c58.667 0 105.5 -14.167 140.5 -42.5s52.5 -70.5 52.5 -126.5
zM666.001 172.999c0 14 -5.33301 25.499 -16 34.499s-26 13.5 -46 13.5h-89v-102h95c16.667 0 30.167 4.83301 40.5 14.5s15.5 22.834 15.5 39.501z" />
    <glyph glyph-name="afii10108" unicode="&#x45b;" horiz-adv-x="576" 
d="M535 74c0 -24 -6.66895 -43.3311 -20.002 -57.998s-30.666 -22 -51.999 -22s-38.666 7.33301 -51.999 22s-20 34 -20 58v151c0 32 -8.83301 56.5 -26.5 73.5s-40.167 25.5 -67.5 25.5c-28.667 0 -51.167 -9.33301 -67.5 -28s-24.5 -42.334 -24.5 -71.001v-151
c0 -24 -6.66699 -43.333 -20 -58s-30.666 -22 -51.999 -22s-38.666 7.33301 -51.999 22s-20 34 -20 58v442h-25c-17.333 0 -31 5.16699 -41 15.5s-15 24.166 -15 41.499c0 16 5.33301 29.5 16 40.5s24 16.5 40 16.5h25v60c0 24 6.66699 43.333 20 58s30.666 22 51.999 22
s38.666 -7.33301 51.999 -22s20 -34 20 -58v-60h173c18 0 32.833 -4.66699 44.5 -14s17.5 -23.666 17.5 -42.999c0 -18.667 -5.83301 -32.834 -17.5 -42.501s-26.5 -14.5 -44.5 -14.5h-173v-122h2c27.333 33.333 71 50 131 50c58 0 105.333 -17.333 142 -52s55 -82 55 -142
v-176z" />
    <glyph glyph-name="afii10109" unicode="&#x45c;" horiz-adv-x="500" 
d="M174 715l117.998 48.001c16.667 6.66699 29.334 10 38.001 10c14 0 26.5 -6.66699 37.5 -20s16.5 -27.333 16.5 -42c0 -28.667 -13.667 -48.334 -41 -59.001l-112 -44c-23.333 -6.66699 -36.666 -10 -39.999 -10c-14.667 0 -27.167 7.66699 -37.5 23s-15.5 32 -15.5 50
c0 16.667 9.33301 30 28 40zM40.998 74.001v384c0 24 6.66699 43.333 20 58s30.666 22 51.999 22s38.666 -7.33301 51.999 -22s20 -34 20 -58v-132l158 181c18 20.667 39.667 31 65 31c17.333 0 31.833 -6.66699 43.5 -20s17.5 -28.333 17.5 -45c0 -18 -9.33301 -37 -28 -57
l-134 -137l175 -169c12 -12 18 -28 18 -48c0 -18.667 -6.66699 -34.667 -20 -48s-29.333 -20 -48 -20c-18 0 -41 14.667 -69 44l-176 187h-2v-151c0 -24 -6.66699 -43.333 -20 -58s-30.666 -22 -51.999 -22s-38.666 7.33301 -51.999 22s-20 34 -20 58z" />
    <glyph glyph-name="afii10110" unicode="&#x45e;" horiz-adv-x="481" 
d="M89 664c0 16 3.66699 30 11 42s18.666 18 33.999 18c14 0 25.667 -3.5 35 -10.5s16 -14.833 20 -23.5s10.667 -16.5 20 -23.5s21 -10.5 35 -10.5c12 0 22.333 3.5 31 10.5s15.334 14.833 20.001 23.5s12 16.5 22 23.5s22.333 10.5 37 10.5c12 0 22.5 -6.5 31.5 -19.5
s13.5 -26.5 13.5 -40.5c0 -32.667 -16.833 -58.167 -50.5 -76.5s-68.5 -27.5 -104.5 -27.5c-37.333 0 -72.5 8.83301 -105.5 26.5s-49.5 43.5 -49.5 77.5zM164 42l-159.001 397c-4.66699 12.667 -7 25 -7 37c0 17.333 7.33301 32 22 44s30 18 46 18
c35.333 0 59.333 -17 72 -51l99 -271l106 271c12.667 34 36.667 51 72 51c16 0 31.333 -6 46 -18s22 -26.667 22 -44c0 -14.667 -2.33301 -27 -7 -37l-241 -600c-15.333 -38 -38 -57 -68 -57c-23.333 0 -41.666 6.16699 -54.999 18.5s-20 26.833 -20 43.5
c0 12.667 3 26.667 9 42z" />
    <glyph glyph-name="afii10193" unicode="&#x45f;" horiz-adv-x="556" 
d="M207 0h-94c-21.333 -0 -38.666 7.33301 -51.999 22s-20 34 -20 58v378c0 24 6.66699 43.333 20 58s30.666 22 51.999 22s38.666 -7.33301 51.999 -22s20 -34 20 -58v-332h186v332c0 24 6.66699 43.333 20 58s30.666 22 51.999 22s38.666 -7.33301 51.999 -22
s20 -34 20 -58v-378c0 -24 -6.66699 -43.333 -20 -58s-30.666 -22 -51.999 -22h-92v-114c0 -24 -6.66699 -43.333 -20 -58s-30.666 -22 -51.999 -22s-38.666 7.33301 -51.999 22s-20 34 -20 58v114z" />
    <glyph glyph-name="afii10050" unicode="&#x490;" horiz-adv-x="444" 
d="M446 643c0 -18.667 -5.83105 -34.832 -17.498 -48.499s-28.167 -20.5 -49.5 -20.5h-184v-502c0 -24.667 -7 -43.834 -21 -57.501s-32 -20.5 -54 -20.5s-40 6.83301 -54 20.5s-21 32.834 -21 57.501v562c0 21.333 7 39.666 21 54.999s33 23 57 23h179v49
c0 24 6.66699 43.333 20 58s30.666 22 51.999 22s38.666 -7.33301 51.999 -22s20 -34 20 -58v-118z" />
    <glyph glyph-name="afii10098" unicode="&#x491;" horiz-adv-x="410" 
d="M410 469c0 -21.333 -6.5 -37.166 -19.5 -47.499s-29.5 -15.5 -49.5 -15.5h-161v-332c0 -24 -6.66699 -43.333 -20 -58s-30.666 -22 -51.999 -22s-38.666 7.33301 -51.999 22s-20 34 -20 58v395c0 17.333 6 32.166 18 44.499s27 18.5 45 18.5h167v55
c0 24 6.66699 43.333 20 58s30.666 22 51.999 22s38.666 -7.33301 51.999 -22s20 -34 20 -58v-118z" />
    <glyph glyph-name="endash" unicode="&#x2013;" horiz-adv-x="500" 
d="M60 350h380c18.667 0 33.334 -5.5 44.001 -16.5s16 -25.5 16 -43.5s-5.33301 -32.5 -16 -43.5s-25.334 -16.5 -44.001 -16.5h-380c-18.667 0 -33.334 5.5 -44.001 16.5s-16 25.5 -16 43.5s5.33301 32.5 16 43.5s25.334 16.5 44.001 16.5z" />
    <glyph glyph-name="emdash" unicode="&#x2014;" horiz-adv-x="1000" 
d="M0 350h1000c18.667 0 33.334 -5.5 44.001 -16.5s16 -25.5 16 -43.5s-5.33301 -32.5 -16 -43.5s-25.334 -16.5 -44.001 -16.5h-1000c-18.667 0 -33.334 5.5 -44.001 16.5s-16 25.5 -16 43.5s5.33301 32.5 16 43.5s25.334 16.5 44.001 16.5z" />
    <glyph glyph-name="quoteleft" unicode="&#x2018;" horiz-adv-x="240" 
d="M218 618l-84.001 -150c-6 -10.667 -14.667 -19 -26 -25s-21.666 -9 -30.999 -9c-18 0 -33.833 6.5 -47.5 19.5s-20.5 28.5 -20.5 46.5c0 12 4 25.333 12 40l83 150c6 10.667 14.833 19 26.5 25s22.167 9 31.5 9c18 0 34 -6.5 48 -19.5s21 -28.5 21 -46.5
c0 -12 -4.33301 -25.333 -13 -40z" />
    <glyph glyph-name="quoteright" unicode="&#x2019;" horiz-adv-x="240" 
d="M218 618l-84.001 -150c-6 -10.667 -14.667 -19 -26 -25s-21.666 -9 -30.999 -9c-18 0 -33.833 6.5 -47.5 19.5s-20.5 28.5 -20.5 46.5c0 12 4 25.333 12 40l83 150c6 10.667 14.833 19 26.5 25s22.167 9 31.5 9c18 0 34 -6.5 48 -19.5s21 -28.5 21 -46.5
c0 -12 -4.33301 -25.333 -13 -40z" />
    <glyph glyph-name="quotesinglbase" unicode="&#x201a;" horiz-adv-x="240" 
d="M218 50l-84.001 -150c-6 -10.667 -14.667 -19 -26 -25s-21.666 -9 -30.999 -9c-18 0 -33.833 6.5 -47.5 19.5s-20.5 28.5 -20.5 46.5c0 12 4 25.333 12 40l83 150c6 10.667 14.833 19 26.5 25s22.167 9 31.5 9c18 0 34 -6.5 48 -19.5s21 -28.5 21 -46.5
c0 -8 -4.33301 -21.333 -13 -40z" />
    <glyph glyph-name="quotedblleft" unicode="&#x201c;" horiz-adv-x="444" 
d="M422 618l-84.001 -150c-6 -10.667 -14.667 -19 -26 -25s-21.666 -9 -30.999 -9c-18 0 -33.833 6.5 -47.5 19.5s-20.5 28.5 -20.5 46.5c0 12 4 25.333 12 40l83 150c6 10.667 14.833 19 26.5 25s22.167 9 31.5 9c18 0 34 -6.5 48 -19.5s21 -28.5 21 -46.5
c0 -12 -4.33301 -25.333 -13 -40zM217.999 618l-84.001 -150c-6 -10.667 -14.667 -19 -26 -25s-21.666 -9 -30.999 -9c-18 0 -33.833 6.5 -47.5 19.5s-20.5 28.5 -20.5 46.5c0 12 4 25.333 12 40l83 150c6 10.667 14.833 19 26.5 25s22.167 9 31.5 9c18 0 34 -6.5 48 -19.5
s21 -28.5 21 -46.5c0 -12 -4.33301 -25.333 -13 -40z" />
    <glyph glyph-name="quotedblright" unicode="&#x201d;" horiz-adv-x="444" 
d="M422 618l-84.001 -150c-6 -10.667 -14.667 -19 -26 -25s-21.666 -9 -30.999 -9c-18 0 -33.833 6.5 -47.5 19.5s-20.5 28.5 -20.5 46.5c0 12 4 25.333 12 40l83 150c6 10.667 14.833 19 26.5 25s22.167 9 31.5 9c18 0 34 -6.5 48 -19.5s21 -28.5 21 -46.5
c0 -12 -4.33301 -25.333 -13 -40zM217.999 618l-84.001 -150c-6 -10.667 -14.667 -19 -26 -25s-21.666 -9 -30.999 -9c-18 0 -33.833 6.5 -47.5 19.5s-20.5 28.5 -20.5 46.5c0 12 4 25.333 12 40l83 150c6 10.667 14.833 19 26.5 25s22.167 9 31.5 9c18 0 34 -6.5 48 -19.5
s21 -28.5 21 -46.5c0 -12 -4.33301 -25.333 -13 -40z" />
    <glyph glyph-name="quotedblbase" unicode="&#x201e;" horiz-adv-x="444" 
d="M422 50l-84.001 -150c-6 -10.667 -14.667 -19 -26 -25s-21.666 -9 -30.999 -9c-18 0 -33.833 6.5 -47.5 19.5s-20.5 28.5 -20.5 46.5c0 12 4 25.333 12 40l83 150c6 10.667 14.833 19 26.5 25s22.167 9 31.5 9c18 0 34 -6.5 48 -19.5s21 -28.5 21 -46.5
c0 -12 -4.33301 -25.333 -13 -40zM217.999 50l-84.001 -150c-6 -10.667 -14.667 -19 -26 -25s-21.666 -9 -30.999 -9c-18 0 -33.833 6.5 -47.5 19.5s-20.5 28.5 -20.5 46.5c0 12 4 25.333 12 40l83 150c6 10.667 14.833 19 26.5 25s22.167 9 31.5 9c18 0 34 -6.5 48 -19.5
s21 -28.5 21 -46.5c0 -12 -4.33301 -25.333 -13 -40z" />
    <glyph glyph-name="dagger" unicode="&#x2020;" horiz-adv-x="630" 
d="M246 -149v525h-164c-17.333 0 -31.166 5.5 -41.499 16.5s-15.5 26.5 -15.5 46.5s5.16699 35.5 15.5 46.5s24.166 16.5 41.499 16.5h164v153c0 22 6.16699 39 18.5 51s29.166 18 50.499 18s38.166 -6 50.499 -18s18.5 -29 18.5 -51v-153h164
c17.333 0 31.166 -5.5 41.499 -16.5s15.5 -26.5 15.5 -46.5s-5.16699 -35.5 -15.5 -46.5s-24.166 -16.5 -41.499 -16.5h-164v-525c0 -22 -6.16699 -39 -18.5 -51s-29.166 -18 -50.499 -18s-38.166 6 -50.499 18s-18.5 29 -18.5 51z" />
    <glyph glyph-name="daggerdbl" unicode="&#x2021;" horiz-adv-x="630" 
d="M246 -149v155h-164c-17.333 0 -31.166 5.5 -41.499 16.5s-15.5 26.5 -15.5 46.5s5.16699 35.5 15.5 46.5s24.166 16.5 41.499 16.5h164v244h-164c-17.333 0 -31.166 5.5 -41.499 16.5s-15.5 26.5 -15.5 46.5s5.16699 35.5 15.5 46.5s24.166 16.5 41.499 16.5h164v153
c0 22 6.16699 39 18.5 51s29.166 18 50.499 18s38.166 -6 50.499 -18s18.5 -29 18.5 -51v-153h164c17.333 0 31.166 -5.5 41.499 -16.5s15.5 -26.5 15.5 -46.5s-5.16699 -35.5 -15.5 -46.5s-24.166 -16.5 -41.499 -16.5h-164v-244h164c17.333 0 31.166 -5.5 41.499 -16.5
s15.5 -26.5 15.5 -46.5s-5.16699 -35.5 -15.5 -46.5s-24.166 -16.5 -41.499 -16.5h-164v-155c0 -22 -6.16699 -39 -18.5 -51s-29.166 -18 -50.499 -18s-38.166 6 -50.499 18s-18.5 29 -18.5 51z" />
    <glyph glyph-name="bullet" unicode="&#x2022;" horiz-adv-x="500" 
d="M72 356c0 49.333 17.333 91.333 52 126s76.667 52 126 52s91.333 -17.333 126 -52s52 -76.667 52 -126s-17.333 -91.333 -52 -126s-76.667 -52 -126 -52s-91.333 17.333 -126 52s-52 76.667 -52 126z" />
    <glyph glyph-name="ellipsis" unicode="&#x2026;" horiz-adv-x="1000" 
d="M89 66c0 21.333 7.66699 39.666 23 54.999s33.666 23 54.999 23s39.666 -7.66699 54.999 -23s23 -33.666 23 -54.999s-7.66699 -39.666 -23 -54.999s-33.666 -23 -54.999 -23s-39.666 7.66699 -54.999 23s-23 33.666 -23 54.999zM422 66
c0 21.333 7.66699 39.666 23 54.999s33.666 23 54.999 23s39.666 -7.66699 54.999 -23s23 -33.666 23 -54.999s-7.66699 -39.666 -23 -54.999s-33.666 -23 -54.999 -23s-39.666 7.66699 -54.999 23s-23 33.666 -23 54.999zM755 66c0 21.333 7.66699 39.666 23 54.999
s33.666 23 54.999 23s39.666 -7.66699 54.999 -23s23 -33.666 23 -54.999s-7.66699 -39.666 -23 -54.999s-33.666 -23 -54.999 -23s-39.666 7.66699 -54.999 23s-23 33.666 -23 54.999z" />
    <glyph glyph-name="perthousand" unicode="&#x2030;" horiz-adv-x="1074" 
d="M889 -12c-44 0 -80.667 15.833 -110 47.5s-44 69.5 -44 113.5s14.667 82 44 114s66 48 110 48s80.667 -16 110 -48s44 -70 44 -114s-14.667 -81.833 -44 -113.5s-66 -47.5 -110 -47.5zM889 90c16 0 28.667 5.66699 38 17s14 25.333 14 42s-4.66699 30.834 -14 42.501
s-22 17.5 -38 17.5s-28.667 -5.83301 -38 -17.5s-14 -25.834 -14 -42.501s4.66699 -30.667 14 -42s22 -17 38 -17zM185 503c16 0 28.667 5.66699 38 17s14 25.333 14 42s-4.66699 30.834 -14 42.501s-22 17.5 -38 17.5s-28.667 -5.83301 -38 -17.5s-14 -25.834 -14 -42.501
s4.66699 -30.667 14 -42s22 -17 38 -17zM149 74l331 624.001c6.66699 12.667 13.167 21.167 19.5 25.5s15.166 6.5 26.499 6.5c16 0 29.833 -5.5 41.5 -16.5s17.5 -24.167 17.5 -39.5c0 -10 -2.66699 -20 -8 -30l-336 -629c-0.666992 -1.33301 -2.16699 -3.5 -4.5 -6.5
s-3.83301 -5 -4.5 -6s-2 -2.66699 -4 -5s-3.33301 -4 -4 -5s-2 -2.33301 -4 -4s-3.66699 -2.66699 -5 -3s-3 -0.833008 -5 -1.5s-4.16699 -1.16699 -6.5 -1.5s-4.83301 -0.5 -7.5 -0.5c-13.333 0 -26.166 5.5 -38.499 16.5s-18.5 23.833 -18.5 38.5
c0 11.333 3.33301 23.666 10 36.999zM185 401.001c-44 0 -80.667 15.833 -110 47.5s-44 69.5 -44 113.5s14.667 82 44 114s66 48 110 48s80.667 -16 110 -48s44 -70 44 -114s-14.667 -81.833 -44 -113.5s-66 -47.5 -110 -47.5zM537 -11.999c-44 0 -80.667 15.833 -110 47.5
s-44 69.5 -44 113.5s14.667 82 44 114s66 48 110 48s80.667 -16 110 -48s44 -70 44 -114s-14.667 -81.833 -44 -113.5s-66 -47.5 -110 -47.5zM537 90.001c16 0 28.667 5.66699 38 17s14 25.333 14 42s-4.66699 30.834 -14 42.501s-22 17.5 -38 17.5
s-28.667 -5.83301 -38 -17.5s-14 -25.834 -14 -42.501s4.66699 -30.667 14 -42s22 -17 38 -17z" />
    <glyph glyph-name="guilsinglleft" unicode="&#x2039;" horiz-adv-x="296" 
d="M169 281l79 -119.001c7.33301 -10.667 11 -22 11 -34c0 -18 -5.5 -33 -16.5 -45s-25.5 -18 -43.5 -18c-22 0 -38.667 8.33301 -50 25l-103 159c-6 8.66699 -9 20.667 -9 36c0 14.667 8 33.334 24 56.001l97 137c10 11.333 24.333 17 43 17
c17.333 0 31.333 -5.33301 42 -16s16 -23.667 16 -39c0 -13.333 -3.66699 -26 -11 -38z" />
    <glyph glyph-name="guilsinglright" unicode="&#x203a;" horiz-adv-x="296" 
d="M48 158l79 121.001l-79 119c-7.33301 10.667 -11 22 -11 34c0 18 5.5 33 16.5 45s25.5 18 43.5 18c22 0 38.667 -8.33301 50 -25l103 -159c6 -8.66699 9 -20.667 9 -36c0 -14.667 -8 -33.334 -24 -56.001l-97 -137c-10 -11.333 -24.333 -17 -43 -17
c-17.333 0 -31.333 5.33301 -42 16s-16 23.667 -16 39s3.66699 28 11 38z" />
    <glyph glyph-name="Euro" unicode="&#x20ac;" 
d="M529 571l-24.998 0.00195312c-10.667 66.667 -49.667 100 -117 100c-46.667 0 -81.334 -20.167 -104.001 -60.5s-37.334 -99.833 -44.001 -178.5h236l-20 -49h-217c-0.666992 -6.66699 -1 -17.334 -1 -32.001v-32h192l-20 -49h-170c4.66699 -74 19.667 -130.667 45 -170
s60 -59 104 -59c30 0 55.5 8.16699 76.5 24.5s34.167 41.166 39.5 74.499h25l-7 -97c-34 -36 -90.333 -54 -169 -54c-157.333 0 -245.333 93.667 -264 281h-71l20 49h44c-0.666992 6.66699 -1 18 -1 34c0 14 0.333008 24 1 30h-64l20 49h48
c10.667 96 36.834 168.667 78.501 218s104.5 74 188.5 74c79.333 0 135.666 -17.333 168.999 -52z" />
    <glyph glyph-name="afii61352" unicode="&#x2116;" horiz-adv-x="1085" 
d="M39 72l-0.000976562 568c0 24.667 7 43.834 21 57.501s32 20.5 54 20.5c10 0 21.333 -3.33301 34 -10s22.334 -14.334 29.001 -23.001l317 -423h2v378c0 24.667 7 43.834 21 57.501s32 20.5 54 20.5s40 -6.83301 54 -20.5s21 -32.834 21 -57.501v-568
c0 -24.667 -7 -43.834 -21 -57.501s-32 -20.5 -54 -20.5c-9.33301 0 -20.5 3.33301 -33.5 10s-22.833 14.334 -29.5 23.001l-317 418h-2v-373c0 -24.667 -7 -43.834 -21 -57.501s-32 -20.5 -54 -20.5s-40 6.83301 -54 20.5s-21 32.834 -21 57.501zM865.999 465
c48 0 87.832 -16.5 119.499 -49.5s47.5 -72.167 47.5 -117.5c0 -46 -15.667 -85.167 -47 -117.5s-71.333 -48.5 -120 -48.5c-49.333 0 -89.666 16.167 -120.999 48.5s-47 71.5 -47 117.5c0 45.333 16 84.5 48 117.5s72 49.5 120 49.5zM865.998 210c22 0 39.3311 9 51.998 27
s19 38.333 19 61c0 23.333 -6 44 -18 62s-29.667 27 -53 27s-41.166 -9 -53.499 -27s-18.5 -38.667 -18.5 -62c0 -22.667 6.33301 -43 19 -61s30.334 -27 53.001 -27zM737.996 77h255c12.667 0 22.5 -3.5 29.5 -10.5s10.5 -16.5 10.5 -28.5s-3.5 -21.5 -10.5 -28.5
s-16.833 -10.5 -29.5 -10.5h-255c-12 0 -21.667 3.5 -29 10.5s-11 16.5 -11 28.5s3.66699 21.5 11 28.5s17 10.5 29 10.5z" />
    <glyph glyph-name="trademark" unicode="&#x2122;" horiz-adv-x="1000" 
d="M166 360l0.00195312 262h-79c-13.333 0 -24.166 3.83301 -32.499 11.5s-12.5 18.834 -12.5 33.501s4.16699 25.834 12.5 33.501s19.166 11.5 32.499 11.5h278c13.333 0 24.166 -3.83301 32.499 -11.5s12.5 -18.834 12.5 -33.501s-4.16699 -25.834 -12.5 -33.501
s-19.166 -11.5 -32.499 -11.5h-79v-262c0 -18 -5.33301 -32.5 -16 -43.5s-25.334 -16.5 -44.001 -16.5s-33.334 5.5 -44.001 16.5s-16 25.5 -16 43.5zM468.002 360v296.001c0 41.333 28.333 62 85 62c22 0 39.833 -3.83301 53.5 -11.5s25.5 -24.5 35.5 -50.5l71 -182l71 182
c10 26 21.833 42.833 35.5 50.5s31.5 11.5 53.5 11.5c56.667 0 85 -20.667 85 -62v-296c0 -19.333 -4 -34.166 -12 -44.499s-22 -15.5 -42 -15.5s-34 5.16699 -42 15.5s-12 25.166 -12 44.499v208h-2l-72 -208c-5.33301 -14 -9.66602 -24.5 -12.999 -31.5
s-9.33301 -13.5 -18 -19.5s-19.334 -9 -32.001 -9c-18.667 0 -32 4.66699 -40 14s-15.667 24.666 -23 45.999l-72 208h-2v-208c0 -19.333 -4 -34.166 -12 -44.499s-22 -15.5 -42 -15.5s-34 5.16699 -42 15.5s-12 25.166 -12 44.499z" />
    <glyph glyph-name="notequal" unicode="&#x2260;" horiz-adv-x="800" 
d="M762 356c0 -100 -35.333 -185.333 -106 -256s-156 -106 -256 -106s-185.333 35.333 -256 106s-106 156 -106 256s35.333 185.333 106 256s156 106 256 106s185.333 -35.333 256 -106s106 -156 106 -256zM680 356c0 78.667 -27.667 146 -83 202s-121 84 -197 84
s-141.667 -28 -197 -84s-83 -123.333 -83 -202s27.667 -146 83 -202s121 -84 197 -84s141.667 28 197 84s83 123.333 83 202zM400 321h-53v-143c0 -21.333 -11 -32 -33 -32s-33 10.667 -33 32v355c0 16.667 7.66699 25 23 25h102c52 0 90.167 -9 114.5 -27
s36.5 -48.667 36.5 -92c0 -40 -12 -69.667 -36 -89s-64.333 -29 -121 -29zM347 381l45.999 -0.000976562c15.333 0 27.833 0.5 37.5 1.5s19.667 3.5 30 7.5s18 10.5 23 19.5s7.5 20.5 7.5 34.5c0 15.333 -5.16699 27.333 -15.5 36s-21.166 13.834 -32.499 15.501
s-26 2.5 -44 2.5h-52v-117z" />
    <glyph glyph-name=".null" horiz-adv-x="0" 
 />
    <glyph glyph-name="nonmarkingreturn" horiz-adv-x="333" 
 />
    <glyph glyph-name="nbspace" horiz-adv-x="500" 
 />
    <glyph glyph-name="hyphenminus" horiz-adv-x="389" 
d="M88 353h213c18 0 32 -6 42 -18s15 -27.333 15 -46c0 -18 -5 -32.833 -15 -44.5s-24 -17.5 -42 -17.5h-213c-18 0 -32 5.83301 -42 17.5s-15 26.5 -15 44.5c0 18.667 5 34 15 46s24 18 42 18z" />
    </font>
</defs>
</svg>
