<svg width="43" height="34" viewBox="0 0 43 34" fill="none" xmlns="http://www.w3.org/2000/svg">
<path fill-rule="evenodd" clip-rule="evenodd" d="M19.8225 5.54191C12.0769 9.63691 8.31563 13.8632 8.31563 20.9244C8.82562 20.7932 9.27188 20.7932 9.71813 20.7932C13.7662 20.7932 17.6869 23.0507 17.6869 27.1194C17.6869 31.3457 14.4038 33.9707 9.71813 33.9707C3.66188 33.9707 0.1875 29.9807 0.1875 22.8144C0.1875 12.8394 5.76562 5.67316 16.1887 0.711914L19.8225 5.54191ZM42.135 5.54191C34.3894 9.63691 30.6281 13.8632 30.6281 20.9244C31.1381 20.7932 31.5844 20.7932 32.0306 20.7932C36.0788 20.7932 39.9994 23.0507 39.9994 27.1194C39.9994 31.3457 36.7162 33.9707 32.0306 33.9707C26.0062 33.9707 22.5319 29.9807 22.5319 22.8144C22.5319 12.8394 28.11 5.67316 38.5331 0.711914L42.1669 5.54191H42.135Z" fill="white"/>
</svg>
