<svg width="25" height="17" viewBox="0 0 25 17" fill="none" xmlns="http://www.w3.org/2000/svg">
<g clip-path="url(#clip0)">
<path d="M24.1697 2.63203C24.032 2.1233 23.7635 1.65951 23.3908 1.28684C23.0182 0.914168 22.5544 0.64562 22.0457 0.507938C20.1832 0 12.6875 0 12.6875 0C12.6875 0 5.19147 0.015375 3.32904 0.523313C2.8203 0.661003 2.35652 0.929565 1.98386 1.30225C1.6112 1.67494 1.34268 2.13875 1.20504 2.6475C0.641694 5.95669 0.423163 10.9991 1.22051 14.1759C1.35817 14.6847 1.62669 15.1485 1.99935 15.5211C2.372 15.8938 2.83578 16.1623 3.34451 16.3C5.20694 16.808 12.7028 16.808 12.7028 16.808C12.7028 16.808 20.1986 16.808 22.0609 16.3C22.5697 16.1624 23.0335 15.8938 23.4062 15.5212C23.7788 15.1485 24.0474 14.6847 24.185 14.1759C24.7792 10.8621 24.9623 5.82281 24.1697 2.63213V2.63203Z" fill="#FF0000"/>
<path d="M10.3018 12.0056L16.5201 8.40393L10.3019 4.80225L10.3018 12.0056Z" fill="white"/>
</g>
<defs>
<clipPath id="clip0">
<rect width="24" height="16.875" fill="white" transform="translate(0.699707)"/>
</clipPath>
</defs>
</svg>
