<svg width="16" height="17" viewBox="0 0 16 17" fill="none" xmlns="http://www.w3.org/2000/svg">
<path fill-rule="evenodd" clip-rule="evenodd" d="M14.7925 4.25H13.175C13.3977 3.85812 13.5618 3.45437 13.597 3.16937C13.6673 2.37375 13.468 1.72062 12.9875 1.2575C12.5655 0.80625 12.0381 0.6875 11.3935 0.6875H11.2645C10.6433 0.71125 9.96352 0.984375 9.47124 1.37625C8.97897 1.76812 8.61563 2.23125 8.33433 2.80125C8.06475 2.23125 7.68969 1.75625 7.19741 1.37625C6.70514 0.99625 6.02533 0.6875 5.40413 0.6875H5.36897C4.71261 0.6875 4.12657 0.794375 3.68118 1.2575C3.20063 1.72062 3.00137 2.37375 3.0717 3.16937C3.10686 3.4425 3.27095 3.85812 3.49365 4.25H1.87618C1.23154 4.25 0.704102 4.78437 0.704102 5.4375V9H1.87618V14.9375C1.87618 15.5906 2.40361 16.125 3.04826 16.125H13.597C14.2416 16.125 14.769 15.5906 14.769 14.9375V9H15.9411V5.4375C15.9411 4.78437 15.4137 4.25 14.769 4.25H14.7925ZM9.18995 3.205C9.3892 2.7775 9.68222 2.40937 10.069 2.1125C10.4206 1.83937 10.9129 1.64937 11.2997 1.62562H11.4052C11.9326 1.62562 12.1787 1.75625 12.3428 1.9225C12.5069 2.08875 12.7296 2.38562 12.6945 3.05062C12.6359 3.27625 12.4014 3.775 12.1084 4.23812H8.70939L9.18995 3.19312V3.205ZM4.34926 1.9225C4.50163 1.76812 4.71261 1.62562 5.41585 1.62562C5.7792 1.62562 6.25975 1.8275 6.6231 2.1125C7.00988 2.40937 7.3029 2.76562 7.50215 3.205L7.99443 4.25H4.5954C4.30238 3.78687 4.06797 3.28812 4.00936 3.0625C3.9742 2.3975 4.19689 2.10062 4.36098 1.93437L4.34926 1.9225ZM7.76001 14.9256H3.0717V9H7.76001V14.9375V14.9256ZM7.76001 7.80062H1.89962V5.4375H7.76001V7.8125V7.80062ZM13.6204 14.9256H8.93209V9H13.6204V14.9375V14.9256ZM14.7925 7.80062H8.93209V5.4375H14.7925V7.8125V7.80062Z" fill="white"/>
</svg>
