<svg width="60" height="61" viewBox="0 0 60 61" fill="none" xmlns="http://www.w3.org/2000/svg">
<rect y="0.354492" width="60" height="60" rx="6" fill="url(#paint0_angular)"/>
<path d="M19.6646 14.707L18.0806 16.2888L20.4375 18.6445L22.0192 17.0628L19.6635 14.707H19.6646ZM40.3365 14.707L37.9796 17.0628L39.5625 18.6445L41.9182 16.2899L40.3354 14.707H40.3365ZM30 15.409C29.6287 15.4135 29.253 15.4349 28.875 15.481C28.8638 15.481 28.8525 15.4788 28.8413 15.481C24.2782 16.0042 20.6467 19.6908 20.0156 24.2335C19.5116 27.8898 21.0191 31.2052 23.5312 33.3404C24.5588 34.2174 25.2539 35.4208 25.5 36.7492V43.4992H28.065C28.4565 44.1708 29.1709 44.6242 30 44.6242C30.8291 44.6242 31.5435 44.1708 31.935 43.4992H34.5V38.9992H34.6057V37.6627C34.6057 36.0134 35.463 34.3507 36.8557 33.058C38.7188 31.1928 40.125 28.5434 40.125 25.5003C40.125 19.9428 35.5508 15.3573 30 15.409ZM30 17.659C34.3481 17.5983 37.875 21.1578 37.875 25.5003C37.875 27.856 36.7838 29.9305 35.2729 31.4403L35.3089 31.4763C33.8074 32.8608 32.8365 34.7262 32.5639 36.7503H27.6431C27.3956 34.822 26.5688 32.9557 25.0061 31.6169C23.0182 29.9294 21.8336 27.3869 22.2296 24.5159C22.7213 20.9722 25.5968 18.1225 29.1203 17.7322C29.4112 17.6916 29.7041 17.6676 29.9978 17.6602L30 17.659ZM14.25 25.5003V27.7503H17.625V25.5003H14.25ZM42.375 25.5003V27.7503H45.75V25.5003H42.375ZM20.4375 34.606L18.0818 36.9607L19.6646 38.5435L22.0181 36.1878L20.4375 34.606ZM39.5625 34.606L37.9807 36.1878L40.3354 38.5435L41.9182 36.9607L39.5625 34.606ZM27.75 39.0003H32.25V41.2503H27.75V39.0003Z" fill="white"/>
<defs>
<radialGradient id="paint0_angular" cx="0" cy="0" r="1" gradientUnits="userSpaceOnUse" gradientTransform="translate(0.375001 0.0886245) rotate(45) scale(84.8528)">
<stop stop-color="#E76A2C"/>
<stop offset="1" stop-color="#FD7E3E"/>
</radialGradient>
</defs>
</svg>
