<svg width="60" height="61" viewBox="0 0 60 61" fill="none" xmlns="http://www.w3.org/2000/svg">
<rect y="0.354492" width="60" height="60" rx="6" fill="url(#paint0_angular)"/>
<path d="M30.0001 15.6001C22.0597 15.6001 15.6001 22.0597 15.6001 30.0001C15.6001 37.9405 22.0597 44.4001 30.0001 44.4001C37.9405 44.4001 44.4001 37.9405 44.4001 30.0001C44.4001 22.0597 37.9405 15.6001 30.0001 15.6001ZM30.0001 18.0001C36.6421 18.0001 42.0001 23.3581 42.0001 30.0001C42.0001 36.6421 36.6421 42.0001 30.0001 42.0001C23.3581 42.0001 18.0001 36.6421 18.0001 30.0001C18.0001 23.3581 23.3581 18.0001 30.0001 18.0001ZM24.6001 25.2001C24.1227 25.2001 23.6649 25.3897 23.3273 25.7273C22.9897 26.0649 22.8001 26.5227 22.8001 27.0001C22.8001 27.4775 22.9897 27.9353 23.3273 28.2729C23.6649 28.6105 24.1227 28.8001 24.6001 28.8001C25.0775 28.8001 25.5353 28.6105 25.8729 28.2729C26.2105 27.9353 26.4001 27.4775 26.4001 27.0001C26.4001 26.5227 26.2105 26.0649 25.8729 25.7273C25.5353 25.3897 25.0775 25.2001 24.6001 25.2001ZM32.4001 26.4001V28.8001H38.4001V26.4001H32.4001ZM35.9629 31.2373C35.9629 33.2581 35.1517 34.6597 33.9745 35.6629C32.7985 36.6661 31.2421 37.2001 30.0001 37.2001C27.4549 37.2001 25.7245 36.1681 24.3745 34.8373L22.6873 36.5641C24.3613 38.2069 26.7841 39.6001 30.0001 39.6001C31.8661 39.6001 33.9145 38.8969 35.5501 37.5001C37.1857 36.1033 38.3629 33.9481 38.3629 31.2373H35.9629Z" fill="white"/>
<defs>
<radialGradient id="paint0_angular" cx="0" cy="0" r="1" gradientUnits="userSpaceOnUse" gradientTransform="translate(0.375001 0.0886245) rotate(45) scale(84.8528)">
<stop stop-color="#5AC000"/>
<stop offset="1" stop-color="#7BDB27"/>
</radialGradient>
</defs>
</svg>
