<svg width="61" height="61" viewBox="0 0 61 61" fill="none" xmlns="http://www.w3.org/2000/svg">
<rect x="0.5" y="0.354492" width="60" height="60" rx="6" fill="url(#paint0_angular)"/>
<path d="M23 23C22.2089 23 21.4355 22.7654 20.7777 22.3259C20.1199 21.8864 19.6072 21.2616 19.3045 20.5307C19.0017 19.7998 18.9225 18.9956 19.0769 18.2196C19.2312 17.4437 19.6122 16.731 20.1716 16.1716C20.731 15.6122 21.4437 15.2312 22.2196 15.0769C22.9956 14.9225 23.7998 15.0017 24.5307 15.3045C25.2616 15.6072 25.8864 16.1199 26.3259 16.7777C26.7654 17.4355 27 18.2089 27 19C27 20.0609 26.5786 21.0783 25.8284 21.8284C25.0783 22.5786 24.0609 23 23 23ZM23 17C22.6044 17 22.2178 17.1173 21.8889 17.3371C21.56 17.5568 21.3036 17.8692 21.1522 18.2346C21.0009 18.6001 20.9613 19.0022 21.0384 19.3902C21.1156 19.7781 21.3061 20.1345 21.5858 20.4142C21.8655 20.6939 22.2219 20.8844 22.6098 20.9616C22.9978 21.0387 23.3999 20.9991 23.7654 20.8478C24.1308 20.6964 24.4432 20.44 24.6629 20.1111C24.8827 19.7822 25 19.3956 25 19C25 18.4696 24.7893 17.9609 24.4142 17.5858C24.0391 17.2107 23.5304 17 23 17Z" fill="white"/>
<path d="M39 23C38.2089 23 37.4355 22.7654 36.7777 22.3259C36.1199 21.8864 35.6072 21.2616 35.3045 20.5307C35.0017 19.7998 34.9225 18.9956 35.0769 18.2196C35.2312 17.4437 35.6122 16.731 36.1716 16.1716C36.731 15.6122 37.4437 15.2312 38.2196 15.0769C38.9956 14.9225 39.7998 15.0017 40.5307 15.3045C41.2616 15.6072 41.8864 16.1199 42.3259 16.7777C42.7654 17.4355 43 18.2089 43 19C43 20.0609 42.5786 21.0783 41.8284 21.8284C41.0783 22.5786 40.0609 23 39 23ZM39 17C38.6044 17 38.2178 17.1173 37.8889 17.3371C37.56 17.5568 37.3036 17.8692 37.1522 18.2346C37.0009 18.6001 36.9613 19.0022 37.0384 19.3902C37.1156 19.7781 37.3061 20.1345 37.5858 20.4142C37.8655 20.6939 38.2219 20.8844 38.6098 20.9616C38.9978 21.0387 39.3999 20.9991 39.7654 20.8478C40.1308 20.6964 40.4432 20.44 40.6629 20.1111C40.8827 19.7822 41 19.3956 41 19C41 18.4696 40.7893 17.9609 40.4142 17.5858C40.0391 17.2107 39.5304 17 39 17Z" fill="white"/>
<path d="M41 44H37C36.4696 44 35.9609 43.7893 35.5858 43.4142C35.2107 43.0391 35 42.5304 35 42V35H37V42H41V33H43V27C43 26.7348 42.8946 26.4804 42.7071 26.2929C42.5196 26.1054 42.2652 26 42 26H35.58L31 34L26.42 26H20C19.7348 26 19.4804 26.1054 19.2929 26.2929C19.1054 26.4804 19 26.7348 19 27V33H21V42H25V35H27V42C27 42.5304 26.7893 43.0391 26.4142 43.4142C26.0391 43.7893 25.5304 44 25 44H21C20.4696 44 19.9609 43.7893 19.5858 43.4142C19.2107 43.0391 19 42.5304 19 42V35C18.4696 35 17.9609 34.7893 17.5858 34.4142C17.2107 34.0391 17 33.5304 17 33V27C17 26.2044 17.3161 25.4413 17.8787 24.8787C18.4413 24.3161 19.2044 24 20 24H27.58L31 30L34.42 24H42C42.7956 24 43.5587 24.3161 44.1213 24.8787C44.6839 25.4413 45 26.2044 45 27V33C45 33.5304 44.7893 34.0391 44.4142 34.4142C44.0391 34.7893 43.5304 35 43 35V42C43 42.5304 42.7893 43.0391 42.4142 43.4142C42.0391 43.7893 41.5304 44 41 44Z" fill="white"/>
<defs>
<radialGradient id="paint0_angular" cx="0" cy="0" r="1" gradientUnits="userSpaceOnUse" gradientTransform="translate(0.875001 0.0886245) rotate(45) scale(84.8528)">
<stop stop-color="#29A7DC"/>
<stop offset="1" stop-color="#3DC5FF"/>
</radialGradient>
</defs>
</svg>
