<svg width="60" height="61" viewBox="0 0 60 61" fill="none" xmlns="http://www.w3.org/2000/svg">
<rect y="0.354492" width="60" height="60" rx="6" fill="url(#paint0_angular)"/>
<path fill-rule="evenodd" clip-rule="evenodd" d="M34.5454 19.0254L32.7034 17.1374L34.1334 15.7414L35.3774 17.0154L37.1574 16.9934C37.9279 16.9842 38.6924 17.1293 39.406 17.4199C40.1197 17.7106 40.768 18.141 41.3128 18.6859C41.8577 19.2307 42.2881 19.8791 42.5788 20.5927C42.8695 21.3063 43.0145 22.0709 43.0054 22.8414L42.9854 24.6214L44.2574 25.8654C44.8083 26.4037 45.246 27.0467 45.5449 27.7567C45.8438 28.4666 45.9978 29.2291 45.9978 29.9994C45.9978 30.7696 45.8438 31.5321 45.5449 32.2421C45.246 32.952 44.8083 33.595 44.2574 34.1334L42.9834 35.3774L43.0054 37.1574C43.0145 37.9279 42.8695 38.6924 42.5788 39.406C42.2881 40.1197 41.8577 40.768 41.3128 41.3128C40.768 41.8577 40.1197 42.2881 39.406 42.5788C38.6924 42.8695 37.9279 43.0145 37.1574 43.0054L35.3774 42.9854L34.1334 44.2574C33.595 44.8083 32.952 45.246 32.2421 45.5449C31.5321 45.8438 30.7696 45.9978 29.9994 45.9978C29.2291 45.9978 28.4666 45.8438 27.7567 45.5449C27.0467 45.246 26.4037 44.8083 25.8654 44.2574L24.6214 42.9834L22.8414 43.0054C22.0709 43.0145 21.3063 42.8695 20.5927 42.5788C19.8791 42.2881 19.2307 41.8577 18.6859 41.3128C18.141 40.768 17.7106 40.1197 17.4199 39.406C17.1293 38.6924 16.9842 37.9279 16.9934 37.1574L17.0134 35.3774L15.7414 34.1334C15.1904 33.595 14.7527 32.952 14.4538 32.2421C14.1549 31.5321 14.001 30.7696 14.001 29.9994C14.001 29.2291 14.1549 28.4666 14.4538 27.7567C14.7527 27.0467 15.1904 26.4037 15.7414 25.8654L17.0154 24.6214L16.9934 22.8414C16.9842 22.0709 17.1293 21.3063 17.4199 20.5927C17.7106 19.8791 18.141 19.2307 18.6859 18.6859C19.2307 18.141 19.8791 17.7106 20.5927 17.4199C21.3063 17.1293 22.0709 16.9842 22.8414 16.9934L24.6214 17.0134L25.8654 15.7414C26.4037 15.1904 27.0467 14.7527 27.7567 14.4538C28.4666 14.1549 29.2291 14.001 29.9994 14.001C30.7696 14.001 31.5321 14.1549 32.2421 14.4538C32.952 14.7527 33.595 15.1904 34.1334 15.7414L32.7034 17.1374C32.3513 16.7769 31.9307 16.4905 31.4663 16.295C31.002 16.0995 30.5032 15.9987 29.9994 15.9987C29.4955 15.9987 28.9967 16.0995 28.5324 16.295C28.068 16.4905 27.6474 16.7769 27.2954 17.1374L25.4554 19.0254L22.8154 18.9934C22.3117 18.9877 21.812 19.0828 21.3457 19.273C20.8793 19.4632 20.4556 19.7447 20.0995 20.101C19.7435 20.4572 19.4622 20.881 19.2723 21.3475C19.0823 21.814 18.9875 22.3137 18.9934 22.8174L19.0254 25.4534L17.1374 27.2954C16.7769 27.6474 16.4905 28.068 16.295 28.5324C16.0995 28.9967 15.9987 29.4955 15.9987 29.9994C15.9987 30.5032 16.0995 31.002 16.295 31.4663C16.4905 31.9307 16.7769 32.3513 17.1374 32.7034L19.0254 34.5434L18.9934 37.1834C18.9877 37.687 19.0828 38.1867 19.273 38.6531C19.4632 39.1195 19.7447 39.5431 20.101 39.8992C20.4572 40.2552 20.881 40.5365 21.3475 40.7265C21.814 40.9164 22.3137 41.0113 22.8174 41.0054L25.4534 40.9734L27.2954 42.8614C27.6474 43.2218 28.068 43.5082 28.5324 43.7037C28.9967 43.8993 29.4955 44 29.9994 44C30.5032 44 31.002 43.8993 31.4663 43.7037C31.9307 43.5082 32.3513 43.2218 32.7034 42.8614L34.5434 40.9734L37.1834 41.0054C37.687 41.011 38.1867 40.9159 38.6531 40.7257C39.1195 40.5355 39.5431 40.254 39.8992 39.8978C40.2552 39.5415 40.5365 39.1177 40.7265 38.6512C40.9164 38.1847 41.0113 37.685 41.0054 37.1814L40.9734 34.5454L42.8614 32.7034C43.2218 32.3513 43.5082 31.9307 43.7037 31.4663C43.8993 31.002 44 30.5032 44 29.9994C44 29.4955 43.8993 28.9967 43.7037 28.5324C43.5082 28.068 43.2218 27.6474 42.8614 27.2954L40.9734 25.4554L41.0054 22.8154C41.011 22.3117 40.9159 21.812 40.7257 21.3457C40.5355 20.8793 40.254 20.4556 39.8978 20.0995C39.5415 19.7435 39.1177 19.4622 38.6512 19.2723C38.1847 19.0823 37.685 18.9875 37.1814 18.9934L34.5454 19.0254Z" fill="white"/>
<path fill-rule="evenodd" clip-rule="evenodd" d="M34.7083 26.2923C34.8014 26.3852 34.8753 26.4956 34.9257 26.6171C34.9761 26.7385 35.0021 26.8688 35.0021 27.0003C35.0021 27.1319 34.9761 27.2621 34.9257 27.3836C34.8753 27.5051 34.8014 27.6154 34.7083 27.7083L28.7083 33.7083C28.6154 33.8014 28.505 33.8753 28.3836 33.9257C28.2621 33.9762 28.1318 34.0021 28.0003 34.0021C27.8688 34.0021 27.7385 33.9762 27.617 33.9257C27.4955 33.8753 27.3852 33.8014 27.2923 33.7083L24.2923 30.7083C24.1993 30.6153 24.1256 30.505 24.0752 30.3835C24.0249 30.262 23.999 30.1318 23.999 30.0003C23.999 29.8688 24.0249 29.7386 24.0752 29.6172C24.1256 29.4957 24.1993 29.3853 24.2923 29.2923C24.3853 29.1993 24.4956 29.1256 24.6171 29.0753C24.7386 29.025 24.8688 28.9991 25.0003 28.9991C25.1318 28.9991 25.262 29.025 25.3835 29.0753C25.5049 29.1256 25.6153 29.1993 25.7083 29.2923L28.0003 31.5863L33.2923 26.2923C33.3852 26.1992 33.4955 26.1253 33.617 26.0749C33.7385 26.0245 33.8688 25.9985 34.0003 25.9985C34.1318 25.9985 34.2621 26.0245 34.3836 26.0749C34.505 26.1253 34.6154 26.1992 34.7083 26.2923Z" fill="white"/>
<defs>
<radialGradient id="paint0_angular" cx="0" cy="0" r="1" gradientUnits="userSpaceOnUse" gradientTransform="translate(0.375001 0.0886245) rotate(45) scale(84.8528)">
<stop stop-color="#5505BF"/>
<stop offset="1" stop-color="#6F3ED0"/>
</radialGradient>
</defs>
</svg>
