<svg width="61" height="61" viewBox="0 0 61 61" fill="none" xmlns="http://www.w3.org/2000/svg">
<rect x="0.5" y="0.354492" width="60" height="60" rx="6" fill="url(#paint0_angular)"/>
<path fill-rule="evenodd" clip-rule="evenodd" d="M35.5454 19.0254L33.7034 17.1374L35.1334 15.7414L36.3774 17.0154L38.1574 16.9934C38.9279 16.9842 39.6924 17.1293 40.406 17.4199C41.1197 17.7106 41.768 18.141 42.3128 18.6859C42.8577 19.2307 43.2881 19.8791 43.5788 20.5927C43.8695 21.3063 44.0145 22.0709 44.0054 22.8414L43.9854 24.6214L45.2574 25.8654C45.8083 26.4037 46.246 27.0467 46.5449 27.7567C46.8438 28.4666 46.9978 29.2291 46.9978 29.9994C46.9978 30.7696 46.8438 31.5321 46.5449 32.2421C46.246 32.952 45.8083 33.595 45.2574 34.1334L43.9834 35.3774L44.0054 37.1574C44.0145 37.9279 43.8695 38.6924 43.5788 39.406C43.2881 40.1197 42.8577 40.768 42.3128 41.3128C41.768 41.8577 41.1197 42.2881 40.406 42.5788C39.6924 42.8695 38.9279 43.0145 38.1574 43.0054L36.3774 42.9854L35.1334 44.2574C34.595 44.8083 33.952 45.246 33.2421 45.5449C32.5321 45.8438 31.7696 45.9978 30.9994 45.9978C30.2291 45.9978 29.4666 45.8438 28.7567 45.5449C28.0467 45.246 27.4037 44.8083 26.8654 44.2574L25.6214 42.9834L23.8414 43.0054C23.0709 43.0145 22.3063 42.8695 21.5927 42.5788C20.8791 42.2881 20.2307 41.8577 19.6859 41.3128C19.141 40.768 18.7106 40.1197 18.4199 39.406C18.1293 38.6924 17.9842 37.9279 17.9934 37.1574L18.0134 35.3774L16.7414 34.1334C16.1904 33.595 15.7527 32.952 15.4538 32.2421C15.1549 31.5321 15.001 30.7696 15.001 29.9994C15.001 29.2291 15.1549 28.4666 15.4538 27.7567C15.7527 27.0467 16.1904 26.4037 16.7414 25.8654L18.0154 24.6214L17.9934 22.8414C17.9842 22.0709 18.1293 21.3063 18.4199 20.5927C18.7106 19.8791 19.141 19.2307 19.6859 18.6859C20.2307 18.141 20.8791 17.7106 21.5927 17.4199C22.3063 17.1293 23.0709 16.9842 23.8414 16.9934L25.6214 17.0134L26.8654 15.7414C27.4037 15.1904 28.0467 14.7527 28.7567 14.4538C29.4666 14.1549 30.2291 14.001 30.9994 14.001C31.7696 14.001 32.5321 14.1549 33.2421 14.4538C33.952 14.7527 34.595 15.1904 35.1334 15.7414L33.7034 17.1374C33.3513 16.7769 32.9307 16.4905 32.4663 16.295C32.002 16.0995 31.5032 15.9987 30.9994 15.9987C30.4955 15.9987 29.9967 16.0995 29.5324 16.295C29.068 16.4905 28.6474 16.7769 28.2954 17.1374L26.4554 19.0254L23.8154 18.9934C23.3117 18.9877 22.812 19.0828 22.3457 19.273C21.8793 19.4632 21.4556 19.7447 21.0995 20.101C20.7435 20.4572 20.4622 20.881 20.2723 21.3475C20.0823 21.814 19.9875 22.3137 19.9934 22.8174L20.0254 25.4534L18.1374 27.2954C17.7769 27.6474 17.4905 28.068 17.295 28.5324C17.0995 28.9967 16.9987 29.4955 16.9987 29.9994C16.9987 30.5032 17.0995 31.002 17.295 31.4663C17.4905 31.9307 17.7769 32.3513 18.1374 32.7034L20.0254 34.5434L19.9934 37.1834C19.9877 37.687 20.0828 38.1867 20.273 38.6531C20.4632 39.1195 20.7447 39.5431 21.101 39.8992C21.4572 40.2552 21.881 40.5365 22.3475 40.7265C22.814 40.9164 23.3137 41.0113 23.8174 41.0054L26.4534 40.9734L28.2954 42.8614C28.6474 43.2218 29.068 43.5082 29.5324 43.7037C29.9967 43.8993 30.4955 44 30.9994 44C31.5032 44 32.002 43.8993 32.4663 43.7037C32.9307 43.5082 33.3513 43.2218 33.7034 42.8614L35.5434 40.9734L38.1834 41.0054C38.687 41.011 39.1867 40.9159 39.6531 40.7257C40.1195 40.5355 40.5431 40.254 40.8992 39.8978C41.2552 39.5415 41.5365 39.1177 41.7265 38.6512C41.9164 38.1847 42.0113 37.685 42.0054 37.1814L41.9734 34.5454L43.8614 32.7034C44.2218 32.3513 44.5082 31.9307 44.7037 31.4663C44.8993 31.002 45 30.5032 45 29.9994C45 29.4955 44.8993 28.9967 44.7037 28.5324C44.5082 28.068 44.2218 27.6474 43.8614 27.2954L41.9734 25.4554L42.0054 22.8154C42.011 22.3117 41.9159 21.812 41.7257 21.3457C41.5355 20.8793 41.254 20.4556 40.8978 20.0995C40.5415 19.7435 40.1177 19.4622 39.6512 19.2723C39.1847 19.0823 38.685 18.9875 38.1814 18.9934L35.5454 19.0254Z" fill="white"/>
<path fill-rule="evenodd" clip-rule="evenodd" d="M31 25C31.2652 25 31.5196 25.1054 31.7071 25.2929C31.8946 25.4804 32 25.7348 32 26V30C32 30.2652 31.8946 30.5196 31.7071 30.7071C31.5196 30.8946 31.2652 31 31 31H27C26.7348 31 26.4804 30.8946 26.2929 30.7071C26.1054 30.5196 26 30.2652 26 30C26 29.7348 26.1054 29.4804 26.2929 29.2929C26.4804 29.1054 26.7348 29 27 29H30V26C30 25.7348 30.1054 25.4804 30.2929 25.2929C30.4804 25.1054 30.7348 25 31 25Z" fill="white"/>
<path fill-rule="evenodd" clip-rule="evenodd" d="M30 30C30 29.7348 30.1054 29.4804 30.2929 29.2929C30.4804 29.1054 30.7348 29 31 29H35C35.2652 29 35.5196 29.1054 35.7071 29.2929C35.8946 29.4804 36 29.7348 36 30C36 30.2652 35.8946 30.5196 35.7071 30.7071C35.5196 30.8946 35.2652 31 35 31H32V34C32 34.2652 31.8946 34.5196 31.7071 34.7071C31.5196 34.8946 31.2652 35 31 35C30.7348 35 30.4804 34.8946 30.2929 34.7071C30.1054 34.5196 30 34.2652 30 34V30Z" fill="white"/>
<defs>
<radialGradient id="paint0_angular" cx="0" cy="0" r="1" gradientUnits="userSpaceOnUse" gradientTransform="translate(0.875001 0.0886245) rotate(45) scale(84.8528)">
<stop stop-color="#195CA9"/>
<stop offset="1" stop-color="#2E79CF"/>
</radialGradient>
</defs>
</svg>
