<svg width="61" height="61" viewBox="0 0 61 61" fill="none" xmlns="http://www.w3.org/2000/svg">
<rect x="0.5" y="0.354492" width="60" height="60" rx="6" fill="url(#paint0_angular)"/>
<path d="M29.9304 17.8478C29.5104 16.8058 28.3404 15.6878 26.8384 16.1038C25.6584 16.4318 24.8924 17.1458 24.4524 18.0978C24.0444 18.9838 23.9444 20.0258 23.9244 21.0218C23.9044 22.0898 24.1284 23.3738 24.3904 24.4958C24.5074 24.9924 24.6375 25.486 24.7804 25.9758H22.0104C21.3887 25.9757 20.7756 26.1206 20.2196 26.3989C19.6637 26.6772 19.1802 27.0812 18.8077 27.579C18.4352 28.0767 18.1838 28.6544 18.0735 29.2663C17.9632 29.8782 17.9971 30.5073 18.1724 31.1038L20.9004 40.3958C21.0878 41.0332 21.4004 41.627 21.8198 42.1422C22.2393 42.6575 22.7572 43.0841 23.3434 43.3969C23.9296 43.7097 24.5722 43.9026 25.2338 43.9642C25.8954 44.0258 26.5626 43.955 27.1964 43.7558L37.9084 40.3918C38.4877 40.21 39.0181 39.8986 39.4592 39.4814C39.9003 39.0642 40.2407 38.5521 40.4544 37.9838L41.4944 35.2158C41.8254 34.3348 41.8352 33.3654 41.5221 32.478C41.209 31.5906 40.593 30.8419 39.7824 30.3638L36.0384 28.1538C35.6612 27.8554 35.3111 27.5241 34.9924 27.1638C34.3044 26.3878 33.3584 25.0938 32.4084 23.0758C31.9984 22.2038 31.6544 21.5158 31.3424 20.8958C30.8364 19.8878 30.4124 19.0478 29.9304 17.8478ZM34.9624 29.8398C34.9736 29.8466 34.985 29.8533 34.9964 29.8598L38.7664 32.0878C39.1717 32.3269 39.4797 32.7012 39.6363 33.1449C39.7928 33.5886 39.7879 34.0733 39.6224 34.5138L38.5824 37.2818C38.4754 37.566 38.3051 37.8222 38.0844 38.0308C37.8636 38.2394 37.5983 38.395 37.3084 38.4858L26.6004 41.8498C26.2198 41.9696 25.8191 42.0123 25.4218 41.9754C25.0245 41.9385 24.6386 41.8227 24.2866 41.6348C23.9346 41.4468 23.6236 41.1906 23.3718 40.881C23.1201 40.5714 22.9326 40.2147 22.8204 39.8318L20.0944 30.5398C20.0068 30.2415 19.9898 29.9268 20.045 29.6208C20.1002 29.3148 20.226 29.0259 20.4124 28.777C20.5987 28.5281 20.8406 28.3261 21.1187 28.187C21.3968 28.0479 21.7035 27.9756 22.0144 27.9758H26.1464C26.3064 27.9757 26.4641 27.9372 26.6061 27.8636C26.7481 27.7899 26.8704 27.6833 26.9627 27.5526C27.055 27.4219 27.1146 27.271 27.1365 27.1125C27.1584 26.954 27.1419 26.7926 27.0884 26.6418C26.8884 26.0778 26.5844 25.1018 26.3364 24.0398C26.0844 22.9638 25.9064 21.8758 25.9224 21.0598C25.9424 20.1218 26.0404 19.4278 26.2684 18.9338C26.4644 18.5058 26.7704 18.1978 27.3724 18.0318C27.4584 18.0078 27.5604 18.0138 27.6924 18.0998C27.8648 18.2228 27.9969 18.394 28.0724 18.5918C28.5331 19.7153 29.0436 20.8177 29.6024 21.8958C29.9124 22.5118 30.2384 23.1638 30.5964 23.9258C31.6244 26.1118 32.6764 27.5678 33.4964 28.4898C33.9044 28.9498 34.2524 29.2778 34.5084 29.4958C34.6384 29.6063 34.7732 29.7111 34.9124 29.8098L34.9444 29.8298L34.9544 29.8378L34.9604 29.8398H34.9624Z" fill="white"/>
<defs>
<radialGradient id="paint0_angular" cx="0" cy="0" r="1" gradientUnits="userSpaceOnUse" gradientTransform="translate(0.875001 0.0886245) rotate(45) scale(84.8528)">
<stop stop-color="#9A00C0"/>
<stop offset="1" stop-color="#B93BD9"/>
</radialGradient>
</defs>
</svg>
