<svg width="61" height="61" viewBox="0 0 61 61" fill="none" xmlns="http://www.w3.org/2000/svg">
<rect x="0.5" y="0.354492" width="60" height="60" rx="6" fill="url(#paint0_angular)"/>
<path d="M39.7119 37.2919L31.7149 29.2949L30.2999 30.7089L38.2979 38.7059L39.7119 37.2919Z" fill="white"/>
<path d="M30.0002 44.0001C30.1268 44.0004 30.2524 43.9766 30.3702 43.9301C30.534 43.8648 30.6777 43.7573 30.7865 43.6185C30.8954 43.4798 30.9657 43.3147 30.9902 43.1401L31.9902 36.1401L29.9902 35.8601L29.2402 41.1301L26.0002 38.5201V31.0001C26.0009 30.8685 25.9757 30.738 25.926 30.6162C25.8762 30.4943 25.8029 30.3835 25.7102 30.2901L21.6402 26.2201C20.8015 25.3871 20.1364 24.3961 19.6833 23.3044C19.2301 22.2128 18.9979 21.0421 19.0002 19.8601V18.0001H20.8602C22.0422 17.9978 23.2129 18.23 24.3046 18.6831C25.3962 19.1363 26.3872 19.8014 27.2202 20.6401L31.2902 24.7101C31.3836 24.8027 31.4944 24.8761 31.6163 24.9258C31.7381 24.9756 31.8686 25.0008 32.0002 25.0001H39.5202L42.1302 28.2601L36.8602 29.0101L37.1402 31.0101L44.1402 30.0101C44.3148 29.9856 44.4799 29.9153 44.6187 29.8064C44.7574 29.6975 44.8649 29.5539 44.9302 29.3901C44.9963 29.2251 45.0173 29.0455 44.9909 28.8697C44.9645 28.6939 44.8918 28.5284 44.7802 28.3901L40.7802 23.3901C40.6881 23.2704 40.57 23.1731 40.4349 23.1056C40.2998 23.038 40.1512 23.0019 40.0002 23.0001H32.4102L28.6402 19.2201C27.621 18.1952 26.4085 17.3828 25.073 16.8301C23.7375 16.2773 22.3055 15.9952 20.8602 16.0001H19.0002C18.4697 16.0001 17.961 16.2108 17.586 16.5858C17.2109 16.9609 17.0002 17.4696 17.0002 18.0001V19.8601C16.9953 21.3054 17.2774 22.7374 17.8302 24.0729C18.3829 25.4084 19.1953 26.6209 20.2202 27.6401L24.0002 31.4101V39.0001C24.0009 39.1503 24.0354 39.2984 24.1012 39.4334C24.167 39.5685 24.2623 39.6869 24.3802 39.7801L29.3802 43.7801C29.5561 43.9212 29.7746 43.9988 30.0002 44.0001Z" fill="white"/>
<defs>
<radialGradient id="paint0_angular" cx="0" cy="0" r="1" gradientUnits="userSpaceOnUse" gradientTransform="translate(0.875001 0.0886245) rotate(45) scale(84.8528)">
<stop stop-color="#BB1F1F"/>
<stop offset="1" stop-color="#D22F2F"/>
</radialGradient>
</defs>
</svg>
