<svg width="60" height="61" viewBox="0 0 60 61" fill="none" xmlns="http://www.w3.org/2000/svg">
<rect y="0.354492" width="60" height="60" rx="6" fill="url(#paint0_angular)"/>
<path d="M44.5285 28.0575L44.5398 28.049C44.7312 27.9065 44.8731 27.7076 44.9458 27.4802L45.8983 27.7846L44.9458 27.4802C45.0184 27.2529 45.0181 27.0086 44.9448 26.7814C44.8716 26.5543 44.7291 26.3558 44.5373 26.2137C44.3455 26.0717 44.1141 25.9932 43.8755 25.9893L43.8648 25.9891L43.8541 25.9887L35.1657 25.6605L35.1501 25.6599L35.1345 25.6588C34.8994 25.6426 34.674 25.5587 34.4855 25.4173L35.0855 24.6173L34.4855 25.4173C34.2974 25.2763 34.1541 25.084 34.0725 24.8636L44.5285 28.0575ZM44.5285 28.0575L44.5174 28.0662M44.5285 28.0575L44.5174 28.0662M44.5174 28.0662L37.6803 33.4664M44.5174 28.0662L37.6803 33.4664M24.8499 25.6889L24.8343 25.6895L16.1459 26.0177L16.1352 26.0181L16.1245 26.0183C15.8859 26.0222 15.6544 26.1006 15.4627 26.2427C15.2709 26.3848 15.1284 26.5833 15.0552 26.8104C14.9819 27.0375 14.9816 27.2819 15.0542 27.5092C15.1269 27.7365 15.2688 27.9354 15.4602 28.078L15.4706 28.0857L15.4808 28.0938L22.2964 33.4516L22.2968 33.452C22.4846 33.5997 22.6249 33.7992 22.7004 34.0259C22.776 34.2525 22.7834 34.4963 22.7219 34.7271L22.72 34.7341L22.718 34.7411L20.3722 43.053L20.3709 43.0575C20.3061 43.2832 20.3123 43.5235 20.3889 43.7456C20.4654 43.9676 20.6085 44.1607 20.7987 44.2986C20.9889 44.4365 21.217 44.5124 21.4518 44.516C21.6867 44.5197 21.917 44.4509 22.1114 44.3191L22.116 44.3159L22.116 44.3159L29.3143 39.4914C29.5151 39.355 29.7523 39.2821 29.9952 39.2821C30.238 39.2821 30.4752 39.355 30.676 39.4913L37.8744 44.3159L37.8859 44.3237L37.8971 44.3317C38.0874 44.467 38.315 44.5397 38.5485 44.5397C38.7811 44.5397 39.008 44.4674 39.1979 44.333C39.3857 44.1976 39.5272 44.0075 39.6029 43.7886C39.6789 43.569 39.6849 43.3314 39.6202 43.1082L39.6185 43.1025L39.6185 43.1025L37.2545 34.7657C37.186 34.5296 37.1909 34.278 37.2687 34.0445L24.8499 25.6889ZM24.8499 25.6889L24.8655 25.6878M24.8499 25.6889L24.8655 25.6878M24.8655 25.6878C25.1006 25.6716 25.326 25.5877 25.5145 25.4463L24.8655 25.6878ZM37.6803 33.4664C37.4887 33.6136 37.3453 33.8149 37.2687 34.0445L37.6803 33.4664ZM31.0702 16.7544L34.0719 24.8619L25.5145 25.4463C25.7031 25.3049 25.8467 25.112 25.9281 24.8908L25.9282 24.8905L28.9209 16.7523L28.9215 16.7506C29.002 16.5305 29.1481 16.3405 29.3402 16.2063C29.5322 16.072 29.7609 16 29.9952 16C30.2295 16 30.4581 16.072 30.6502 16.2063C30.8422 16.3405 30.9883 16.5305 31.0688 16.7506L31.0702 16.7544Z" stroke="white" stroke-width="2"/>
<defs>
<radialGradient id="paint0_angular" cx="0" cy="0" r="1" gradientUnits="userSpaceOnUse" gradientTransform="translate(0.375001 0.0886245) rotate(45) scale(84.8528)">
<stop stop-color="#FFA41D"/>
<stop offset="1" stop-color="#FFB951"/>
</radialGradient>
</defs>
</svg>
