<svg width="61" height="61" viewBox="0 0 61 61" fill="none" xmlns="http://www.w3.org/2000/svg">
<rect x="0.5" y="0.354492" width="60" height="60" rx="6" fill="url(#paint0_angular)"/>
<path d="M39 16H23C21.9391 16 20.9217 16.4214 20.1716 17.1716C19.4214 17.9217 19 18.9391 19 20V40C19 41.0609 19.4214 42.0783 20.1716 42.8284C20.9217 43.5786 21.9391 44 23 44H39C40.0609 44 41.0783 43.5786 41.8284 42.8284C42.5786 42.0783 43 41.0609 43 40H41C41 40.5304 40.7893 41.0391 40.4142 41.4142C40.0391 41.7893 39.5304 42 39 42H23C22.4696 42 21.9609 41.7893 21.5858 41.4142C21.2107 41.0391 21 40.5304 21 40V20C21 19.4696 21.2107 18.9609 21.5858 18.5858C21.9609 18.2107 22.4696 18 23 18H39C39.5304 18 40.0391 18.2107 40.4142 18.5858C40.7893 18.9609 41 19.4696 41 20H43C43 18.9391 42.5786 17.9217 41.8284 17.1716C41.0783 16.4214 40.0609 16 39 16Z" fill="white"/>
<path d="M43 24V23C43 22.7348 42.8946 22.4804 42.7071 22.2929C42.5196 22.1054 42.2652 22 42 22C41.7348 22 41.4804 22.1054 41.2929 22.2929C41.1054 22.4804 41 22.7348 41 23V24H40C39.7348 24 39.4804 24.1054 39.2929 24.2929C39.1054 24.4804 39 24.7348 39 25C39 25.2652 39.1054 25.5196 39.2929 25.7071C39.4804 25.8946 39.7348 26 40 26H44C44.2652 26 44.5196 25.8946 44.7071 25.7071C44.8946 25.5196 45 25.2652 45 25C45 24.7348 44.8946 24.4804 44.7071 24.2929C44.5196 24.1054 44.2652 24 44 24H43ZM43 30V29C43 28.7348 42.8946 28.4804 42.7071 28.2929C42.5196 28.1054 42.2652 28 42 28C41.7348 28 41.4804 28.1054 41.2929 28.2929C41.1054 28.4804 41 28.7348 41 29V30H40C39.7348 30 39.4804 30.1054 39.2929 30.2929C39.1054 30.4804 39 30.7348 39 31C39 31.2652 39.1054 31.5196 39.2929 31.7071C39.4804 31.8946 39.7348 32 40 32H44C44.2652 32 44.5196 31.8946 44.7071 31.7071C44.8946 31.5196 45 31.2652 45 31C45 30.7348 44.8946 30.4804 44.7071 30.2929C44.5196 30.1054 44.2652 30 44 30H43ZM43 36V35C43 34.7348 42.8946 34.4804 42.7071 34.2929C42.5196 34.1054 42.2652 34 42 34C41.7348 34 41.4804 34.1054 41.2929 34.2929C41.1054 34.4804 41 34.7348 41 35V36H40C39.7348 36 39.4804 36.1054 39.2929 36.2929C39.1054 36.4804 39 36.7348 39 37C39 37.2652 39.1054 37.5196 39.2929 37.7071C39.4804 37.8946 39.7348 38 40 38H44C44.2652 38 44.5196 37.8946 44.7071 37.7071C44.8946 37.5196 45 37.2652 45 37C45 36.7348 44.8946 36.4804 44.7071 36.2929C44.5196 36.1054 44.2652 36 44 36H43Z" fill="white"/>
<path fill-rule="evenodd" clip-rule="evenodd" d="M30.9997 37.9998C30.7345 37.9998 30.4801 37.8945 30.2926 37.7069C30.1051 37.5194 29.9997 37.265 29.9997 36.9998V25.4138L26.7077 28.7078C26.5199 28.8956 26.2653 29.0011 25.9997 29.0011C25.7342 29.0011 25.4795 28.8956 25.2917 28.7078C25.1039 28.5201 24.9985 28.2654 24.9985 27.9998C24.9985 27.7343 25.1039 27.4796 25.2917 27.2918L30.2917 22.2918C30.3846 22.1987 30.495 22.1248 30.6164 22.0744C30.7379 22.024 30.8682 21.998 30.9997 21.998C31.1312 21.998 31.2615 22.024 31.383 22.0744C31.5045 22.1248 31.6148 22.1987 31.7077 22.2918L36.7077 27.2918C36.8007 27.3848 36.8744 27.4952 36.9248 27.6167C36.9751 27.7381 37.001 27.8683 37.001 27.9998C37.001 28.1313 36.9751 28.2615 36.9248 28.383C36.8744 28.5045 36.8007 28.6149 36.7077 28.7078C36.6147 28.8008 36.5044 28.8746 36.3829 28.9249C36.2614 28.9752 36.1312 29.0011 35.9997 29.0011C35.8682 29.0011 35.738 28.9752 35.6165 28.9249C35.4951 28.8746 35.3847 28.8008 35.2917 28.7078L31.9997 25.4138V36.9998C31.9997 37.265 31.8944 37.5194 31.7068 37.7069C31.5193 37.8945 31.2649 37.9998 30.9997 37.9998Z" fill="white"/>
<defs>
<radialGradient id="paint0_angular" cx="0" cy="0" r="1" gradientUnits="userSpaceOnUse" gradientTransform="translate(0.875001 0.0886245) rotate(45) scale(84.8528)">
<stop stop-color="#00C086"/>
<stop offset="1" stop-color="#21D8A1"/>
</radialGradient>
</defs>
</svg>
